SplineFontDB: 3.2
FontName: "Atari800"
FullName: "Atari800"
FamilyName: "Atari800"
Weight: Medium
Copyright: "Copyright 1999, 2015 Atari800 authors"
ItalicAngle: 0
UnderlinePosition: -100
UnderlineWidth: 40
Ascent: 896
Descent: 128
InvalidEm: 0
LayerCount: 2
Layer: 0 0 "Back" 1
Layer: 1 0 "Fore" 0
FSType: 0
OS2Version: 0
OS2_WeightWidthSlopeOnly: 0
OS2_UseTypoMetrics: 0
CreationTime: 1685391793
ModificationTime: 1685394718
PfmFamily: 33
TTFWeight: 500
TTFWidth: 5
LineGap: 72
VLineGap: 0
Panose: 2 0 6 4 0 0 0 0 0 0
OS2TypoAscent: 0
OS2TypoAOffset: 1
OS2TypoDescent: 0
OS2TypoDOffset: 1
OS2TypoLinegap: 0
OS2WinAscent: 0
OS2WinAOffset: 1
OS2WinDescent: 0
OS2WinDOffset: 1
HheadAscent: 0
HheadAOffset: 1
HheadDescent: 0
HheadDOffset: 1
OS2Vendor: 'PfEd'
DEI: 91125
Encoding: UnicodeBmp
UnicodeInterp: none
NameList: AGL For New Fonts
DisplaySize: -24
AntiAlias: 0
FitToEm: 1
WinInfo: 0 50 18
TeXData: 1 0 0 346030 173015 115343 0 1048576 115343 783286 444596 497025 792723 393216 433062 380633 303038 157286 324010 404750 52429 2506097 1059062 262144
BeginChars: 65536 318

StartChar: <
Encoding: 0 0 0
Width: 512
Flags: HW
LayerCount: 2
Fore
SplineSet
0 640 m 1
 0 512 l 1
 128 512 l 1
 128 640 l 1
 0 640 l 1
256 640 m 1
 256 512 l 1
 384 512 l 1
 384 640 l 1
 256 640 l 1
0 384 m 1
 0 256 l 1
 128 256 l 1
 128 384 l 1
 0 384 l 1
256 384 m 1
 256 256 l 1
 384 256 l 1
 384 384 l 1
 256 384 l 1
0 128 m 1
 0 0 l 1
 128 0 l 1
 128 128 l 1
 0 128 l 1
256 128 m 1
 256 0 l 1
 384 0 l 1
 384 128 l 1
 256 128 l 1
EndSplineSet
EndChar

StartChar: <
Encoding: 1 1 1
Width: 512
Flags: HW
LayerCount: 2
Fore
SplineSet
256 768 m 1
 256 640 l 1
 384 640 l 1
 384 768 l 1
 256 768 l 1
128 640 m 1
 128 512 l 1
 256 512 l 1
 256 640 l 1
 128 640 l 1
256 640 m 1
 256 512 l 1
 384 512 l 1
 384 640 l 1
 256 640 l 1
384 640 m 1
 384 512 l 1
 512 512 l 1
 512 640 l 1
 384 640 l 1
0 512 m 1
 0 384 l 1
 128 384 l 1
 128 512 l 1
 0 512 l 1
128 512 m 1
 128 384 l 1
 256 384 l 1
 256 512 l 1
 128 512 l 1
256 512 m 1
 256 384 l 1
 384 384 l 1
 384 512 l 1
 256 512 l 1
384 512 m 1
 384 384 l 1
 512 384 l 1
 512 512 l 1
 384 512 l 1
128 384 m 1
 128 256 l 1
 256 256 l 1
 256 384 l 1
 128 384 l 1
256 384 m 1
 256 256 l 1
 384 256 l 1
 384 384 l 1
 256 384 l 1
384 384 m 1
 384 256 l 1
 512 256 l 1
 512 384 l 1
 384 384 l 1
256 256 m 1
 256 128 l 1
 384 128 l 1
 384 256 l 1
 256 256 l 1
EndSplineSet
EndChar

StartChar: <
Encoding: 2 2 2
Width: 512
Flags: HW
LayerCount: 2
Fore
SplineSet
256 768 m 1
 256 640 l 1
 384 640 l 1
 384 768 l 1
 256 768 l 1
128 640 m 1
 128 512 l 1
 256 512 l 1
 256 640 l 1
 128 640 l 1
384 640 m 1
 384 512 l 1
 512 512 l 1
 512 640 l 1
 384 640 l 1
256 512 m 1
 256 384 l 1
 384 384 l 1
 384 512 l 1
 256 512 l 1
128 384 m 1
 128 256 l 1
 256 256 l 1
 256 384 l 1
 128 384 l 1
384 384 m 1
 384 256 l 1
 512 256 l 1
 512 384 l 1
 384 384 l 1
256 256 m 1
 256 128 l 1
 384 128 l 1
 384 256 l 1
 256 256 l 1
128 128 m 1
 128 0 l 1
 256 0 l 1
 256 128 l 1
 128 128 l 1
384 128 m 1
 384 0 l 1
 512 0 l 1
 512 128 l 1
 384 128 l 1
256 0 m 1
 256 -128 l 1
 384 -128 l 1
 384 0 l 1
 256 0 l 1
EndSplineSet
EndChar

StartChar: <
Encoding: 28 28 3
Width: 512
Flags: HW
LayerCount: 2
Fore
SplineSet
0 768 m 1
 0 640 l 1
 128 640 l 1
 128 768 l 1
 0 768 l 1
128 768 m 1
 128 640 l 1
 256 640 l 1
 256 768 l 1
 128 768 l 1
256 768 m 1
 256 640 l 1
 384 640 l 1
 384 768 l 1
 256 768 l 1
384 768 m 1
 384 640 l 1
 512 640 l 1
 512 768 l 1
 384 768 l 1
128 640 m 1
 128 512 l 1
 256 512 l 1
 256 640 l 1
 128 640 l 1
384 640 m 1
 384 512 l 1
 512 512 l 1
 512 640 l 1
 384 640 l 1
128 512 m 1
 128 384 l 1
 256 384 l 1
 256 512 l 1
 128 512 l 1
384 512 m 1
 384 384 l 1
 512 384 l 1
 512 512 l 1
 384 512 l 1
128 384 m 1
 128 256 l 1
 256 256 l 1
 256 384 l 1
 128 384 l 1
384 384 m 1
 384 256 l 1
 512 256 l 1
 512 384 l 1
 384 384 l 1
128 256 m 1
 128 128 l 1
 256 128 l 1
 256 256 l 1
 128 256 l 1
384 256 m 1
 384 128 l 1
 512 128 l 1
 512 256 l 1
 384 256 l 1
EndSplineSet
EndChar

StartChar: EXCLAMATION
Encoding: 33 33 5
Width: 512
Flags: HW
LayerCount: 2
Fore
SplineSet
128 768 m 1
 128 640 l 1
 256 640 l 1
 256 768 l 1
 128 768 l 1
128 640 m 1
 128 512 l 1
 256 512 l 1
 256 640 l 1
 128 640 l 1
128 512 m 1
 128 384 l 1
 256 384 l 1
 256 512 l 1
 128 512 l 1
128 384 m 1
 128 256 l 1
 256 256 l 1
 256 384 l 1
 128 384 l 1
128 128 m 1
 128 0 l 1
 256 0 l 1
 256 128 l 1
 128 128 l 1
EndSplineSet
EndChar

StartChar: QUOTATION
Encoding: 34 34 6
Width: 512
Flags: HW
LayerCount: 2
Fore
SplineSet
0 768 m 1
 0 640 l 1
 128 640 l 1
 128 768 l 1
 0 768 l 1
256 768 m 1
 256 640 l 1
 384 640 l 1
 384 768 l 1
 256 768 l 1
0 640 m 1
 0 512 l 1
 128 512 l 1
 128 640 l 1
 0 640 l 1
256 640 m 1
 256 512 l 1
 384 512 l 1
 384 640 l 1
 256 640 l 1
EndSplineSet
EndChar

StartChar: NUMBER
Encoding: 35 35 7
Width: 512
Flags: HW
LayerCount: 2
Fore
SplineSet
0 768 m 1
 0 640 l 1
 128 640 l 1
 128 768 l 1
 0 768 l 1
256 768 m 1
 256 640 l 1
 384 640 l 1
 384 768 l 1
 256 768 l 1
0 640 m 1
 0 512 l 1
 128 512 l 1
 128 640 l 1
 0 640 l 1
128 640 m 1
 128 512 l 1
 256 512 l 1
 256 640 l 1
 128 640 l 1
256 640 m 1
 256 512 l 1
 384 512 l 1
 384 640 l 1
 256 640 l 1
0 512 m 1
 0 384 l 1
 128 384 l 1
 128 512 l 1
 0 512 l 1
256 512 m 1
 256 384 l 1
 384 384 l 1
 384 512 l 1
 256 512 l 1
0 384 m 1
 0 256 l 1
 128 256 l 1
 128 384 l 1
 0 384 l 1
256 384 m 1
 256 256 l 1
 384 256 l 1
 384 384 l 1
 256 384 l 1
0 256 m 1
 0 128 l 1
 128 128 l 1
 128 256 l 1
 0 256 l 1
128 256 m 1
 128 128 l 1
 256 128 l 1
 256 256 l 1
 128 256 l 1
256 256 m 1
 256 128 l 1
 384 128 l 1
 384 256 l 1
 256 256 l 1
0 128 m 1
 0 0 l 1
 128 0 l 1
 128 128 l 1
 0 128 l 1
256 128 m 1
 256 0 l 1
 384 0 l 1
 384 128 l 1
 256 128 l 1
EndSplineSet
EndChar

StartChar: DOLLAR
Encoding: 36 36 8
Width: 512
Flags: HW
LayerCount: 2
Fore
SplineSet
128 896 m 1
 128 768 l 1
 256 768 l 1
 256 896 l 1
 128 896 l 1
128 768 m 1
 128 640 l 1
 256 640 l 1
 256 768 l 1
 128 768 l 1
0 640 m 1
 0 512 l 1
 128 512 l 1
 128 640 l 1
 0 640 l 1
256 640 m 1
 256 512 l 1
 384 512 l 1
 384 640 l 1
 256 640 l 1
128 512 m 1
 128 384 l 1
 256 384 l 1
 256 512 l 1
 128 512 l 1
256 384 m 1
 256 256 l 1
 384 256 l 1
 384 384 l 1
 256 384 l 1
0 256 m 1
 0 128 l 1
 128 128 l 1
 128 256 l 1
 0 256 l 1
256 256 m 1
 256 128 l 1
 384 128 l 1
 384 256 l 1
 256 256 l 1
128 128 m 1
 128 0 l 1
 256 0 l 1
 256 128 l 1
 128 128 l 1
128 0 m 1
 128 -128 l 1
 256 -128 l 1
 256 0 l 1
 128 0 l 1
EndSplineSet
EndChar

StartChar: PERCENT
Encoding: 37 37 9
Width: 512
Flags: HW
LayerCount: 2
Fore
SplineSet
0 768 m 1
 0 640 l 1
 128 640 l 1
 128 768 l 1
 0 768 l 1
256 768 m 1
 256 640 l 1
 384 640 l 1
 384 768 l 1
 256 768 l 1
256 640 m 1
 256 512 l 1
 384 512 l 1
 384 640 l 1
 256 640 l 1
128 512 m 1
 128 384 l 1
 256 384 l 1
 256 512 l 1
 128 512 l 1
128 384 m 1
 128 256 l 1
 256 256 l 1
 256 384 l 1
 128 384 l 1
0 256 m 1
 0 128 l 1
 128 128 l 1
 128 256 l 1
 0 256 l 1
0 128 m 1
 0 0 l 1
 128 0 l 1
 128 128 l 1
 0 128 l 1
256 128 m 1
 256 0 l 1
 384 0 l 1
 384 128 l 1
 256 128 l 1
EndSplineSet
EndChar

StartChar: AMPERSAND
Encoding: 38 38 10
Width: 512
Flags: HW
LayerCount: 2
Fore
SplineSet
128 896 m 1
 128 768 l 1
 256 768 l 1
 256 896 l 1
 128 896 l 1
0 768 m 1
 0 640 l 1
 128 640 l 1
 128 768 l 1
 0 768 l 1
256 768 m 1
 256 640 l 1
 384 640 l 1
 384 768 l 1
 256 768 l 1
128 640 m 1
 128 512 l 1
 256 512 l 1
 256 640 l 1
 128 640 l 1
0 512 m 1
 0 384 l 1
 128 384 l 1
 128 512 l 1
 0 512 l 1
256 512 m 1
 256 384 l 1
 384 384 l 1
 384 512 l 1
 256 512 l 1
0 384 m 1
 0 256 l 1
 128 256 l 1
 128 384 l 1
 0 384 l 1
256 384 m 1
 256 256 l 1
 384 256 l 1
 384 384 l 1
 256 384 l 1
0 256 m 1
 0 128 l 1
 128 128 l 1
 128 256 l 1
 0 256 l 1
128 256 m 1
 128 128 l 1
 256 128 l 1
 256 256 l 1
 128 256 l 1
128 128 m 1
 128 0 l 1
 256 0 l 1
 256 128 l 1
 128 128 l 1
256 128 m 1
 256 0 l 1
 384 0 l 1
 384 128 l 1
 256 128 l 1
EndSplineSet
EndChar

StartChar: APOSTROPHE
Encoding: 39 39 11
Width: 512
Flags: HW
LayerCount: 2
Fore
SplineSet
128 768 m 1
 128 640 l 1
 256 640 l 1
 256 768 l 1
 128 768 l 1
128 640 m 1
 128 512 l 1
 256 512 l 1
 256 640 l 1
 128 640 l 1
EndSplineSet
EndChar

StartChar: LEFT
Encoding: 40 40 12
Width: 512
Flags: HW
LayerCount: 2
Fore
SplineSet
256 768 m 1
 256 640 l 1
 384 640 l 1
 384 768 l 1
 256 768 l 1
128 640 m 1
 128 512 l 1
 256 512 l 1
 256 640 l 1
 128 640 l 1
128 512 m 1
 128 384 l 1
 256 384 l 1
 256 512 l 1
 128 512 l 1
128 384 m 1
 128 256 l 1
 256 256 l 1
 256 384 l 1
 128 384 l 1
128 256 m 1
 128 128 l 1
 256 128 l 1
 256 256 l 1
 128 256 l 1
256 128 m 1
 256 0 l 1
 384 0 l 1
 384 128 l 1
 256 128 l 1
EndSplineSet
EndChar

StartChar: RIGHT
Encoding: 41 41 13
Width: 512
Flags: HW
LayerCount: 2
Fore
SplineSet
0 768 m 1
 0 640 l 1
 128 640 l 1
 128 768 l 1
 0 768 l 1
128 640 m 1
 128 512 l 1
 256 512 l 1
 256 640 l 1
 128 640 l 1
128 512 m 1
 128 384 l 1
 256 384 l 1
 256 512 l 1
 128 512 l 1
128 384 m 1
 128 256 l 1
 256 256 l 1
 256 384 l 1
 128 384 l 1
128 256 m 1
 128 128 l 1
 256 128 l 1
 256 256 l 1
 128 256 l 1
0 128 m 1
 0 0 l 1
 128 0 l 1
 128 128 l 1
 0 128 l 1
EndSplineSet
EndChar

StartChar: ASTERISK
Encoding: 42 42 14
Width: 512
Flags: HW
LayerCount: 2
Fore
SplineSet
0 768 m 1
 0 640 l 1
 128 640 l 1
 128 768 l 1
 0 768 l 1
256 768 m 1
 256 640 l 1
 384 640 l 1
 384 768 l 1
 256 768 l 1
128 640 m 1
 128 512 l 1
 256 512 l 1
 256 640 l 1
 128 640 l 1
0 512 m 1
 0 384 l 1
 128 384 l 1
 128 512 l 1
 0 512 l 1
128 512 m 1
 128 384 l 1
 256 384 l 1
 256 512 l 1
 128 512 l 1
256 512 m 1
 256 384 l 1
 384 384 l 1
 384 512 l 1
 256 512 l 1
128 384 m 1
 128 256 l 1
 256 256 l 1
 256 384 l 1
 128 384 l 1
0 256 m 1
 0 128 l 1
 128 128 l 1
 128 256 l 1
 0 256 l 1
256 256 m 1
 256 128 l 1
 384 128 l 1
 384 256 l 1
 256 256 l 1
EndSplineSet
EndChar

StartChar: PLUS
Encoding: 43 43 15
Width: 512
Flags: HW
LayerCount: 2
Fore
SplineSet
128 768 m 1
 128 640 l 1
 256 640 l 1
 256 768 l 1
 128 768 l 1
128 640 m 1
 128 512 l 1
 256 512 l 1
 256 640 l 1
 128 640 l 1
0 512 m 1
 0 384 l 1
 128 384 l 1
 128 512 l 1
 0 512 l 1
128 512 m 1
 128 384 l 1
 256 384 l 1
 256 512 l 1
 128 512 l 1
256 512 m 1
 256 384 l 1
 384 384 l 1
 384 512 l 1
 256 512 l 1
128 384 m 1
 128 256 l 1
 256 256 l 1
 256 384 l 1
 128 384 l 1
128 256 m 1
 128 128 l 1
 256 128 l 1
 256 256 l 1
 128 256 l 1
EndSplineSet
EndChar

StartChar: COMMA
Encoding: 44 44 16
Width: 512
Flags: HW
LayerCount: 2
Fore
SplineSet
128 256 m 1
 128 128 l 1
 256 128 l 1
 256 256 l 1
 128 256 l 1
128 128 m 1
 128 0 l 1
 256 0 l 1
 256 128 l 1
 128 128 l 1
0 0 m 1
 0 -128 l 1
 128 -128 l 1
 128 0 l 1
 0 0 l 1
EndSplineSet
EndChar

StartChar: HYPHEN-MINUS
Encoding: 45 45 17
Width: 512
Flags: HW
LayerCount: 2
Fore
SplineSet
0 512 m 1
 0 384 l 1
 128 384 l 1
 128 512 l 1
 0 512 l 1
128 512 m 1
 128 384 l 1
 256 384 l 1
 256 512 l 1
 128 512 l 1
256 512 m 1
 256 384 l 1
 384 384 l 1
 384 512 l 1
 256 512 l 1
EndSplineSet
EndChar

StartChar: FULL
Encoding: 46 46 18
Width: 512
Flags: HW
LayerCount: 2
Fore
SplineSet
128 256 m 1
 128 128 l 1
 256 128 l 1
 256 256 l 1
 128 256 l 1
128 128 m 1
 128 0 l 1
 256 0 l 1
 256 128 l 1
 128 128 l 1
EndSplineSet
EndChar

StartChar: SOLIDUS
Encoding: 47 47 19
Width: 512
Flags: HW
LayerCount: 2
Fore
SplineSet
256 768 m 1
 256 640 l 1
 384 640 l 1
 384 768 l 1
 256 768 l 1
256 640 m 1
 256 512 l 1
 384 512 l 1
 384 640 l 1
 256 640 l 1
128 512 m 1
 128 384 l 1
 256 384 l 1
 256 512 l 1
 128 512 l 1
128 384 m 1
 128 256 l 1
 256 256 l 1
 256 384 l 1
 128 384 l 1
0 256 m 1
 0 128 l 1
 128 128 l 1
 128 256 l 1
 0 256 l 1
0 128 m 1
 0 0 l 1
 128 0 l 1
 128 128 l 1
 0 128 l 1
EndSplineSet
EndChar

StartChar: DIGIT
Encoding: 48 48 20
Width: 512
Flags: HW
LayerCount: 2
Fore
SplineSet
128 768 m 1
 128 640 l 1
 256 640 l 1
 256 768 l 1
 128 768 l 1
0 640 m 1
 0 512 l 1
 128 512 l 1
 128 640 l 1
 0 640 l 1
256 640 m 1
 256 512 l 1
 384 512 l 1
 384 640 l 1
 256 640 l 1
0 512 m 1
 0 384 l 1
 128 384 l 1
 128 512 l 1
 0 512 l 1
128 512 m 1
 128 384 l 1
 256 384 l 1
 256 512 l 1
 128 512 l 1
256 512 m 1
 256 384 l 1
 384 384 l 1
 384 512 l 1
 256 512 l 1
0 384 m 1
 0 256 l 1
 128 256 l 1
 128 384 l 1
 0 384 l 1
256 384 m 1
 256 256 l 1
 384 256 l 1
 384 384 l 1
 256 384 l 1
0 256 m 1
 0 128 l 1
 128 128 l 1
 128 256 l 1
 0 256 l 1
256 256 m 1
 256 128 l 1
 384 128 l 1
 384 256 l 1
 256 256 l 1
128 128 m 1
 128 0 l 1
 256 0 l 1
 256 128 l 1
 128 128 l 1
EndSplineSet
EndChar

StartChar: DIGIT
Encoding: 49 49 21
Width: 512
Flags: HW
LayerCount: 2
Fore
SplineSet
128 768 m 1
 128 640 l 1
 256 640 l 1
 256 768 l 1
 128 768 l 1
0 640 m 1
 0 512 l 1
 128 512 l 1
 128 640 l 1
 0 640 l 1
128 640 m 1
 128 512 l 1
 256 512 l 1
 256 640 l 1
 128 640 l 1
128 512 m 1
 128 384 l 1
 256 384 l 1
 256 512 l 1
 128 512 l 1
128 384 m 1
 128 256 l 1
 256 256 l 1
 256 384 l 1
 128 384 l 1
128 256 m 1
 128 128 l 1
 256 128 l 1
 256 256 l 1
 128 256 l 1
0 128 m 1
 0 0 l 1
 128 0 l 1
 128 128 l 1
 0 128 l 1
128 128 m 1
 128 0 l 1
 256 0 l 1
 256 128 l 1
 128 128 l 1
256 128 m 1
 256 0 l 1
 384 0 l 1
 384 128 l 1
 256 128 l 1
EndSplineSet
EndChar

StartChar: DIGIT
Encoding: 50 50 22
Width: 512
Flags: HW
LayerCount: 2
Fore
SplineSet
128 768 m 1
 128 640 l 1
 256 640 l 1
 256 768 l 1
 128 768 l 1
0 640 m 1
 0 512 l 1
 128 512 l 1
 128 640 l 1
 0 640 l 1
256 640 m 1
 256 512 l 1
 384 512 l 1
 384 640 l 1
 256 640 l 1
256 512 m 1
 256 384 l 1
 384 384 l 1
 384 512 l 1
 256 512 l 1
128 384 m 1
 128 256 l 1
 256 256 l 1
 256 384 l 1
 128 384 l 1
0 256 m 1
 0 128 l 1
 128 128 l 1
 128 256 l 1
 0 256 l 1
0 128 m 1
 0 0 l 1
 128 0 l 1
 128 128 l 1
 0 128 l 1
128 128 m 1
 128 0 l 1
 256 0 l 1
 256 128 l 1
 128 128 l 1
256 128 m 1
 256 0 l 1
 384 0 l 1
 384 128 l 1
 256 128 l 1
EndSplineSet
EndChar

StartChar: DIGIT
Encoding: 51 51 23
Width: 512
Flags: HW
LayerCount: 2
Fore
SplineSet
0 768 m 1
 0 640 l 1
 128 640 l 1
 128 768 l 1
 0 768 l 1
128 768 m 1
 128 640 l 1
 256 640 l 1
 256 768 l 1
 128 768 l 1
256 768 m 1
 256 640 l 1
 384 640 l 1
 384 768 l 1
 256 768 l 1
256 640 m 1
 256 512 l 1
 384 512 l 1
 384 640 l 1
 256 640 l 1
128 512 m 1
 128 384 l 1
 256 384 l 1
 256 512 l 1
 128 512 l 1
256 384 m 1
 256 256 l 1
 384 256 l 1
 384 384 l 1
 256 384 l 1
0 256 m 1
 0 128 l 1
 128 128 l 1
 128 256 l 1
 0 256 l 1
256 256 m 1
 256 128 l 1
 384 128 l 1
 384 256 l 1
 256 256 l 1
128 128 m 1
 128 0 l 1
 256 0 l 1
 256 128 l 1
 128 128 l 1
EndSplineSet
EndChar

StartChar: DIGIT
Encoding: 52 52 24
Width: 512
Flags: HW
LayerCount: 2
Fore
SplineSet
256 768 m 1
 256 640 l 1
 384 640 l 1
 384 768 l 1
 256 768 l 1
128 640 m 1
 128 512 l 1
 256 512 l 1
 256 640 l 1
 128 640 l 1
256 640 m 1
 256 512 l 1
 384 512 l 1
 384 640 l 1
 256 640 l 1
0 512 m 1
 0 384 l 1
 128 384 l 1
 128 512 l 1
 0 512 l 1
256 512 m 1
 256 384 l 1
 384 384 l 1
 384 512 l 1
 256 512 l 1
0 384 m 1
 0 256 l 1
 128 256 l 1
 128 384 l 1
 0 384 l 1
128 384 m 1
 128 256 l 1
 256 256 l 1
 256 384 l 1
 128 384 l 1
256 384 m 1
 256 256 l 1
 384 256 l 1
 384 384 l 1
 256 384 l 1
256 256 m 1
 256 128 l 1
 384 128 l 1
 384 256 l 1
 256 256 l 1
256 128 m 1
 256 0 l 1
 384 0 l 1
 384 128 l 1
 256 128 l 1
EndSplineSet
EndChar

StartChar: DIGIT
Encoding: 53 53 25
Width: 512
Flags: HW
LayerCount: 2
Fore
SplineSet
0 768 m 1
 0 640 l 1
 128 640 l 1
 128 768 l 1
 0 768 l 1
128 768 m 1
 128 640 l 1
 256 640 l 1
 256 768 l 1
 128 768 l 1
256 768 m 1
 256 640 l 1
 384 640 l 1
 384 768 l 1
 256 768 l 1
0 640 m 1
 0 512 l 1
 128 512 l 1
 128 640 l 1
 0 640 l 1
0 512 m 1
 0 384 l 1
 128 384 l 1
 128 512 l 1
 0 512 l 1
128 512 m 1
 128 384 l 1
 256 384 l 1
 256 512 l 1
 128 512 l 1
256 384 m 1
 256 256 l 1
 384 256 l 1
 384 384 l 1
 256 384 l 1
0 256 m 1
 0 128 l 1
 128 128 l 1
 128 256 l 1
 0 256 l 1
256 256 m 1
 256 128 l 1
 384 128 l 1
 384 256 l 1
 256 256 l 1
128 128 m 1
 128 0 l 1
 256 0 l 1
 256 128 l 1
 128 128 l 1
EndSplineSet
EndChar

StartChar: DIGIT
Encoding: 54 54 26
Width: 512
Flags: HW
LayerCount: 2
Fore
SplineSet
128 768 m 1
 128 640 l 1
 256 640 l 1
 256 768 l 1
 128 768 l 1
256 768 m 1
 256 640 l 1
 384 640 l 1
 384 768 l 1
 256 768 l 1
0 640 m 1
 0 512 l 1
 128 512 l 1
 128 640 l 1
 0 640 l 1
0 512 m 1
 0 384 l 1
 128 384 l 1
 128 512 l 1
 0 512 l 1
128 512 m 1
 128 384 l 1
 256 384 l 1
 256 512 l 1
 128 512 l 1
0 384 m 1
 0 256 l 1
 128 256 l 1
 128 384 l 1
 0 384 l 1
256 384 m 1
 256 256 l 1
 384 256 l 1
 384 384 l 1
 256 384 l 1
0 256 m 1
 0 128 l 1
 128 128 l 1
 128 256 l 1
 0 256 l 1
256 256 m 1
 256 128 l 1
 384 128 l 1
 384 256 l 1
 256 256 l 1
128 128 m 1
 128 0 l 1
 256 0 l 1
 256 128 l 1
 128 128 l 1
EndSplineSet
EndChar

StartChar: DIGIT
Encoding: 55 55 27
Width: 512
Flags: HW
LayerCount: 2
Fore
SplineSet
0 768 m 1
 0 640 l 1
 128 640 l 1
 128 768 l 1
 0 768 l 1
128 768 m 1
 128 640 l 1
 256 640 l 1
 256 768 l 1
 128 768 l 1
256 768 m 1
 256 640 l 1
 384 640 l 1
 384 768 l 1
 256 768 l 1
256 640 m 1
 256 512 l 1
 384 512 l 1
 384 640 l 1
 256 640 l 1
256 512 m 1
 256 384 l 1
 384 384 l 1
 384 512 l 1
 256 512 l 1
128 384 m 1
 128 256 l 1
 256 256 l 1
 256 384 l 1
 128 384 l 1
128 256 m 1
 128 128 l 1
 256 128 l 1
 256 256 l 1
 128 256 l 1
128 128 m 1
 128 0 l 1
 256 0 l 1
 256 128 l 1
 128 128 l 1
EndSplineSet
EndChar

StartChar: DIGIT
Encoding: 56 56 28
Width: 512
Flags: HW
LayerCount: 2
Fore
SplineSet
128 768 m 1
 128 640 l 1
 256 640 l 1
 256 768 l 1
 128 768 l 1
0 640 m 1
 0 512 l 1
 128 512 l 1
 128 640 l 1
 0 640 l 1
256 640 m 1
 256 512 l 1
 384 512 l 1
 384 640 l 1
 256 640 l 1
128 512 m 1
 128 384 l 1
 256 384 l 1
 256 512 l 1
 128 512 l 1
0 384 m 1
 0 256 l 1
 128 256 l 1
 128 384 l 1
 0 384 l 1
256 384 m 1
 256 256 l 1
 384 256 l 1
 384 384 l 1
 256 384 l 1
0 256 m 1
 0 128 l 1
 128 128 l 1
 128 256 l 1
 0 256 l 1
256 256 m 1
 256 128 l 1
 384 128 l 1
 384 256 l 1
 256 256 l 1
128 128 m 1
 128 0 l 1
 256 0 l 1
 256 128 l 1
 128 128 l 1
EndSplineSet
EndChar

StartChar: DIGIT
Encoding: 57 57 29
Width: 512
Flags: HW
LayerCount: 2
Fore
SplineSet
128 768 m 1
 128 640 l 1
 256 640 l 1
 256 768 l 1
 128 768 l 1
0 640 m 1
 0 512 l 1
 128 512 l 1
 128 640 l 1
 0 640 l 1
256 640 m 1
 256 512 l 1
 384 512 l 1
 384 640 l 1
 256 640 l 1
0 512 m 1
 0 384 l 1
 128 384 l 1
 128 512 l 1
 0 512 l 1
256 512 m 1
 256 384 l 1
 384 384 l 1
 384 512 l 1
 256 512 l 1
128 384 m 1
 128 256 l 1
 256 256 l 1
 256 384 l 1
 128 384 l 1
256 384 m 1
 256 256 l 1
 384 256 l 1
 384 384 l 1
 256 384 l 1
256 256 m 1
 256 128 l 1
 384 128 l 1
 384 256 l 1
 256 256 l 1
0 128 m 1
 0 0 l 1
 128 0 l 1
 128 128 l 1
 0 128 l 1
128 128 m 1
 128 0 l 1
 256 0 l 1
 256 128 l 1
 128 128 l 1
EndSplineSet
EndChar

StartChar: COLON
Encoding: 58 58 30
Width: 512
Flags: HW
LayerCount: 2
Fore
SplineSet
128 640 m 1
 128 512 l 1
 256 512 l 1
 256 640 l 1
 128 640 l 1
128 256 m 1
 128 128 l 1
 256 128 l 1
 256 256 l 1
 128 256 l 1
EndSplineSet
EndChar

StartChar: SEMICOLON
Encoding: 59 59 31
Width: 512
Flags: HW
LayerCount: 2
Fore
SplineSet
128 640 m 1
 128 512 l 1
 256 512 l 1
 256 640 l 1
 128 640 l 1
128 256 m 1
 128 128 l 1
 256 128 l 1
 256 256 l 1
 128 256 l 1
0 128 m 1
 0 0 l 1
 128 0 l 1
 128 128 l 1
 0 128 l 1
EndSplineSet
EndChar

StartChar: LESS-THAN
Encoding: 60 60 32
Width: 512
Flags: HW
LayerCount: 2
Fore
SplineSet
256 640 m 1
 256 512 l 1
 384 512 l 1
 384 640 l 1
 256 640 l 1
128 512 m 1
 128 384 l 1
 256 384 l 1
 256 512 l 1
 128 512 l 1
0 384 m 1
 0 256 l 1
 128 256 l 1
 128 384 l 1
 0 384 l 1
128 256 m 1
 128 128 l 1
 256 128 l 1
 256 256 l 1
 128 256 l 1
256 128 m 1
 256 0 l 1
 384 0 l 1
 384 128 l 1
 256 128 l 1
EndSplineSet
EndChar

StartChar: EQUALS
Encoding: 61 61 33
Width: 512
Flags: HW
LayerCount: 2
Fore
SplineSet
0 640 m 1
 0 512 l 1
 128 512 l 1
 128 640 l 1
 0 640 l 1
128 640 m 1
 128 512 l 1
 256 512 l 1
 256 640 l 1
 128 640 l 1
256 640 m 1
 256 512 l 1
 384 512 l 1
 384 640 l 1
 256 640 l 1
0 384 m 1
 0 256 l 1
 128 256 l 1
 128 384 l 1
 0 384 l 1
128 384 m 1
 128 256 l 1
 256 256 l 1
 256 384 l 1
 128 384 l 1
256 384 m 1
 256 256 l 1
 384 256 l 1
 384 384 l 1
 256 384 l 1
EndSplineSet
EndChar

StartChar: GREATER-THAN
Encoding: 62 62 34
Width: 512
Flags: HW
LayerCount: 2
Fore
SplineSet
0 640 m 1
 0 512 l 1
 128 512 l 1
 128 640 l 1
 0 640 l 1
128 512 m 1
 128 384 l 1
 256 384 l 1
 256 512 l 1
 128 512 l 1
256 384 m 1
 256 256 l 1
 384 256 l 1
 384 384 l 1
 256 384 l 1
128 256 m 1
 128 128 l 1
 256 128 l 1
 256 256 l 1
 128 256 l 1
0 128 m 1
 0 0 l 1
 128 0 l 1
 128 128 l 1
 0 128 l 1
EndSplineSet
EndChar

StartChar: QUESTION
Encoding: 63 63 35
Width: 512
Flags: HW
LayerCount: 2
Fore
SplineSet
128 768 m 1
 128 640 l 1
 256 640 l 1
 256 768 l 1
 128 768 l 1
0 640 m 1
 0 512 l 1
 128 512 l 1
 128 640 l 1
 0 640 l 1
256 640 m 1
 256 512 l 1
 384 512 l 1
 384 640 l 1
 256 640 l 1
256 512 m 1
 256 384 l 1
 384 384 l 1
 384 512 l 1
 256 512 l 1
128 384 m 1
 128 256 l 1
 256 256 l 1
 256 384 l 1
 128 384 l 1
128 128 m 1
 128 0 l 1
 256 0 l 1
 256 128 l 1
 128 128 l 1
EndSplineSet
EndChar

StartChar: COMMERCIAL
Encoding: 64 64 36
Width: 512
Flags: HW
LayerCount: 2
Fore
SplineSet
128 768 m 1
 128 640 l 1
 256 640 l 1
 256 768 l 1
 128 768 l 1
0 640 m 1
 0 512 l 1
 128 512 l 1
 128 640 l 1
 0 640 l 1
256 640 m 1
 256 512 l 1
 384 512 l 1
 384 640 l 1
 256 640 l 1
0 512 m 1
 0 384 l 1
 128 384 l 1
 128 512 l 1
 0 512 l 1
256 512 m 1
 256 384 l 1
 384 384 l 1
 384 512 l 1
 256 512 l 1
0 384 m 1
 0 256 l 1
 128 256 l 1
 128 384 l 1
 0 384 l 1
0 256 m 1
 0 128 l 1
 128 128 l 1
 128 256 l 1
 0 256 l 1
128 128 m 1
 128 0 l 1
 256 0 l 1
 256 128 l 1
 128 128 l 1
256 128 m 1
 256 0 l 1
 384 0 l 1
 384 128 l 1
 256 128 l 1
EndSplineSet
EndChar

StartChar: LATIN
Encoding: 65 65 37
Width: 512
Flags: HW
LayerCount: 2
Fore
SplineSet
128 768 m 1
 128 640 l 1
 256 640 l 1
 256 768 l 1
 128 768 l 1
0 640 m 1
 0 512 l 1
 128 512 l 1
 128 640 l 1
 0 640 l 1
256 640 m 1
 256 512 l 1
 384 512 l 1
 384 640 l 1
 256 640 l 1
0 512 m 1
 0 384 l 1
 128 384 l 1
 128 512 l 1
 0 512 l 1
256 512 m 1
 256 384 l 1
 384 384 l 1
 384 512 l 1
 256 512 l 1
0 384 m 1
 0 256 l 1
 128 256 l 1
 128 384 l 1
 0 384 l 1
128 384 m 1
 128 256 l 1
 256 256 l 1
 256 384 l 1
 128 384 l 1
256 384 m 1
 256 256 l 1
 384 256 l 1
 384 384 l 1
 256 384 l 1
0 256 m 1
 0 128 l 1
 128 128 l 1
 128 256 l 1
 0 256 l 1
256 256 m 1
 256 128 l 1
 384 128 l 1
 384 256 l 1
 256 256 l 1
0 128 m 1
 0 0 l 1
 128 0 l 1
 128 128 l 1
 0 128 l 1
256 128 m 1
 256 0 l 1
 384 0 l 1
 384 128 l 1
 256 128 l 1
EndSplineSet
EndChar

StartChar: LATIN
Encoding: 66 66 38
Width: 512
Flags: HW
LayerCount: 2
Fore
SplineSet
0 768 m 1
 0 640 l 1
 128 640 l 1
 128 768 l 1
 0 768 l 1
128 768 m 1
 128 640 l 1
 256 640 l 1
 256 768 l 1
 128 768 l 1
0 640 m 1
 0 512 l 1
 128 512 l 1
 128 640 l 1
 0 640 l 1
256 640 m 1
 256 512 l 1
 384 512 l 1
 384 640 l 1
 256 640 l 1
0 512 m 1
 0 384 l 1
 128 384 l 1
 128 512 l 1
 0 512 l 1
128 512 m 1
 128 384 l 1
 256 384 l 1
 256 512 l 1
 128 512 l 1
0 384 m 1
 0 256 l 1
 128 256 l 1
 128 384 l 1
 0 384 l 1
256 384 m 1
 256 256 l 1
 384 256 l 1
 384 384 l 1
 256 384 l 1
0 256 m 1
 0 128 l 1
 128 128 l 1
 128 256 l 1
 0 256 l 1
256 256 m 1
 256 128 l 1
 384 128 l 1
 384 256 l 1
 256 256 l 1
0 128 m 1
 0 0 l 1
 128 0 l 1
 128 128 l 1
 0 128 l 1
128 128 m 1
 128 0 l 1
 256 0 l 1
 256 128 l 1
 128 128 l 1
EndSplineSet
EndChar

StartChar: LATIN
Encoding: 67 67 39
Width: 512
Flags: HW
LayerCount: 2
Fore
SplineSet
128 768 m 1
 128 640 l 1
 256 640 l 1
 256 768 l 1
 128 768 l 1
0 640 m 1
 0 512 l 1
 128 512 l 1
 128 640 l 1
 0 640 l 1
256 640 m 1
 256 512 l 1
 384 512 l 1
 384 640 l 1
 256 640 l 1
0 512 m 1
 0 384 l 1
 128 384 l 1
 128 512 l 1
 0 512 l 1
0 384 m 1
 0 256 l 1
 128 256 l 1
 128 384 l 1
 0 384 l 1
0 256 m 1
 0 128 l 1
 128 128 l 1
 128 256 l 1
 0 256 l 1
256 256 m 1
 256 128 l 1
 384 128 l 1
 384 256 l 1
 256 256 l 1
128 128 m 1
 128 0 l 1
 256 0 l 1
 256 128 l 1
 128 128 l 1
EndSplineSet
EndChar

StartChar: LATIN
Encoding: 68 68 40
Width: 512
Flags: HW
LayerCount: 2
Fore
SplineSet
0 768 m 1
 0 640 l 1
 128 640 l 1
 128 768 l 1
 0 768 l 1
128 768 m 1
 128 640 l 1
 256 640 l 1
 256 768 l 1
 128 768 l 1
0 640 m 1
 0 512 l 1
 128 512 l 1
 128 640 l 1
 0 640 l 1
256 640 m 1
 256 512 l 1
 384 512 l 1
 384 640 l 1
 256 640 l 1
0 512 m 1
 0 384 l 1
 128 384 l 1
 128 512 l 1
 0 512 l 1
256 512 m 1
 256 384 l 1
 384 384 l 1
 384 512 l 1
 256 512 l 1
0 384 m 1
 0 256 l 1
 128 256 l 1
 128 384 l 1
 0 384 l 1
256 384 m 1
 256 256 l 1
 384 256 l 1
 384 384 l 1
 256 384 l 1
0 256 m 1
 0 128 l 1
 128 128 l 1
 128 256 l 1
 0 256 l 1
256 256 m 1
 256 128 l 1
 384 128 l 1
 384 256 l 1
 256 256 l 1
0 128 m 1
 0 0 l 1
 128 0 l 1
 128 128 l 1
 0 128 l 1
128 128 m 1
 128 0 l 1
 256 0 l 1
 256 128 l 1
 128 128 l 1
EndSplineSet
EndChar

StartChar: LATIN
Encoding: 69 69 41
Width: 512
Flags: HW
LayerCount: 2
Fore
SplineSet
0 768 m 1
 0 640 l 1
 128 640 l 1
 128 768 l 1
 0 768 l 1
128 768 m 1
 128 640 l 1
 256 640 l 1
 256 768 l 1
 128 768 l 1
256 768 m 1
 256 640 l 1
 384 640 l 1
 384 768 l 1
 256 768 l 1
0 640 m 1
 0 512 l 1
 128 512 l 1
 128 640 l 1
 0 640 l 1
0 512 m 1
 0 384 l 1
 128 384 l 1
 128 512 l 1
 0 512 l 1
128 512 m 1
 128 384 l 1
 256 384 l 1
 256 512 l 1
 128 512 l 1
256 512 m 1
 256 384 l 1
 384 384 l 1
 384 512 l 1
 256 512 l 1
0 384 m 1
 0 256 l 1
 128 256 l 1
 128 384 l 1
 0 384 l 1
0 256 m 1
 0 128 l 1
 128 128 l 1
 128 256 l 1
 0 256 l 1
0 128 m 1
 0 0 l 1
 128 0 l 1
 128 128 l 1
 0 128 l 1
128 128 m 1
 128 0 l 1
 256 0 l 1
 256 128 l 1
 128 128 l 1
256 128 m 1
 256 0 l 1
 384 0 l 1
 384 128 l 1
 256 128 l 1
EndSplineSet
EndChar

StartChar: LATIN
Encoding: 70 70 42
Width: 512
Flags: HW
LayerCount: 2
Fore
SplineSet
0 768 m 1
 0 640 l 1
 128 640 l 1
 128 768 l 1
 0 768 l 1
128 768 m 1
 128 640 l 1
 256 640 l 1
 256 768 l 1
 128 768 l 1
256 768 m 1
 256 640 l 1
 384 640 l 1
 384 768 l 1
 256 768 l 1
0 640 m 1
 0 512 l 1
 128 512 l 1
 128 640 l 1
 0 640 l 1
0 512 m 1
 0 384 l 1
 128 384 l 1
 128 512 l 1
 0 512 l 1
128 512 m 1
 128 384 l 1
 256 384 l 1
 256 512 l 1
 128 512 l 1
256 512 m 1
 256 384 l 1
 384 384 l 1
 384 512 l 1
 256 512 l 1
0 384 m 1
 0 256 l 1
 128 256 l 1
 128 384 l 1
 0 384 l 1
0 256 m 1
 0 128 l 1
 128 128 l 1
 128 256 l 1
 0 256 l 1
0 128 m 1
 0 0 l 1
 128 0 l 1
 128 128 l 1
 0 128 l 1
EndSplineSet
EndChar

StartChar: LATIN
Encoding: 71 71 43
Width: 512
Flags: HW
LayerCount: 2
Fore
SplineSet
128 768 m 1
 128 640 l 1
 256 640 l 1
 256 768 l 1
 128 768 l 1
0 640 m 1
 0 512 l 1
 128 512 l 1
 128 640 l 1
 0 640 l 1
256 640 m 1
 256 512 l 1
 384 512 l 1
 384 640 l 1
 256 640 l 1
0 512 m 1
 0 384 l 1
 128 384 l 1
 128 512 l 1
 0 512 l 1
0 384 m 1
 0 256 l 1
 128 256 l 1
 128 384 l 1
 0 384 l 1
256 384 m 1
 256 256 l 1
 384 256 l 1
 384 384 l 1
 256 384 l 1
0 256 m 1
 0 128 l 1
 128 128 l 1
 128 256 l 1
 0 256 l 1
256 256 m 1
 256 128 l 1
 384 128 l 1
 384 256 l 1
 256 256 l 1
128 128 m 1
 128 0 l 1
 256 0 l 1
 256 128 l 1
 128 128 l 1
EndSplineSet
EndChar

StartChar: LATIN
Encoding: 72 72 44
Width: 512
Flags: HW
LayerCount: 2
Fore
SplineSet
0 768 m 1
 0 640 l 1
 128 640 l 1
 128 768 l 1
 0 768 l 1
256 768 m 1
 256 640 l 1
 384 640 l 1
 384 768 l 1
 256 768 l 1
0 640 m 1
 0 512 l 1
 128 512 l 1
 128 640 l 1
 0 640 l 1
256 640 m 1
 256 512 l 1
 384 512 l 1
 384 640 l 1
 256 640 l 1
0 512 m 1
 0 384 l 1
 128 384 l 1
 128 512 l 1
 0 512 l 1
128 512 m 1
 128 384 l 1
 256 384 l 1
 256 512 l 1
 128 512 l 1
256 512 m 1
 256 384 l 1
 384 384 l 1
 384 512 l 1
 256 512 l 1
0 384 m 1
 0 256 l 1
 128 256 l 1
 128 384 l 1
 0 384 l 1
256 384 m 1
 256 256 l 1
 384 256 l 1
 384 384 l 1
 256 384 l 1
0 256 m 1
 0 128 l 1
 128 128 l 1
 128 256 l 1
 0 256 l 1
256 256 m 1
 256 128 l 1
 384 128 l 1
 384 256 l 1
 256 256 l 1
0 128 m 1
 0 0 l 1
 128 0 l 1
 128 128 l 1
 0 128 l 1
256 128 m 1
 256 0 l 1
 384 0 l 1
 384 128 l 1
 256 128 l 1
EndSplineSet
EndChar

StartChar: LATIN
Encoding: 73 73 45
Width: 512
Flags: HW
LayerCount: 2
Fore
SplineSet
0 768 m 1
 0 640 l 1
 128 640 l 1
 128 768 l 1
 0 768 l 1
128 768 m 1
 128 640 l 1
 256 640 l 1
 256 768 l 1
 128 768 l 1
256 768 m 1
 256 640 l 1
 384 640 l 1
 384 768 l 1
 256 768 l 1
128 640 m 1
 128 512 l 1
 256 512 l 1
 256 640 l 1
 128 640 l 1
128 512 m 1
 128 384 l 1
 256 384 l 1
 256 512 l 1
 128 512 l 1
128 384 m 1
 128 256 l 1
 256 256 l 1
 256 384 l 1
 128 384 l 1
128 256 m 1
 128 128 l 1
 256 128 l 1
 256 256 l 1
 128 256 l 1
0 128 m 1
 0 0 l 1
 128 0 l 1
 128 128 l 1
 0 128 l 1
128 128 m 1
 128 0 l 1
 256 0 l 1
 256 128 l 1
 128 128 l 1
256 128 m 1
 256 0 l 1
 384 0 l 1
 384 128 l 1
 256 128 l 1
EndSplineSet
EndChar

StartChar: LATIN
Encoding: 74 74 46
Width: 512
Flags: HW
LayerCount: 2
Fore
SplineSet
256 768 m 1
 256 640 l 1
 384 640 l 1
 384 768 l 1
 256 768 l 1
256 640 m 1
 256 512 l 1
 384 512 l 1
 384 640 l 1
 256 640 l 1
256 512 m 1
 256 384 l 1
 384 384 l 1
 384 512 l 1
 256 512 l 1
256 384 m 1
 256 256 l 1
 384 256 l 1
 384 384 l 1
 256 384 l 1
0 256 m 1
 0 128 l 1
 128 128 l 1
 128 256 l 1
 0 256 l 1
256 256 m 1
 256 128 l 1
 384 128 l 1
 384 256 l 1
 256 256 l 1
128 128 m 1
 128 0 l 1
 256 0 l 1
 256 128 l 1
 128 128 l 1
EndSplineSet
EndChar

StartChar: LATIN
Encoding: 75 75 47
Width: 512
Flags: HW
LayerCount: 2
Fore
SplineSet
0 768 m 1
 0 640 l 1
 128 640 l 1
 128 768 l 1
 0 768 l 1
256 768 m 1
 256 640 l 1
 384 640 l 1
 384 768 l 1
 256 768 l 1
0 640 m 1
 0 512 l 1
 128 512 l 1
 128 640 l 1
 0 640 l 1
256 640 m 1
 256 512 l 1
 384 512 l 1
 384 640 l 1
 256 640 l 1
0 512 m 1
 0 384 l 1
 128 384 l 1
 128 512 l 1
 0 512 l 1
128 512 m 1
 128 384 l 1
 256 384 l 1
 256 512 l 1
 128 512 l 1
0 384 m 1
 0 256 l 1
 128 256 l 1
 128 384 l 1
 0 384 l 1
256 384 m 1
 256 256 l 1
 384 256 l 1
 384 384 l 1
 256 384 l 1
0 256 m 1
 0 128 l 1
 128 128 l 1
 128 256 l 1
 0 256 l 1
256 256 m 1
 256 128 l 1
 384 128 l 1
 384 256 l 1
 256 256 l 1
0 128 m 1
 0 0 l 1
 128 0 l 1
 128 128 l 1
 0 128 l 1
256 128 m 1
 256 0 l 1
 384 0 l 1
 384 128 l 1
 256 128 l 1
EndSplineSet
EndChar

StartChar: LATIN
Encoding: 76 76 48
Width: 512
Flags: HW
LayerCount: 2
Fore
SplineSet
0 768 m 1
 0 640 l 1
 128 640 l 1
 128 768 l 1
 0 768 l 1
0 640 m 1
 0 512 l 1
 128 512 l 1
 128 640 l 1
 0 640 l 1
0 512 m 1
 0 384 l 1
 128 384 l 1
 128 512 l 1
 0 512 l 1
0 384 m 1
 0 256 l 1
 128 256 l 1
 128 384 l 1
 0 384 l 1
0 256 m 1
 0 128 l 1
 128 128 l 1
 128 256 l 1
 0 256 l 1
0 128 m 1
 0 0 l 1
 128 0 l 1
 128 128 l 1
 0 128 l 1
128 128 m 1
 128 0 l 1
 256 0 l 1
 256 128 l 1
 128 128 l 1
256 128 m 1
 256 0 l 1
 384 0 l 1
 384 128 l 1
 256 128 l 1
EndSplineSet
EndChar

StartChar: LATIN
Encoding: 77 77 49
Width: 512
Flags: HW
LayerCount: 2
Fore
SplineSet
0 768 m 1
 0 640 l 1
 128 640 l 1
 128 768 l 1
 0 768 l 1
256 768 m 1
 256 640 l 1
 384 640 l 1
 384 768 l 1
 256 768 l 1
0 640 m 1
 0 512 l 1
 128 512 l 1
 128 640 l 1
 0 640 l 1
128 640 m 1
 128 512 l 1
 256 512 l 1
 256 640 l 1
 128 640 l 1
256 640 m 1
 256 512 l 1
 384 512 l 1
 384 640 l 1
 256 640 l 1
0 512 m 1
 0 384 l 1
 128 384 l 1
 128 512 l 1
 0 512 l 1
256 512 m 1
 256 384 l 1
 384 384 l 1
 384 512 l 1
 256 512 l 1
0 384 m 1
 0 256 l 1
 128 256 l 1
 128 384 l 1
 0 384 l 1
256 384 m 1
 256 256 l 1
 384 256 l 1
 384 384 l 1
 256 384 l 1
0 256 m 1
 0 128 l 1
 128 128 l 1
 128 256 l 1
 0 256 l 1
256 256 m 1
 256 128 l 1
 384 128 l 1
 384 256 l 1
 256 256 l 1
0 128 m 1
 0 0 l 1
 128 0 l 1
 128 128 l 1
 0 128 l 1
256 128 m 1
 256 0 l 1
 384 0 l 1
 384 128 l 1
 256 128 l 1
EndSplineSet
EndChar

StartChar: LATIN
Encoding: 78 78 50
Width: 512
Flags: HW
LayerCount: 2
Fore
SplineSet
256 768 m 1
 256 640 l 1
 384 640 l 1
 384 768 l 1
 256 768 l 1
0 640 m 1
 0 512 l 1
 128 512 l 1
 128 640 l 1
 0 640 l 1
256 640 m 1
 256 512 l 1
 384 512 l 1
 384 640 l 1
 256 640 l 1
0 512 m 1
 0 384 l 1
 128 384 l 1
 128 512 l 1
 0 512 l 1
128 512 m 1
 128 384 l 1
 256 384 l 1
 256 512 l 1
 128 512 l 1
256 512 m 1
 256 384 l 1
 384 384 l 1
 384 512 l 1
 256 512 l 1
0 384 m 1
 0 256 l 1
 128 256 l 1
 128 384 l 1
 0 384 l 1
128 384 m 1
 128 256 l 1
 256 256 l 1
 256 384 l 1
 128 384 l 1
256 384 m 1
 256 256 l 1
 384 256 l 1
 384 384 l 1
 256 384 l 1
0 256 m 1
 0 128 l 1
 128 128 l 1
 128 256 l 1
 0 256 l 1
256 256 m 1
 256 128 l 1
 384 128 l 1
 384 256 l 1
 256 256 l 1
0 128 m 1
 0 0 l 1
 128 0 l 1
 128 128 l 1
 0 128 l 1
EndSplineSet
EndChar

StartChar: LATIN
Encoding: 79 79 51
Width: 512
Flags: HW
LayerCount: 2
Fore
SplineSet
128 768 m 1
 128 640 l 1
 256 640 l 1
 256 768 l 1
 128 768 l 1
0 640 m 1
 0 512 l 1
 128 512 l 1
 128 640 l 1
 0 640 l 1
256 640 m 1
 256 512 l 1
 384 512 l 1
 384 640 l 1
 256 640 l 1
0 512 m 1
 0 384 l 1
 128 384 l 1
 128 512 l 1
 0 512 l 1
256 512 m 1
 256 384 l 1
 384 384 l 1
 384 512 l 1
 256 512 l 1
0 384 m 1
 0 256 l 1
 128 256 l 1
 128 384 l 1
 0 384 l 1
256 384 m 1
 256 256 l 1
 384 256 l 1
 384 384 l 1
 256 384 l 1
0 256 m 1
 0 128 l 1
 128 128 l 1
 128 256 l 1
 0 256 l 1
256 256 m 1
 256 128 l 1
 384 128 l 1
 384 256 l 1
 256 256 l 1
128 128 m 1
 128 0 l 1
 256 0 l 1
 256 128 l 1
 128 128 l 1
EndSplineSet
EndChar

StartChar: LATIN
Encoding: 80 80 52
Width: 512
Flags: HW
LayerCount: 2
Fore
SplineSet
0 768 m 1
 0 640 l 1
 128 640 l 1
 128 768 l 1
 0 768 l 1
128 768 m 1
 128 640 l 1
 256 640 l 1
 256 768 l 1
 128 768 l 1
0 640 m 1
 0 512 l 1
 128 512 l 1
 128 640 l 1
 0 640 l 1
256 640 m 1
 256 512 l 1
 384 512 l 1
 384 640 l 1
 256 640 l 1
0 512 m 1
 0 384 l 1
 128 384 l 1
 128 512 l 1
 0 512 l 1
256 512 m 1
 256 384 l 1
 384 384 l 1
 384 512 l 1
 256 512 l 1
0 384 m 1
 0 256 l 1
 128 256 l 1
 128 384 l 1
 0 384 l 1
128 384 m 1
 128 256 l 1
 256 256 l 1
 256 384 l 1
 128 384 l 1
0 256 m 1
 0 128 l 1
 128 128 l 1
 128 256 l 1
 0 256 l 1
0 128 m 1
 0 0 l 1
 128 0 l 1
 128 128 l 1
 0 128 l 1
EndSplineSet
EndChar

StartChar: LATIN
Encoding: 81 81 53
Width: 512
Flags: HW
LayerCount: 2
Fore
SplineSet
128 768 m 1
 128 640 l 1
 256 640 l 1
 256 768 l 1
 128 768 l 1
0 640 m 1
 0 512 l 1
 128 512 l 1
 128 640 l 1
 0 640 l 1
256 640 m 1
 256 512 l 1
 384 512 l 1
 384 640 l 1
 256 640 l 1
0 512 m 1
 0 384 l 1
 128 384 l 1
 128 512 l 1
 0 512 l 1
256 512 m 1
 256 384 l 1
 384 384 l 1
 384 512 l 1
 256 512 l 1
0 384 m 1
 0 256 l 1
 128 256 l 1
 128 384 l 1
 0 384 l 1
256 384 m 1
 256 256 l 1
 384 256 l 1
 384 384 l 1
 256 384 l 1
0 256 m 1
 0 128 l 1
 128 128 l 1
 128 256 l 1
 0 256 l 1
128 256 m 1
 128 128 l 1
 256 128 l 1
 256 256 l 1
 128 256 l 1
128 128 m 1
 128 0 l 1
 256 0 l 1
 256 128 l 1
 128 128 l 1
256 128 m 1
 256 0 l 1
 384 0 l 1
 384 128 l 1
 256 128 l 1
EndSplineSet
EndChar

StartChar: LATIN
Encoding: 82 82 54
Width: 512
Flags: HW
LayerCount: 2
Fore
SplineSet
0 768 m 1
 0 640 l 1
 128 640 l 1
 128 768 l 1
 0 768 l 1
128 768 m 1
 128 640 l 1
 256 640 l 1
 256 768 l 1
 128 768 l 1
0 640 m 1
 0 512 l 1
 128 512 l 1
 128 640 l 1
 0 640 l 1
256 640 m 1
 256 512 l 1
 384 512 l 1
 384 640 l 1
 256 640 l 1
0 512 m 1
 0 384 l 1
 128 384 l 1
 128 512 l 1
 0 512 l 1
256 512 m 1
 256 384 l 1
 384 384 l 1
 384 512 l 1
 256 512 l 1
0 384 m 1
 0 256 l 1
 128 256 l 1
 128 384 l 1
 0 384 l 1
128 384 m 1
 128 256 l 1
 256 256 l 1
 256 384 l 1
 128 384 l 1
0 256 m 1
 0 128 l 1
 128 128 l 1
 128 256 l 1
 0 256 l 1
256 256 m 1
 256 128 l 1
 384 128 l 1
 384 256 l 1
 256 256 l 1
0 128 m 1
 0 0 l 1
 128 0 l 1
 128 128 l 1
 0 128 l 1
256 128 m 1
 256 0 l 1
 384 0 l 1
 384 128 l 1
 256 128 l 1
EndSplineSet
EndChar

StartChar: LATIN
Encoding: 83 83 55
Width: 512
Flags: HW
LayerCount: 2
Fore
SplineSet
128 768 m 1
 128 640 l 1
 256 640 l 1
 256 768 l 1
 128 768 l 1
0 640 m 1
 0 512 l 1
 128 512 l 1
 128 640 l 1
 0 640 l 1
256 640 m 1
 256 512 l 1
 384 512 l 1
 384 640 l 1
 256 640 l 1
128 512 m 1
 128 384 l 1
 256 384 l 1
 256 512 l 1
 128 512 l 1
256 384 m 1
 256 256 l 1
 384 256 l 1
 384 384 l 1
 256 384 l 1
0 256 m 1
 0 128 l 1
 128 128 l 1
 128 256 l 1
 0 256 l 1
256 256 m 1
 256 128 l 1
 384 128 l 1
 384 256 l 1
 256 256 l 1
128 128 m 1
 128 0 l 1
 256 0 l 1
 256 128 l 1
 128 128 l 1
EndSplineSet
EndChar

StartChar: LATIN
Encoding: 84 84 56
Width: 512
Flags: HW
LayerCount: 2
Fore
SplineSet
0 768 m 1
 0 640 l 1
 128 640 l 1
 128 768 l 1
 0 768 l 1
128 768 m 1
 128 640 l 1
 256 640 l 1
 256 768 l 1
 128 768 l 1
256 768 m 1
 256 640 l 1
 384 640 l 1
 384 768 l 1
 256 768 l 1
128 640 m 1
 128 512 l 1
 256 512 l 1
 256 640 l 1
 128 640 l 1
128 512 m 1
 128 384 l 1
 256 384 l 1
 256 512 l 1
 128 512 l 1
128 384 m 1
 128 256 l 1
 256 256 l 1
 256 384 l 1
 128 384 l 1
128 256 m 1
 128 128 l 1
 256 128 l 1
 256 256 l 1
 128 256 l 1
128 128 m 1
 128 0 l 1
 256 0 l 1
 256 128 l 1
 128 128 l 1
EndSplineSet
EndChar

StartChar: LATIN
Encoding: 85 85 57
Width: 512
Flags: HW
LayerCount: 2
Fore
SplineSet
0 768 m 1
 0 640 l 1
 128 640 l 1
 128 768 l 1
 0 768 l 1
256 768 m 1
 256 640 l 1
 384 640 l 1
 384 768 l 1
 256 768 l 1
0 640 m 1
 0 512 l 1
 128 512 l 1
 128 640 l 1
 0 640 l 1
256 640 m 1
 256 512 l 1
 384 512 l 1
 384 640 l 1
 256 640 l 1
0 512 m 1
 0 384 l 1
 128 384 l 1
 128 512 l 1
 0 512 l 1
256 512 m 1
 256 384 l 1
 384 384 l 1
 384 512 l 1
 256 512 l 1
0 384 m 1
 0 256 l 1
 128 256 l 1
 128 384 l 1
 0 384 l 1
256 384 m 1
 256 256 l 1
 384 256 l 1
 384 384 l 1
 256 384 l 1
0 256 m 1
 0 128 l 1
 128 128 l 1
 128 256 l 1
 0 256 l 1
256 256 m 1
 256 128 l 1
 384 128 l 1
 384 256 l 1
 256 256 l 1
0 128 m 1
 0 0 l 1
 128 0 l 1
 128 128 l 1
 0 128 l 1
128 128 m 1
 128 0 l 1
 256 0 l 1
 256 128 l 1
 128 128 l 1
256 128 m 1
 256 0 l 1
 384 0 l 1
 384 128 l 1
 256 128 l 1
EndSplineSet
EndChar

StartChar: LATIN
Encoding: 86 86 58
Width: 512
Flags: HW
LayerCount: 2
Fore
SplineSet
0 768 m 1
 0 640 l 1
 128 640 l 1
 128 768 l 1
 0 768 l 1
256 768 m 1
 256 640 l 1
 384 640 l 1
 384 768 l 1
 256 768 l 1
0 640 m 1
 0 512 l 1
 128 512 l 1
 128 640 l 1
 0 640 l 1
256 640 m 1
 256 512 l 1
 384 512 l 1
 384 640 l 1
 256 640 l 1
0 512 m 1
 0 384 l 1
 128 384 l 1
 128 512 l 1
 0 512 l 1
256 512 m 1
 256 384 l 1
 384 384 l 1
 384 512 l 1
 256 512 l 1
0 384 m 1
 0 256 l 1
 128 256 l 1
 128 384 l 1
 0 384 l 1
256 384 m 1
 256 256 l 1
 384 256 l 1
 384 384 l 1
 256 384 l 1
0 256 m 1
 0 128 l 1
 128 128 l 1
 128 256 l 1
 0 256 l 1
256 256 m 1
 256 128 l 1
 384 128 l 1
 384 256 l 1
 256 256 l 1
128 128 m 1
 128 0 l 1
 256 0 l 1
 256 128 l 1
 128 128 l 1
EndSplineSet
EndChar

StartChar: LATIN
Encoding: 87 87 59
Width: 512
Flags: HW
LayerCount: 2
Fore
SplineSet
0 768 m 1
 0 640 l 1
 128 640 l 1
 128 768 l 1
 0 768 l 1
256 768 m 1
 256 640 l 1
 384 640 l 1
 384 768 l 1
 256 768 l 1
0 640 m 1
 0 512 l 1
 128 512 l 1
 128 640 l 1
 0 640 l 1
256 640 m 1
 256 512 l 1
 384 512 l 1
 384 640 l 1
 256 640 l 1
0 512 m 1
 0 384 l 1
 128 384 l 1
 128 512 l 1
 0 512 l 1
256 512 m 1
 256 384 l 1
 384 384 l 1
 384 512 l 1
 256 512 l 1
0 384 m 1
 0 256 l 1
 128 256 l 1
 128 384 l 1
 0 384 l 1
256 384 m 1
 256 256 l 1
 384 256 l 1
 384 384 l 1
 256 384 l 1
0 256 m 1
 0 128 l 1
 128 128 l 1
 128 256 l 1
 0 256 l 1
128 256 m 1
 128 128 l 1
 256 128 l 1
 256 256 l 1
 128 256 l 1
256 256 m 1
 256 128 l 1
 384 128 l 1
 384 256 l 1
 256 256 l 1
0 128 m 1
 0 0 l 1
 128 0 l 1
 128 128 l 1
 0 128 l 1
256 128 m 1
 256 0 l 1
 384 0 l 1
 384 128 l 1
 256 128 l 1
EndSplineSet
EndChar

StartChar: LATIN
Encoding: 88 88 60
Width: 512
Flags: HW
LayerCount: 2
Fore
SplineSet
0 768 m 1
 0 640 l 1
 128 640 l 1
 128 768 l 1
 0 768 l 1
256 768 m 1
 256 640 l 1
 384 640 l 1
 384 768 l 1
 256 768 l 1
0 640 m 1
 0 512 l 1
 128 512 l 1
 128 640 l 1
 0 640 l 1
256 640 m 1
 256 512 l 1
 384 512 l 1
 384 640 l 1
 256 640 l 1
128 512 m 1
 128 384 l 1
 256 384 l 1
 256 512 l 1
 128 512 l 1
0 384 m 1
 0 256 l 1
 128 256 l 1
 128 384 l 1
 0 384 l 1
256 384 m 1
 256 256 l 1
 384 256 l 1
 384 384 l 1
 256 384 l 1
0 256 m 1
 0 128 l 1
 128 128 l 1
 128 256 l 1
 0 256 l 1
256 256 m 1
 256 128 l 1
 384 128 l 1
 384 256 l 1
 256 256 l 1
0 128 m 1
 0 0 l 1
 128 0 l 1
 128 128 l 1
 0 128 l 1
256 128 m 1
 256 0 l 1
 384 0 l 1
 384 128 l 1
 256 128 l 1
EndSplineSet
EndChar

StartChar: LATIN
Encoding: 89 89 61
Width: 512
Flags: HW
LayerCount: 2
Fore
SplineSet
0 768 m 1
 0 640 l 1
 128 640 l 1
 128 768 l 1
 0 768 l 1
256 768 m 1
 256 640 l 1
 384 640 l 1
 384 768 l 1
 256 768 l 1
0 640 m 1
 0 512 l 1
 128 512 l 1
 128 640 l 1
 0 640 l 1
256 640 m 1
 256 512 l 1
 384 512 l 1
 384 640 l 1
 256 640 l 1
128 512 m 1
 128 384 l 1
 256 384 l 1
 256 512 l 1
 128 512 l 1
128 384 m 1
 128 256 l 1
 256 256 l 1
 256 384 l 1
 128 384 l 1
128 256 m 1
 128 128 l 1
 256 128 l 1
 256 256 l 1
 128 256 l 1
128 128 m 1
 128 0 l 1
 256 0 l 1
 256 128 l 1
 128 128 l 1
EndSplineSet
EndChar

StartChar: LATIN
Encoding: 90 90 62
Width: 512
Flags: HW
LayerCount: 2
Fore
SplineSet
0 768 m 1
 0 640 l 1
 128 640 l 1
 128 768 l 1
 0 768 l 1
128 768 m 1
 128 640 l 1
 256 640 l 1
 256 768 l 1
 128 768 l 1
256 768 m 1
 256 640 l 1
 384 640 l 1
 384 768 l 1
 256 768 l 1
256 640 m 1
 256 512 l 1
 384 512 l 1
 384 640 l 1
 256 640 l 1
128 512 m 1
 128 384 l 1
 256 384 l 1
 256 512 l 1
 128 512 l 1
128 384 m 1
 128 256 l 1
 256 256 l 1
 256 384 l 1
 128 384 l 1
0 256 m 1
 0 128 l 1
 128 128 l 1
 128 256 l 1
 0 256 l 1
0 128 m 1
 0 0 l 1
 128 0 l 1
 128 128 l 1
 0 128 l 1
128 128 m 1
 128 0 l 1
 256 0 l 1
 256 128 l 1
 128 128 l 1
256 128 m 1
 256 0 l 1
 384 0 l 1
 384 128 l 1
 256 128 l 1
EndSplineSet
EndChar

StartChar: LEFT
Encoding: 91 91 63
Width: 512
Flags: HW
LayerCount: 2
Fore
SplineSet
128 768 m 1
 128 640 l 1
 256 640 l 1
 256 768 l 1
 128 768 l 1
256 768 m 1
 256 640 l 1
 384 640 l 1
 384 768 l 1
 256 768 l 1
128 640 m 1
 128 512 l 1
 256 512 l 1
 256 640 l 1
 128 640 l 1
128 512 m 1
 128 384 l 1
 256 384 l 1
 256 512 l 1
 128 512 l 1
128 384 m 1
 128 256 l 1
 256 256 l 1
 256 384 l 1
 128 384 l 1
128 256 m 1
 128 128 l 1
 256 128 l 1
 256 256 l 1
 128 256 l 1
128 128 m 1
 128 0 l 1
 256 0 l 1
 256 128 l 1
 128 128 l 1
256 128 m 1
 256 0 l 1
 384 0 l 1
 384 128 l 1
 256 128 l 1
EndSplineSet
EndChar

StartChar: REVERSE
Encoding: 92 92 64
Width: 512
Flags: HW
LayerCount: 2
Fore
SplineSet
0 768 m 1
 0 640 l 1
 128 640 l 1
 128 768 l 1
 0 768 l 1
0 640 m 1
 0 512 l 1
 128 512 l 1
 128 640 l 1
 0 640 l 1
128 512 m 1
 128 384 l 1
 256 384 l 1
 256 512 l 1
 128 512 l 1
128 384 m 1
 128 256 l 1
 256 256 l 1
 256 384 l 1
 128 384 l 1
256 256 m 1
 256 128 l 1
 384 128 l 1
 384 256 l 1
 256 256 l 1
256 128 m 1
 256 0 l 1
 384 0 l 1
 384 128 l 1
 256 128 l 1
EndSplineSet
EndChar

StartChar: RIGHT
Encoding: 93 93 65
Width: 512
Flags: HW
LayerCount: 2
Fore
SplineSet
0 768 m 1
 0 640 l 1
 128 640 l 1
 128 768 l 1
 0 768 l 1
128 768 m 1
 128 640 l 1
 256 640 l 1
 256 768 l 1
 128 768 l 1
128 640 m 1
 128 512 l 1
 256 512 l 1
 256 640 l 1
 128 640 l 1
128 512 m 1
 128 384 l 1
 256 384 l 1
 256 512 l 1
 128 512 l 1
128 384 m 1
 128 256 l 1
 256 256 l 1
 256 384 l 1
 128 384 l 1
128 256 m 1
 128 128 l 1
 256 128 l 1
 256 256 l 1
 128 256 l 1
0 128 m 1
 0 0 l 1
 128 0 l 1
 128 128 l 1
 0 128 l 1
128 128 m 1
 128 0 l 1
 256 0 l 1
 256 128 l 1
 128 128 l 1
EndSplineSet
EndChar

StartChar: CIRCUMFLEX
Encoding: 94 94 66
Width: 512
Flags: HW
LayerCount: 2
Fore
SplineSet
128 768 m 1
 128 640 l 1
 256 640 l 1
 256 768 l 1
 128 768 l 1
0 640 m 1
 0 512 l 1
 128 512 l 1
 128 640 l 1
 0 640 l 1
256 640 m 1
 256 512 l 1
 384 512 l 1
 384 640 l 1
 256 640 l 1
EndSplineSet
EndChar

StartChar: LOW
Encoding: 95 95 67
Width: 512
Flags: HW
LayerCount: 2
Fore
SplineSet
0 0 m 1
 0 -128 l 1
 128 -128 l 1
 128 0 l 1
 0 0 l 1
128 0 m 1
 128 -128 l 1
 256 -128 l 1
 256 0 l 1
 128 0 l 1
256 0 m 1
 256 -128 l 1
 384 -128 l 1
 384 0 l 1
 256 0 l 1
384 0 m 1
 384 -128 l 1
 512 -128 l 1
 512 0 l 1
 384 0 l 1
EndSplineSet
EndChar

StartChar: GRAVE
Encoding: 96 96 68
Width: 512
Flags: HW
LayerCount: 2
Fore
SplineSet
0 768 m 1
 0 640 l 1
 128 640 l 1
 128 768 l 1
 0 768 l 1
128 640 m 1
 128 512 l 1
 256 512 l 1
 256 640 l 1
 128 640 l 1
EndSplineSet
EndChar

StartChar: LATIN
Encoding: 97 97 69
Width: 512
Flags: HW
LayerCount: 2
Fore
SplineSet
0 640 m 1
 0 512 l 1
 128 512 l 1
 128 640 l 1
 0 640 l 1
128 640 m 1
 128 512 l 1
 256 512 l 1
 256 640 l 1
 128 640 l 1
256 512 m 1
 256 384 l 1
 384 384 l 1
 384 512 l 1
 256 512 l 1
128 384 m 1
 128 256 l 1
 256 256 l 1
 256 384 l 1
 128 384 l 1
256 384 m 1
 256 256 l 1
 384 256 l 1
 384 384 l 1
 256 384 l 1
0 256 m 1
 0 128 l 1
 128 128 l 1
 128 256 l 1
 0 256 l 1
256 256 m 1
 256 128 l 1
 384 128 l 1
 384 256 l 1
 256 256 l 1
128 128 m 1
 128 0 l 1
 256 0 l 1
 256 128 l 1
 128 128 l 1
256 128 m 1
 256 0 l 1
 384 0 l 1
 384 128 l 1
 256 128 l 1
EndSplineSet
EndChar

StartChar: LATIN
Encoding: 98 98 70
Width: 512
Flags: HW
LayerCount: 2
Fore
SplineSet
0 768 m 1
 0 640 l 1
 128 640 l 1
 128 768 l 1
 0 768 l 1
0 640 m 1
 0 512 l 1
 128 512 l 1
 128 640 l 1
 0 640 l 1
0 512 m 1
 0 384 l 1
 128 384 l 1
 128 512 l 1
 0 512 l 1
128 512 m 1
 128 384 l 1
 256 384 l 1
 256 512 l 1
 128 512 l 1
0 384 m 1
 0 256 l 1
 128 256 l 1
 128 384 l 1
 0 384 l 1
256 384 m 1
 256 256 l 1
 384 256 l 1
 384 384 l 1
 256 384 l 1
0 256 m 1
 0 128 l 1
 128 128 l 1
 128 256 l 1
 0 256 l 1
256 256 m 1
 256 128 l 1
 384 128 l 1
 384 256 l 1
 256 256 l 1
0 128 m 1
 0 0 l 1
 128 0 l 1
 128 128 l 1
 0 128 l 1
128 128 m 1
 128 0 l 1
 256 0 l 1
 256 128 l 1
 128 128 l 1
EndSplineSet
EndChar

StartChar: LATIN
Encoding: 99 99 71
Width: 512
Flags: HW
LayerCount: 2
Fore
SplineSet
128 640 m 1
 128 512 l 1
 256 512 l 1
 256 640 l 1
 128 640 l 1
256 640 m 1
 256 512 l 1
 384 512 l 1
 384 640 l 1
 256 640 l 1
0 512 m 1
 0 384 l 1
 128 384 l 1
 128 512 l 1
 0 512 l 1
0 384 m 1
 0 256 l 1
 128 256 l 1
 128 384 l 1
 0 384 l 1
0 256 m 1
 0 128 l 1
 128 128 l 1
 128 256 l 1
 0 256 l 1
128 128 m 1
 128 0 l 1
 256 0 l 1
 256 128 l 1
 128 128 l 1
256 128 m 1
 256 0 l 1
 384 0 l 1
 384 128 l 1
 256 128 l 1
EndSplineSet
EndChar

StartChar: LATIN
Encoding: 100 100 72
Width: 512
Flags: HW
LayerCount: 2
Fore
SplineSet
256 768 m 1
 256 640 l 1
 384 640 l 1
 384 768 l 1
 256 768 l 1
256 640 m 1
 256 512 l 1
 384 512 l 1
 384 640 l 1
 256 640 l 1
128 512 m 1
 128 384 l 1
 256 384 l 1
 256 512 l 1
 128 512 l 1
256 512 m 1
 256 384 l 1
 384 384 l 1
 384 512 l 1
 256 512 l 1
0 384 m 1
 0 256 l 1
 128 256 l 1
 128 384 l 1
 0 384 l 1
256 384 m 1
 256 256 l 1
 384 256 l 1
 384 384 l 1
 256 384 l 1
0 256 m 1
 0 128 l 1
 128 128 l 1
 128 256 l 1
 0 256 l 1
256 256 m 1
 256 128 l 1
 384 128 l 1
 384 256 l 1
 256 256 l 1
128 128 m 1
 128 0 l 1
 256 0 l 1
 256 128 l 1
 128 128 l 1
256 128 m 1
 256 0 l 1
 384 0 l 1
 384 128 l 1
 256 128 l 1
EndSplineSet
EndChar

StartChar: LATIN
Encoding: 101 101 73
Width: 512
Flags: HW
LayerCount: 2
Fore
SplineSet
128 640 m 1
 128 512 l 1
 256 512 l 1
 256 640 l 1
 128 640 l 1
0 512 m 1
 0 384 l 1
 128 384 l 1
 128 512 l 1
 0 512 l 1
256 512 m 1
 256 384 l 1
 384 384 l 1
 384 512 l 1
 256 512 l 1
0 384 m 1
 0 256 l 1
 128 256 l 1
 128 384 l 1
 0 384 l 1
128 384 m 1
 128 256 l 1
 256 256 l 1
 256 384 l 1
 128 384 l 1
256 384 m 1
 256 256 l 1
 384 256 l 1
 384 384 l 1
 256 384 l 1
0 256 m 1
 0 128 l 1
 128 128 l 1
 128 256 l 1
 0 256 l 1
128 128 m 1
 128 0 l 1
 256 0 l 1
 256 128 l 1
 128 128 l 1
256 128 m 1
 256 0 l 1
 384 0 l 1
 384 128 l 1
 256 128 l 1
EndSplineSet
EndChar

StartChar: LATIN
Encoding: 102 102 74
Width: 512
Flags: HW
LayerCount: 2
Fore
SplineSet
256 768 m 1
 256 640 l 1
 384 640 l 1
 384 768 l 1
 256 768 l 1
128 640 m 1
 128 512 l 1
 256 512 l 1
 256 640 l 1
 128 640 l 1
0 512 m 1
 0 384 l 1
 128 384 l 1
 128 512 l 1
 0 512 l 1
128 512 m 1
 128 384 l 1
 256 384 l 1
 256 512 l 1
 128 512 l 1
256 512 m 1
 256 384 l 1
 384 384 l 1
 384 512 l 1
 256 512 l 1
128 384 m 1
 128 256 l 1
 256 256 l 1
 256 384 l 1
 128 384 l 1
128 256 m 1
 128 128 l 1
 256 128 l 1
 256 256 l 1
 128 256 l 1
128 128 m 1
 128 0 l 1
 256 0 l 1
 256 128 l 1
 128 128 l 1
EndSplineSet
EndChar

StartChar: LATIN
Encoding: 103 103 75
Width: 512
Flags: HW
LayerCount: 2
Fore
SplineSet
128 640 m 1
 128 512 l 1
 256 512 l 1
 256 640 l 1
 128 640 l 1
256 640 m 1
 256 512 l 1
 384 512 l 1
 384 640 l 1
 256 640 l 1
0 512 m 1
 0 384 l 1
 128 384 l 1
 128 512 l 1
 0 512 l 1
256 512 m 1
 256 384 l 1
 384 384 l 1
 384 512 l 1
 256 512 l 1
0 384 m 1
 0 256 l 1
 128 256 l 1
 128 384 l 1
 0 384 l 1
256 384 m 1
 256 256 l 1
 384 256 l 1
 384 384 l 1
 256 384 l 1
128 256 m 1
 128 128 l 1
 256 128 l 1
 256 256 l 1
 128 256 l 1
256 256 m 1
 256 128 l 1
 384 128 l 1
 384 256 l 1
 256 256 l 1
256 128 m 1
 256 0 l 1
 384 0 l 1
 384 128 l 1
 256 128 l 1
0 0 m 1
 0 -128 l 1
 128 -128 l 1
 128 0 l 1
 0 0 l 1
128 0 m 1
 128 -128 l 1
 256 -128 l 1
 256 0 l 1
 128 0 l 1
EndSplineSet
EndChar

StartChar: LATIN
Encoding: 104 104 76
Width: 512
Flags: HW
LayerCount: 2
Fore
SplineSet
0 768 m 1
 0 640 l 1
 128 640 l 1
 128 768 l 1
 0 768 l 1
0 640 m 1
 0 512 l 1
 128 512 l 1
 128 640 l 1
 0 640 l 1
0 512 m 1
 0 384 l 1
 128 384 l 1
 128 512 l 1
 0 512 l 1
128 512 m 1
 128 384 l 1
 256 384 l 1
 256 512 l 1
 128 512 l 1
0 384 m 1
 0 256 l 1
 128 256 l 1
 128 384 l 1
 0 384 l 1
256 384 m 1
 256 256 l 1
 384 256 l 1
 384 384 l 1
 256 384 l 1
0 256 m 1
 0 128 l 1
 128 128 l 1
 128 256 l 1
 0 256 l 1
256 256 m 1
 256 128 l 1
 384 128 l 1
 384 256 l 1
 256 256 l 1
0 128 m 1
 0 0 l 1
 128 0 l 1
 128 128 l 1
 0 128 l 1
256 128 m 1
 256 0 l 1
 384 0 l 1
 384 128 l 1
 256 128 l 1
EndSplineSet
EndChar

StartChar: LATIN
Encoding: 105 105 77
Width: 512
Flags: HW
LayerCount: 2
Fore
SplineSet
128 768 m 1
 128 640 l 1
 256 640 l 1
 256 768 l 1
 128 768 l 1
0 512 m 1
 0 384 l 1
 128 384 l 1
 128 512 l 1
 0 512 l 1
128 512 m 1
 128 384 l 1
 256 384 l 1
 256 512 l 1
 128 512 l 1
128 384 m 1
 128 256 l 1
 256 256 l 1
 256 384 l 1
 128 384 l 1
128 256 m 1
 128 128 l 1
 256 128 l 1
 256 256 l 1
 128 256 l 1
0 128 m 1
 0 0 l 1
 128 0 l 1
 128 128 l 1
 0 128 l 1
128 128 m 1
 128 0 l 1
 256 0 l 1
 256 128 l 1
 128 128 l 1
256 128 m 1
 256 0 l 1
 384 0 l 1
 384 128 l 1
 256 128 l 1
EndSplineSet
EndChar

StartChar: LATIN
Encoding: 106 106 78
Width: 512
Flags: HW
LayerCount: 2
Fore
SplineSet
256 768 m 1
 256 640 l 1
 384 640 l 1
 384 768 l 1
 256 768 l 1
128 512 m 1
 128 384 l 1
 256 384 l 1
 256 512 l 1
 128 512 l 1
256 512 m 1
 256 384 l 1
 384 384 l 1
 384 512 l 1
 256 512 l 1
256 384 m 1
 256 256 l 1
 384 256 l 1
 384 384 l 1
 256 384 l 1
256 256 m 1
 256 128 l 1
 384 128 l 1
 384 256 l 1
 256 256 l 1
256 128 m 1
 256 0 l 1
 384 0 l 1
 384 128 l 1
 256 128 l 1
0 0 m 1
 0 -128 l 1
 128 -128 l 1
 128 0 l 1
 0 0 l 1
128 0 m 1
 128 -128 l 1
 256 -128 l 1
 256 0 l 1
 128 0 l 1
EndSplineSet
EndChar

StartChar: LATIN
Encoding: 107 107 79
Width: 512
Flags: HW
LayerCount: 2
Fore
SplineSet
0 768 m 1
 0 640 l 1
 128 640 l 1
 128 768 l 1
 0 768 l 1
0 640 m 1
 0 512 l 1
 128 512 l 1
 128 640 l 1
 0 640 l 1
0 512 m 1
 0 384 l 1
 128 384 l 1
 128 512 l 1
 0 512 l 1
256 512 m 1
 256 384 l 1
 384 384 l 1
 384 512 l 1
 256 512 l 1
0 384 m 1
 0 256 l 1
 128 256 l 1
 128 384 l 1
 0 384 l 1
128 384 m 1
 128 256 l 1
 256 256 l 1
 256 384 l 1
 128 384 l 1
0 256 m 1
 0 128 l 1
 128 128 l 1
 128 256 l 1
 0 256 l 1
256 256 m 1
 256 128 l 1
 384 128 l 1
 384 256 l 1
 256 256 l 1
0 128 m 1
 0 0 l 1
 128 0 l 1
 128 128 l 1
 0 128 l 1
256 128 m 1
 256 0 l 1
 384 0 l 1
 384 128 l 1
 256 128 l 1
EndSplineSet
EndChar

StartChar: LATIN
Encoding: 108 108 80
Width: 512
Flags: HW
LayerCount: 2
Fore
SplineSet
128 768 m 1
 128 640 l 1
 256 640 l 1
 256 768 l 1
 128 768 l 1
128 640 m 1
 128 512 l 1
 256 512 l 1
 256 640 l 1
 128 640 l 1
128 512 m 1
 128 384 l 1
 256 384 l 1
 256 512 l 1
 128 512 l 1
128 384 m 1
 128 256 l 1
 256 256 l 1
 256 384 l 1
 128 384 l 1
128 256 m 1
 128 128 l 1
 256 128 l 1
 256 256 l 1
 128 256 l 1
128 128 m 1
 128 0 l 1
 256 0 l 1
 256 128 l 1
 128 128 l 1
EndSplineSet
EndChar

StartChar: LATIN
Encoding: 109 109 81
Width: 512
Flags: HW
LayerCount: 2
Fore
SplineSet
0 640 m 1
 0 512 l 1
 128 512 l 1
 128 640 l 1
 0 640 l 1
256 640 m 1
 256 512 l 1
 384 512 l 1
 384 640 l 1
 256 640 l 1
0 512 m 1
 0 384 l 1
 128 384 l 1
 128 512 l 1
 0 512 l 1
128 512 m 1
 128 384 l 1
 256 384 l 1
 256 512 l 1
 128 512 l 1
256 512 m 1
 256 384 l 1
 384 384 l 1
 384 512 l 1
 256 512 l 1
0 384 m 1
 0 256 l 1
 128 256 l 1
 128 384 l 1
 0 384 l 1
256 384 m 1
 256 256 l 1
 384 256 l 1
 384 384 l 1
 256 384 l 1
0 256 m 1
 0 128 l 1
 128 128 l 1
 128 256 l 1
 0 256 l 1
256 256 m 1
 256 128 l 1
 384 128 l 1
 384 256 l 1
 256 256 l 1
0 128 m 1
 0 0 l 1
 128 0 l 1
 128 128 l 1
 0 128 l 1
256 128 m 1
 256 0 l 1
 384 0 l 1
 384 128 l 1
 256 128 l 1
EndSplineSet
EndChar

StartChar: LATIN
Encoding: 110 110 82
Width: 512
Flags: HW
LayerCount: 2
Fore
SplineSet
0 640 m 1
 0 512 l 1
 128 512 l 1
 128 640 l 1
 0 640 l 1
128 640 m 1
 128 512 l 1
 256 512 l 1
 256 640 l 1
 128 640 l 1
0 512 m 1
 0 384 l 1
 128 384 l 1
 128 512 l 1
 0 512 l 1
256 512 m 1
 256 384 l 1
 384 384 l 1
 384 512 l 1
 256 512 l 1
0 384 m 1
 0 256 l 1
 128 256 l 1
 128 384 l 1
 0 384 l 1
256 384 m 1
 256 256 l 1
 384 256 l 1
 384 384 l 1
 256 384 l 1
0 256 m 1
 0 128 l 1
 128 128 l 1
 128 256 l 1
 0 256 l 1
256 256 m 1
 256 128 l 1
 384 128 l 1
 384 256 l 1
 256 256 l 1
0 128 m 1
 0 0 l 1
 128 0 l 1
 128 128 l 1
 0 128 l 1
256 128 m 1
 256 0 l 1
 384 0 l 1
 384 128 l 1
 256 128 l 1
EndSplineSet
EndChar

StartChar: LATIN
Encoding: 111 111 83
Width: 512
Flags: HW
LayerCount: 2
Fore
SplineSet
128 640 m 1
 128 512 l 1
 256 512 l 1
 256 640 l 1
 128 640 l 1
0 512 m 1
 0 384 l 1
 128 384 l 1
 128 512 l 1
 0 512 l 1
256 512 m 1
 256 384 l 1
 384 384 l 1
 384 512 l 1
 256 512 l 1
0 384 m 1
 0 256 l 1
 128 256 l 1
 128 384 l 1
 0 384 l 1
256 384 m 1
 256 256 l 1
 384 256 l 1
 384 384 l 1
 256 384 l 1
0 256 m 1
 0 128 l 1
 128 128 l 1
 128 256 l 1
 0 256 l 1
256 256 m 1
 256 128 l 1
 384 128 l 1
 384 256 l 1
 256 256 l 1
128 128 m 1
 128 0 l 1
 256 0 l 1
 256 128 l 1
 128 128 l 1
EndSplineSet
EndChar

StartChar: LATIN
Encoding: 112 112 84
Width: 512
Flags: HW
LayerCount: 2
Fore
SplineSet
0 640 m 1
 0 512 l 1
 128 512 l 1
 128 640 l 1
 0 640 l 1
128 640 m 1
 128 512 l 1
 256 512 l 1
 256 640 l 1
 128 640 l 1
0 512 m 1
 0 384 l 1
 128 384 l 1
 128 512 l 1
 0 512 l 1
256 512 m 1
 256 384 l 1
 384 384 l 1
 384 512 l 1
 256 512 l 1
0 384 m 1
 0 256 l 1
 128 256 l 1
 128 384 l 1
 0 384 l 1
256 384 m 1
 256 256 l 1
 384 256 l 1
 384 384 l 1
 256 384 l 1
0 256 m 1
 0 128 l 1
 128 128 l 1
 128 256 l 1
 0 256 l 1
128 256 m 1
 128 128 l 1
 256 128 l 1
 256 256 l 1
 128 256 l 1
0 128 m 1
 0 0 l 1
 128 0 l 1
 128 128 l 1
 0 128 l 1
0 0 m 1
 0 -128 l 1
 128 -128 l 1
 128 0 l 1
 0 0 l 1
EndSplineSet
EndChar

StartChar: LATIN
Encoding: 113 113 85
Width: 512
Flags: HW
LayerCount: 2
Fore
SplineSet
128 640 m 1
 128 512 l 1
 256 512 l 1
 256 640 l 1
 128 640 l 1
256 640 m 1
 256 512 l 1
 384 512 l 1
 384 640 l 1
 256 640 l 1
0 512 m 1
 0 384 l 1
 128 384 l 1
 128 512 l 1
 0 512 l 1
256 512 m 1
 256 384 l 1
 384 384 l 1
 384 512 l 1
 256 512 l 1
0 384 m 1
 0 256 l 1
 128 256 l 1
 128 384 l 1
 0 384 l 1
256 384 m 1
 256 256 l 1
 384 256 l 1
 384 384 l 1
 256 384 l 1
128 256 m 1
 128 128 l 1
 256 128 l 1
 256 256 l 1
 128 256 l 1
256 256 m 1
 256 128 l 1
 384 128 l 1
 384 256 l 1
 256 256 l 1
256 128 m 1
 256 0 l 1
 384 0 l 1
 384 128 l 1
 256 128 l 1
256 0 m 1
 256 -128 l 1
 384 -128 l 1
 384 0 l 1
 256 0 l 1
EndSplineSet
EndChar

StartChar: LATIN
Encoding: 114 114 86
Width: 512
Flags: HW
LayerCount: 2
Fore
SplineSet
128 640 m 1
 128 512 l 1
 256 512 l 1
 256 640 l 1
 128 640 l 1
256 640 m 1
 256 512 l 1
 384 512 l 1
 384 640 l 1
 256 640 l 1
0 512 m 1
 0 384 l 1
 128 384 l 1
 128 512 l 1
 0 512 l 1
0 384 m 1
 0 256 l 1
 128 256 l 1
 128 384 l 1
 0 384 l 1
0 256 m 1
 0 128 l 1
 128 128 l 1
 128 256 l 1
 0 256 l 1
0 128 m 1
 0 0 l 1
 128 0 l 1
 128 128 l 1
 0 128 l 1
EndSplineSet
EndChar

StartChar: LATIN
Encoding: 115 115 87
Width: 512
Flags: HW
LayerCount: 2
Fore
SplineSet
128 640 m 1
 128 512 l 1
 256 512 l 1
 256 640 l 1
 128 640 l 1
256 640 m 1
 256 512 l 1
 384 512 l 1
 384 640 l 1
 256 640 l 1
0 512 m 1
 0 384 l 1
 128 384 l 1
 128 512 l 1
 0 512 l 1
128 384 m 1
 128 256 l 1
 256 256 l 1
 256 384 l 1
 128 384 l 1
256 256 m 1
 256 128 l 1
 384 128 l 1
 384 256 l 1
 256 256 l 1
0 128 m 1
 0 0 l 1
 128 0 l 1
 128 128 l 1
 0 128 l 1
128 128 m 1
 128 0 l 1
 256 0 l 1
 256 128 l 1
 128 128 l 1
EndSplineSet
EndChar

StartChar: LATIN
Encoding: 116 116 88
Width: 512
Flags: HW
LayerCount: 2
Fore
SplineSet
128 768 m 1
 128 640 l 1
 256 640 l 1
 256 768 l 1
 128 768 l 1
128 640 m 1
 128 512 l 1
 256 512 l 1
 256 640 l 1
 128 640 l 1
0 512 m 1
 0 384 l 1
 128 384 l 1
 128 512 l 1
 0 512 l 1
128 512 m 1
 128 384 l 1
 256 384 l 1
 256 512 l 1
 128 512 l 1
256 512 m 1
 256 384 l 1
 384 384 l 1
 384 512 l 1
 256 512 l 1
128 384 m 1
 128 256 l 1
 256 256 l 1
 256 384 l 1
 128 384 l 1
128 256 m 1
 128 128 l 1
 256 128 l 1
 256 256 l 1
 128 256 l 1
128 128 m 1
 128 0 l 1
 256 0 l 1
 256 128 l 1
 128 128 l 1
EndSplineSet
EndChar

StartChar: LATIN
Encoding: 117 117 89
Width: 512
Flags: HW
LayerCount: 2
Fore
SplineSet
0 640 m 1
 0 512 l 1
 128 512 l 1
 128 640 l 1
 0 640 l 1
256 640 m 1
 256 512 l 1
 384 512 l 1
 384 640 l 1
 256 640 l 1
0 512 m 1
 0 384 l 1
 128 384 l 1
 128 512 l 1
 0 512 l 1
256 512 m 1
 256 384 l 1
 384 384 l 1
 384 512 l 1
 256 512 l 1
0 384 m 1
 0 256 l 1
 128 256 l 1
 128 384 l 1
 0 384 l 1
256 384 m 1
 256 256 l 1
 384 256 l 1
 384 384 l 1
 256 384 l 1
0 256 m 1
 0 128 l 1
 128 128 l 1
 128 256 l 1
 0 256 l 1
256 256 m 1
 256 128 l 1
 384 128 l 1
 384 256 l 1
 256 256 l 1
0 128 m 1
 0 0 l 1
 128 0 l 1
 128 128 l 1
 0 128 l 1
128 128 m 1
 128 0 l 1
 256 0 l 1
 256 128 l 1
 128 128 l 1
256 128 m 1
 256 0 l 1
 384 0 l 1
 384 128 l 1
 256 128 l 1
EndSplineSet
EndChar

StartChar: LATIN
Encoding: 118 118 90
Width: 512
Flags: HW
LayerCount: 2
Fore
SplineSet
0 640 m 1
 0 512 l 1
 128 512 l 1
 128 640 l 1
 0 640 l 1
256 640 m 1
 256 512 l 1
 384 512 l 1
 384 640 l 1
 256 640 l 1
0 512 m 1
 0 384 l 1
 128 384 l 1
 128 512 l 1
 0 512 l 1
256 512 m 1
 256 384 l 1
 384 384 l 1
 384 512 l 1
 256 512 l 1
0 384 m 1
 0 256 l 1
 128 256 l 1
 128 384 l 1
 0 384 l 1
256 384 m 1
 256 256 l 1
 384 256 l 1
 384 384 l 1
 256 384 l 1
0 256 m 1
 0 128 l 1
 128 128 l 1
 128 256 l 1
 0 256 l 1
256 256 m 1
 256 128 l 1
 384 128 l 1
 384 256 l 1
 256 256 l 1
128 128 m 1
 128 0 l 1
 256 0 l 1
 256 128 l 1
 128 128 l 1
EndSplineSet
EndChar

StartChar: LATIN
Encoding: 119 119 91
Width: 512
Flags: HW
LayerCount: 2
Fore
SplineSet
0 640 m 1
 0 512 l 1
 128 512 l 1
 128 640 l 1
 0 640 l 1
256 640 m 1
 256 512 l 1
 384 512 l 1
 384 640 l 1
 256 640 l 1
0 512 m 1
 0 384 l 1
 128 384 l 1
 128 512 l 1
 0 512 l 1
256 512 m 1
 256 384 l 1
 384 384 l 1
 384 512 l 1
 256 512 l 1
0 384 m 1
 0 256 l 1
 128 256 l 1
 128 384 l 1
 0 384 l 1
256 384 m 1
 256 256 l 1
 384 256 l 1
 384 384 l 1
 256 384 l 1
0 256 m 1
 0 128 l 1
 128 128 l 1
 128 256 l 1
 0 256 l 1
128 256 m 1
 128 128 l 1
 256 128 l 1
 256 256 l 1
 128 256 l 1
256 256 m 1
 256 128 l 1
 384 128 l 1
 384 256 l 1
 256 256 l 1
0 128 m 1
 0 0 l 1
 128 0 l 1
 128 128 l 1
 0 128 l 1
256 128 m 1
 256 0 l 1
 384 0 l 1
 384 128 l 1
 256 128 l 1
EndSplineSet
EndChar

StartChar: LATIN
Encoding: 120 120 92
Width: 512
Flags: HW
LayerCount: 2
Fore
SplineSet
0 640 m 1
 0 512 l 1
 128 512 l 1
 128 640 l 1
 0 640 l 1
256 640 m 1
 256 512 l 1
 384 512 l 1
 384 640 l 1
 256 640 l 1
0 512 m 1
 0 384 l 1
 128 384 l 1
 128 512 l 1
 0 512 l 1
256 512 m 1
 256 384 l 1
 384 384 l 1
 384 512 l 1
 256 512 l 1
128 384 m 1
 128 256 l 1
 256 256 l 1
 256 384 l 1
 128 384 l 1
0 256 m 1
 0 128 l 1
 128 128 l 1
 128 256 l 1
 0 256 l 1
256 256 m 1
 256 128 l 1
 384 128 l 1
 384 256 l 1
 256 256 l 1
0 128 m 1
 0 0 l 1
 128 0 l 1
 128 128 l 1
 0 128 l 1
256 128 m 1
 256 0 l 1
 384 0 l 1
 384 128 l 1
 256 128 l 1
EndSplineSet
EndChar

StartChar: LATIN
Encoding: 121 121 93
Width: 512
Flags: HW
LayerCount: 2
Fore
SplineSet
0 640 m 1
 0 512 l 1
 128 512 l 1
 128 640 l 1
 0 640 l 1
256 640 m 1
 256 512 l 1
 384 512 l 1
 384 640 l 1
 256 640 l 1
0 512 m 1
 0 384 l 1
 128 384 l 1
 128 512 l 1
 0 512 l 1
256 512 m 1
 256 384 l 1
 384 384 l 1
 384 512 l 1
 256 512 l 1
0 384 m 1
 0 256 l 1
 128 256 l 1
 128 384 l 1
 0 384 l 1
256 384 m 1
 256 256 l 1
 384 256 l 1
 384 384 l 1
 256 384 l 1
128 256 m 1
 128 128 l 1
 256 128 l 1
 256 256 l 1
 128 256 l 1
256 256 m 1
 256 128 l 1
 384 128 l 1
 384 256 l 1
 256 256 l 1
256 128 m 1
 256 0 l 1
 384 0 l 1
 384 128 l 1
 256 128 l 1
0 0 m 1
 0 -128 l 1
 128 -128 l 1
 128 0 l 1
 0 0 l 1
128 0 m 1
 128 -128 l 1
 256 -128 l 1
 256 0 l 1
 128 0 l 1
EndSplineSet
EndChar

StartChar: LATIN
Encoding: 122 122 94
Width: 512
Flags: HW
LayerCount: 2
Fore
SplineSet
0 640 m 1
 0 512 l 1
 128 512 l 1
 128 640 l 1
 0 640 l 1
128 640 m 1
 128 512 l 1
 256 512 l 1
 256 640 l 1
 128 640 l 1
256 640 m 1
 256 512 l 1
 384 512 l 1
 384 640 l 1
 256 640 l 1
256 512 m 1
 256 384 l 1
 384 384 l 1
 384 512 l 1
 256 512 l 1
128 384 m 1
 128 256 l 1
 256 256 l 1
 256 384 l 1
 128 384 l 1
0 256 m 1
 0 128 l 1
 128 128 l 1
 128 256 l 1
 0 256 l 1
0 128 m 1
 0 0 l 1
 128 0 l 1
 128 128 l 1
 0 128 l 1
128 128 m 1
 128 0 l 1
 256 0 l 1
 256 128 l 1
 128 128 l 1
256 128 m 1
 256 0 l 1
 384 0 l 1
 384 128 l 1
 256 128 l 1
EndSplineSet
EndChar

StartChar: LEFT
Encoding: 123 123 95
Width: 512
Flags: HW
LayerCount: 2
Fore
SplineSet
256 896 m 1
 256 768 l 1
 384 768 l 1
 384 896 l 1
 256 896 l 1
128 768 m 1
 128 640 l 1
 256 640 l 1
 256 768 l 1
 128 768 l 1
128 640 m 1
 128 512 l 1
 256 512 l 1
 256 640 l 1
 128 640 l 1
0 512 m 1
 0 384 l 1
 128 384 l 1
 128 512 l 1
 0 512 l 1
128 384 m 1
 128 256 l 1
 256 256 l 1
 256 384 l 1
 128 384 l 1
128 256 m 1
 128 128 l 1
 256 128 l 1
 256 256 l 1
 128 256 l 1
256 128 m 1
 256 0 l 1
 384 0 l 1
 384 128 l 1
 256 128 l 1
EndSplineSet
EndChar

StartChar: VERTICAL
Encoding: 124 124 96
Width: 512
Flags: HW
LayerCount: 2
Fore
SplineSet
128 896 m 1
 128 768 l 1
 256 768 l 1
 256 896 l 1
 128 896 l 1
128 768 m 1
 128 640 l 1
 256 640 l 1
 256 768 l 1
 128 768 l 1
128 640 m 1
 128 512 l 1
 256 512 l 1
 256 640 l 1
 128 640 l 1
128 384 m 1
 128 256 l 1
 256 256 l 1
 256 384 l 1
 128 384 l 1
128 256 m 1
 128 128 l 1
 256 128 l 1
 256 256 l 1
 128 256 l 1
128 128 m 1
 128 0 l 1
 256 0 l 1
 256 128 l 1
 128 128 l 1
EndSplineSet
EndChar

StartChar: RIGHT
Encoding: 125 125 97
Width: 512
Flags: HW
LayerCount: 2
Fore
SplineSet
0 896 m 1
 0 768 l 1
 128 768 l 1
 128 896 l 1
 0 896 l 1
128 768 m 1
 128 640 l 1
 256 640 l 1
 256 768 l 1
 128 768 l 1
128 640 m 1
 128 512 l 1
 256 512 l 1
 256 640 l 1
 128 640 l 1
256 512 m 1
 256 384 l 1
 384 384 l 1
 384 512 l 1
 256 512 l 1
128 384 m 1
 128 256 l 1
 256 256 l 1
 256 384 l 1
 128 384 l 1
128 256 m 1
 128 128 l 1
 256 128 l 1
 256 256 l 1
 128 256 l 1
0 128 m 1
 0 0 l 1
 128 0 l 1
 128 128 l 1
 0 128 l 1
EndSplineSet
EndChar

StartChar: TILDE
Encoding: 126 126 98
Width: 512
Flags: HW
LayerCount: 2
Fore
SplineSet
0 640 m 1
 0 512 l 1
 128 512 l 1
 128 640 l 1
 0 640 l 1
128 640 m 1
 128 512 l 1
 256 512 l 1
 256 640 l 1
 128 640 l 1
128 512 m 1
 128 384 l 1
 256 384 l 1
 256 512 l 1
 128 512 l 1
256 512 m 1
 256 384 l 1
 384 384 l 1
 384 512 l 1
 256 512 l 1
EndSplineSet
EndChar

StartChar: POUND
Encoding: 163 163 100
Width: 512
Flags: HW
LayerCount: 2
Fore
SplineSet
256 896 m 1
 256 768 l 1
 384 768 l 1
 384 896 l 1
 256 896 l 1
384 896 m 1
 384 768 l 1
 512 768 l 1
 512 896 l 1
 384 896 l 1
128 768 m 1
 128 640 l 1
 256 640 l 1
 256 768 l 1
 128 768 l 1
0 640 m 1
 0 512 l 1
 128 512 l 1
 128 640 l 1
 0 640 l 1
128 640 m 1
 128 512 l 1
 256 512 l 1
 256 640 l 1
 128 640 l 1
256 640 m 1
 256 512 l 1
 384 512 l 1
 384 640 l 1
 256 640 l 1
128 512 m 1
 128 384 l 1
 256 384 l 1
 256 512 l 1
 128 512 l 1
128 384 m 1
 128 256 l 1
 256 256 l 1
 256 384 l 1
 128 384 l 1
256 384 m 1
 256 256 l 1
 384 256 l 1
 384 384 l 1
 256 384 l 1
384 384 m 1
 384 256 l 1
 512 256 l 1
 512 384 l 1
 384 384 l 1
0 256 m 1
 0 128 l 1
 128 128 l 1
 128 256 l 1
 0 256 l 1
128 256 m 1
 128 128 l 1
 256 128 l 1
 256 256 l 1
 128 256 l 1
384 256 m 1
 384 128 l 1
 512 128 l 1
 512 256 l 1
 384 256 l 1
128 128 m 1
 128 0 l 1
 256 0 l 1
 256 128 l 1
 128 128 l 1
EndSplineSet
EndChar

StartChar: DEGREE
Encoding: 176 176 101
Width: 512
Flags: HW
LayerCount: 2
Fore
SplineSet
0 768 m 1
 0 640 l 1
 128 640 l 1
 128 768 l 1
 0 768 l 1
128 768 m 1
 128 640 l 1
 256 640 l 1
 256 768 l 1
 128 768 l 1
256 768 m 1
 256 640 l 1
 384 640 l 1
 384 768 l 1
 256 768 l 1
0 640 m 1
 0 512 l 1
 128 512 l 1
 128 640 l 1
 0 640 l 1
256 640 m 1
 256 512 l 1
 384 512 l 1
 384 640 l 1
 256 640 l 1
0 512 m 1
 0 384 l 1
 128 384 l 1
 128 512 l 1
 0 512 l 1
256 512 m 1
 256 384 l 1
 384 384 l 1
 384 512 l 1
 256 512 l 1
0 384 m 1
 0 256 l 1
 128 256 l 1
 128 384 l 1
 0 384 l 1
128 384 m 1
 128 256 l 1
 256 256 l 1
 256 384 l 1
 128 384 l 1
256 384 m 1
 256 256 l 1
 384 256 l 1
 384 384 l 1
 256 384 l 1
EndSplineSet
EndChar

StartChar: PLUS-MINUS
Encoding: 177 177 102
Width: 512
Flags: HW
LayerCount: 2
Fore
SplineSet
256 768 m 1
 256 640 l 1
 384 640 l 1
 384 768 l 1
 256 768 l 1
128 640 m 1
 128 512 l 1
 256 512 l 1
 256 640 l 1
 128 640 l 1
256 640 m 1
 256 512 l 1
 384 512 l 1
 384 640 l 1
 256 640 l 1
384 640 m 1
 384 512 l 1
 512 512 l 1
 512 640 l 1
 384 640 l 1
256 512 m 1
 256 384 l 1
 384 384 l 1
 384 512 l 1
 256 512 l 1
128 256 m 1
 128 128 l 1
 256 128 l 1
 256 256 l 1
 128 256 l 1
256 256 m 1
 256 128 l 1
 384 128 l 1
 384 256 l 1
 256 256 l 1
384 256 m 1
 384 128 l 1
 512 128 l 1
 512 256 l 1
 384 256 l 1
EndSplineSet
EndChar

StartChar: MIDDLE
Encoding: 183 183 103
Width: 512
Flags: HW
LayerCount: 2
Fore
SplineSet
128 512 m 1
 128 384 l 1
 256 384 l 1
 256 512 l 1
 128 512 l 1
EndSplineSet
EndChar

StartChar: LEFT
Encoding: 8216 8216 104
Width: 512
Flags: HW
LayerCount: 2
Fore
SplineSet
256 768 m 1
 256 640 l 1
 384 640 l 1
 384 768 l 1
 256 768 l 1
128 640 m 1
 128 512 l 1
 256 512 l 1
 256 640 l 1
 128 640 l 1
128 512 m 1
 128 384 l 1
 256 384 l 1
 256 512 l 1
 128 512 l 1
EndSplineSet
EndChar

StartChar: RIGHT
Encoding: 8217 8217 105
Width: 512
Flags: HW
LayerCount: 2
Fore
SplineSet
128 768 m 1
 128 640 l 1
 256 640 l 1
 256 768 l 1
 128 768 l 1
128 640 m 1
 128 512 l 1
 256 512 l 1
 256 640 l 1
 128 640 l 1
0 512 m 1
 0 384 l 1
 128 384 l 1
 128 512 l 1
 0 512 l 1
EndSplineSet
EndChar

StartChar: NOT
Encoding: 8800 8800 106
Width: 512
Flags: HW
LayerCount: 2
Fore
SplineSet
384 768 m 1
 384 640 l 1
 512 640 l 1
 512 768 l 1
 384 768 l 1
0 640 m 1
 0 512 l 1
 128 512 l 1
 128 640 l 1
 0 640 l 1
128 640 m 1
 128 512 l 1
 256 512 l 1
 256 640 l 1
 128 640 l 1
256 640 m 1
 256 512 l 1
 384 512 l 1
 384 640 l 1
 256 640 l 1
384 640 m 1
 384 512 l 1
 512 512 l 1
 512 640 l 1
 384 640 l 1
256 512 m 1
 256 384 l 1
 384 384 l 1
 384 512 l 1
 256 512 l 1
0 384 m 1
 0 256 l 1
 128 256 l 1
 128 384 l 1
 0 384 l 1
128 384 m 1
 128 256 l 1
 256 256 l 1
 256 384 l 1
 128 384 l 1
256 384 m 1
 256 256 l 1
 384 256 l 1
 384 384 l 1
 256 384 l 1
384 384 m 1
 384 256 l 1
 512 256 l 1
 512 384 l 1
 384 384 l 1
128 256 m 1
 128 128 l 1
 256 128 l 1
 256 256 l 1
 128 256 l 1
EndSplineSet
EndChar

StartChar: LESS-THAN
Encoding: 8804 8804 107
Width: 512
Flags: HW
LayerCount: 2
Fore
SplineSet
384 768 m 1
 384 640 l 1
 512 640 l 1
 512 768 l 1
 384 768 l 1
256 640 m 1
 256 512 l 1
 384 512 l 1
 384 640 l 1
 256 640 l 1
128 512 m 1
 128 384 l 1
 256 384 l 1
 256 512 l 1
 128 512 l 1
256 384 m 1
 256 256 l 1
 384 256 l 1
 384 384 l 1
 256 384 l 1
384 256 m 1
 384 128 l 1
 512 128 l 1
 512 256 l 1
 384 256 l 1
128 128 m 1
 128 0 l 1
 256 0 l 1
 256 128 l 1
 128 128 l 1
256 128 m 1
 256 0 l 1
 384 0 l 1
 384 128 l 1
 256 128 l 1
384 128 m 1
 384 0 l 1
 512 0 l 1
 512 128 l 1
 384 128 l 1
EndSplineSet
EndChar

StartChar: GREATER-THAN
Encoding: 8805 8805 108
Width: 512
Flags: HW
LayerCount: 2
Fore
SplineSet
128 768 m 1
 128 640 l 1
 256 640 l 1
 256 768 l 1
 128 768 l 1
256 640 m 1
 256 512 l 1
 384 512 l 1
 384 640 l 1
 256 640 l 1
384 512 m 1
 384 384 l 1
 512 384 l 1
 512 512 l 1
 384 512 l 1
256 384 m 1
 256 256 l 1
 384 256 l 1
 384 384 l 1
 256 384 l 1
128 256 m 1
 128 128 l 1
 256 128 l 1
 256 256 l 1
 128 256 l 1
128 128 m 1
 128 0 l 1
 256 0 l 1
 256 128 l 1
 128 128 l 1
256 128 m 1
 256 0 l 1
 384 0 l 1
 384 128 l 1
 256 128 l 1
384 128 m 1
 384 0 l 1
 512 0 l 1
 512 128 l 1
 384 128 l 1
EndSplineSet
EndChar

StartChar: SYMBOL
Encoding: 9225 9225 109
Width: 512
Flags: HW
LayerCount: 2
Fore
SplineSet
128 896 m 1
 128 768 l 1
 256 768 l 1
 256 896 l 1
 128 896 l 1
384 896 m 1
 384 768 l 1
 512 768 l 1
 512 896 l 1
 384 896 l 1
128 768 m 1
 128 640 l 1
 256 640 l 1
 256 768 l 1
 128 768 l 1
384 768 m 1
 384 640 l 1
 512 640 l 1
 512 768 l 1
 384 768 l 1
128 640 m 1
 128 512 l 1
 256 512 l 1
 256 640 l 1
 128 640 l 1
256 640 m 1
 256 512 l 1
 384 512 l 1
 384 640 l 1
 256 640 l 1
384 640 m 1
 384 512 l 1
 512 512 l 1
 512 640 l 1
 384 640 l 1
128 512 m 1
 128 384 l 1
 256 384 l 1
 256 512 l 1
 128 512 l 1
384 512 m 1
 384 384 l 1
 512 384 l 1
 512 512 l 1
 384 512 l 1
128 384 m 1
 128 256 l 1
 256 256 l 1
 256 384 l 1
 128 384 l 1
384 384 m 1
 384 256 l 1
 512 256 l 1
 512 384 l 1
 384 384 l 1
256 256 m 1
 256 128 l 1
 384 128 l 1
 384 256 l 1
 256 256 l 1
384 256 m 1
 384 128 l 1
 512 128 l 1
 512 256 l 1
 384 256 l 1
384 128 m 1
 384 0 l 1
 512 0 l 1
 512 128 l 1
 384 128 l 1
384 0 m 1
 384 -128 l 1
 512 -128 l 1
 512 0 l 1
 384 0 l 1
EndSplineSet
EndChar

StartChar: SYMBOL
Encoding: 9226 9226 110
Width: 512
Flags: HW
LayerCount: 2
Fore
SplineSet
0 896 m 1
 0 768 l 1
 128 768 l 1
 128 896 l 1
 0 896 l 1
0 768 m 1
 0 640 l 1
 128 640 l 1
 128 768 l 1
 0 768 l 1
0 640 m 1
 0 512 l 1
 128 512 l 1
 128 640 l 1
 0 640 l 1
0 512 m 1
 0 384 l 1
 128 384 l 1
 128 512 l 1
 0 512 l 1
128 512 m 1
 128 384 l 1
 256 384 l 1
 256 512 l 1
 128 512 l 1
256 512 m 1
 256 384 l 1
 384 384 l 1
 384 512 l 1
 256 512 l 1
256 384 m 1
 256 256 l 1
 384 256 l 1
 384 384 l 1
 256 384 l 1
384 384 m 1
 384 256 l 1
 512 256 l 1
 512 384 l 1
 384 384 l 1
256 256 m 1
 256 128 l 1
 384 128 l 1
 384 256 l 1
 256 256 l 1
256 128 m 1
 256 0 l 1
 384 0 l 1
 384 128 l 1
 256 128 l 1
384 128 m 1
 384 0 l 1
 512 0 l 1
 512 128 l 1
 384 128 l 1
256 0 m 1
 256 -128 l 1
 384 -128 l 1
 384 0 l 1
 256 0 l 1
EndSplineSet
EndChar

StartChar: SYMBOL
Encoding: 9227 9227 111
Width: 512
Flags: HW
LayerCount: 2
Fore
SplineSet
0 896 m 1
 0 768 l 1
 128 768 l 1
 128 896 l 1
 0 896 l 1
256 896 m 1
 256 768 l 1
 384 768 l 1
 384 896 l 1
 256 896 l 1
0 768 m 1
 0 640 l 1
 128 640 l 1
 128 768 l 1
 0 768 l 1
256 768 m 1
 256 640 l 1
 384 640 l 1
 384 768 l 1
 256 768 l 1
0 640 m 1
 0 512 l 1
 128 512 l 1
 128 640 l 1
 0 640 l 1
256 640 m 1
 256 512 l 1
 384 512 l 1
 384 640 l 1
 256 640 l 1
128 512 m 1
 128 384 l 1
 256 384 l 1
 256 512 l 1
 128 512 l 1
256 384 m 1
 256 256 l 1
 384 256 l 1
 384 384 l 1
 256 384 l 1
384 384 m 1
 384 256 l 1
 512 256 l 1
 512 384 l 1
 384 384 l 1
384 256 m 1
 384 128 l 1
 512 128 l 1
 512 256 l 1
 384 256 l 1
384 128 m 1
 384 0 l 1
 512 0 l 1
 512 128 l 1
 384 128 l 1
384 0 m 1
 384 -128 l 1
 512 -128 l 1
 512 0 l 1
 384 0 l 1
EndSplineSet
EndChar

StartChar: SYMBOL
Encoding: 9228 9228 112
Width: 512
Flags: HW
LayerCount: 2
Fore
SplineSet
0 896 m 1
 0 768 l 1
 128 768 l 1
 128 896 l 1
 0 896 l 1
128 896 m 1
 128 768 l 1
 256 768 l 1
 256 896 l 1
 128 896 l 1
256 896 m 1
 256 768 l 1
 384 768 l 1
 384 896 l 1
 256 896 l 1
0 768 m 1
 0 640 l 1
 128 640 l 1
 128 768 l 1
 0 768 l 1
0 640 m 1
 0 512 l 1
 128 512 l 1
 128 640 l 1
 0 640 l 1
128 640 m 1
 128 512 l 1
 256 512 l 1
 256 640 l 1
 128 640 l 1
0 512 m 1
 0 384 l 1
 128 384 l 1
 128 512 l 1
 0 512 l 1
256 512 m 1
 256 384 l 1
 384 384 l 1
 384 512 l 1
 256 512 l 1
384 512 m 1
 384 384 l 1
 512 384 l 1
 512 512 l 1
 384 512 l 1
0 384 m 1
 0 256 l 1
 128 256 l 1
 128 384 l 1
 0 384 l 1
256 384 m 1
 256 256 l 1
 384 256 l 1
 384 384 l 1
 256 384 l 1
256 256 m 1
 256 128 l 1
 384 128 l 1
 384 256 l 1
 256 256 l 1
384 256 m 1
 384 128 l 1
 512 128 l 1
 512 256 l 1
 384 256 l 1
256 128 m 1
 256 0 l 1
 384 0 l 1
 384 128 l 1
 256 128 l 1
256 0 m 1
 256 -128 l 1
 384 -128 l 1
 384 0 l 1
 256 0 l 1
EndSplineSet
EndChar

StartChar: SYMBOL
Encoding: 9229 9229 113
Width: 512
Flags: HW
LayerCount: 2
Fore
SplineSet
128 896 m 1
 128 768 l 1
 256 768 l 1
 256 896 l 1
 128 896 l 1
256 896 m 1
 256 768 l 1
 384 768 l 1
 384 896 l 1
 256 896 l 1
0 768 m 1
 0 640 l 1
 128 640 l 1
 128 768 l 1
 0 768 l 1
128 640 m 1
 128 512 l 1
 256 512 l 1
 256 640 l 1
 128 640 l 1
256 640 m 1
 256 512 l 1
 384 512 l 1
 384 640 l 1
 256 640 l 1
256 384 m 1
 256 256 l 1
 384 256 l 1
 384 384 l 1
 256 384 l 1
384 384 m 1
 384 256 l 1
 512 256 l 1
 512 384 l 1
 384 384 l 1
256 256 m 1
 256 128 l 1
 384 128 l 1
 384 256 l 1
 256 256 l 1
256 128 m 1
 256 0 l 1
 384 0 l 1
 384 128 l 1
 256 128 l 1
384 128 m 1
 384 0 l 1
 512 0 l 1
 512 128 l 1
 384 128 l 1
256 0 m 1
 256 -128 l 1
 384 -128 l 1
 384 0 l 1
 256 0 l 1
EndSplineSet
EndChar

StartChar: SYMBOL
Encoding: 9252 9252 114
Width: 512
Flags: HW
LayerCount: 2
Fore
SplineSet
0 896 m 1
 0 768 l 1
 128 768 l 1
 128 896 l 1
 0 896 l 1
384 896 m 1
 384 768 l 1
 512 768 l 1
 512 896 l 1
 384 896 l 1
0 768 m 1
 0 640 l 1
 128 640 l 1
 128 768 l 1
 0 768 l 1
128 768 m 1
 128 640 l 1
 256 640 l 1
 256 768 l 1
 128 768 l 1
384 768 m 1
 384 640 l 1
 512 640 l 1
 512 768 l 1
 384 768 l 1
0 640 m 1
 0 512 l 1
 128 512 l 1
 128 640 l 1
 0 640 l 1
256 640 m 1
 256 512 l 1
 384 512 l 1
 384 640 l 1
 256 640 l 1
384 640 m 1
 384 512 l 1
 512 512 l 1
 512 640 l 1
 384 640 l 1
0 512 m 1
 0 384 l 1
 128 384 l 1
 128 512 l 1
 0 512 l 1
384 512 m 1
 384 384 l 1
 512 384 l 1
 512 512 l 1
 384 512 l 1
256 384 m 1
 256 256 l 1
 384 256 l 1
 384 384 l 1
 256 384 l 1
256 256 m 1
 256 128 l 1
 384 128 l 1
 384 256 l 1
 256 256 l 1
256 128 m 1
 256 0 l 1
 384 0 l 1
 384 128 l 1
 256 128 l 1
256 0 m 1
 256 -128 l 1
 384 -128 l 1
 384 0 l 1
 256 0 l 1
384 0 m 1
 384 -128 l 1
 512 -128 l 1
 512 0 l 1
 384 0 l 1
EndSplineSet
EndChar

StartChar: BOX
Encoding: 9472 9472 115
Width: 512
Flags: HW
LayerCount: 2
Fore
SplineSet
0 384 m 1
 0 256 l 1
 128 256 l 1
 128 384 l 1
 0 384 l 1
128 384 m 1
 128 256 l 1
 256 256 l 1
 256 384 l 1
 128 384 l 1
256 384 m 1
 256 256 l 1
 384 256 l 1
 384 384 l 1
 256 384 l 1
384 384 m 1
 384 256 l 1
 512 256 l 1
 512 384 l 1
 384 384 l 1
EndSplineSet
EndChar

StartChar: BOX
Encoding: 9473 9473 116
Width: 512
Flags: HW
LayerCount: 2
Fore
SplineSet
0 512 m 1
 0 384 l 1
 128 384 l 1
 128 512 l 1
 0 512 l 1
128 512 m 1
 128 384 l 1
 256 384 l 1
 256 512 l 1
 128 512 l 1
256 512 m 1
 256 384 l 1
 384 384 l 1
 384 512 l 1
 256 512 l 1
384 512 m 1
 384 384 l 1
 512 384 l 1
 512 512 l 1
 384 512 l 1
0 384 m 1
 0 256 l 1
 128 256 l 1
 128 384 l 1
 0 384 l 1
128 384 m 1
 128 256 l 1
 256 256 l 1
 256 384 l 1
 128 384 l 1
256 384 m 1
 256 256 l 1
 384 256 l 1
 384 384 l 1
 256 384 l 1
384 384 m 1
 384 256 l 1
 512 256 l 1
 512 384 l 1
 384 384 l 1
EndSplineSet
EndChar

StartChar: BOX
Encoding: 9474 9474 117
Width: 512
Flags: HW
LayerCount: 2
Fore
SplineSet
128 896 m 1
 128 768 l 1
 256 768 l 1
 256 896 l 1
 128 896 l 1
128 768 m 1
 128 640 l 1
 256 640 l 1
 256 768 l 1
 128 768 l 1
128 640 m 1
 128 512 l 1
 256 512 l 1
 256 640 l 1
 128 640 l 1
128 512 m 1
 128 384 l 1
 256 384 l 1
 256 512 l 1
 128 512 l 1
128 384 m 1
 128 256 l 1
 256 256 l 1
 256 384 l 1
 128 384 l 1
128 256 m 1
 128 128 l 1
 256 128 l 1
 256 256 l 1
 128 256 l 1
128 128 m 1
 128 0 l 1
 256 0 l 1
 256 128 l 1
 128 128 l 1
128 0 m 1
 128 -128 l 1
 256 -128 l 1
 256 0 l 1
 128 0 l 1
EndSplineSet
EndChar

StartChar: BOX
Encoding: 9475 9475 118
Width: 512
Flags: HW
LayerCount: 2
Fore
SplineSet
128 896 m 1
 128 768 l 1
 256 768 l 1
 256 896 l 1
 128 896 l 1
256 896 m 1
 256 768 l 1
 384 768 l 1
 384 896 l 1
 256 896 l 1
128 768 m 1
 128 640 l 1
 256 640 l 1
 256 768 l 1
 128 768 l 1
256 768 m 1
 256 640 l 1
 384 640 l 1
 384 768 l 1
 256 768 l 1
128 640 m 1
 128 512 l 1
 256 512 l 1
 256 640 l 1
 128 640 l 1
256 640 m 1
 256 512 l 1
 384 512 l 1
 384 640 l 1
 256 640 l 1
128 512 m 1
 128 384 l 1
 256 384 l 1
 256 512 l 1
 128 512 l 1
256 512 m 1
 256 384 l 1
 384 384 l 1
 384 512 l 1
 256 512 l 1
128 384 m 1
 128 256 l 1
 256 256 l 1
 256 384 l 1
 128 384 l 1
256 384 m 1
 256 256 l 1
 384 256 l 1
 384 384 l 1
 256 384 l 1
128 256 m 1
 128 128 l 1
 256 128 l 1
 256 256 l 1
 128 256 l 1
256 256 m 1
 256 128 l 1
 384 128 l 1
 384 256 l 1
 256 256 l 1
128 128 m 1
 128 0 l 1
 256 0 l 1
 256 128 l 1
 128 128 l 1
256 128 m 1
 256 0 l 1
 384 0 l 1
 384 128 l 1
 256 128 l 1
128 0 m 1
 128 -128 l 1
 256 -128 l 1
 256 0 l 1
 128 0 l 1
256 0 m 1
 256 -128 l 1
 384 -128 l 1
 384 0 l 1
 256 0 l 1
EndSplineSet
EndChar

StartChar: BOX
Encoding: 9476 9476 119
Width: 512
Flags: HW
LayerCount: 2
Fore
SplineSet
0 384 m 1
 0 256 l 1
 128 256 l 1
 128 384 l 1
 0 384 l 1
256 384 m 1
 256 256 l 1
 384 256 l 1
 384 384 l 1
 256 384 l 1
EndSplineSet
EndChar

StartChar: BOX
Encoding: 9477 9477 120
Width: 512
Flags: HW
LayerCount: 2
Fore
SplineSet
0 512 m 1
 0 384 l 1
 128 384 l 1
 128 512 l 1
 0 512 l 1
256 512 m 1
 256 384 l 1
 384 384 l 1
 384 512 l 1
 256 512 l 1
0 384 m 1
 0 256 l 1
 128 256 l 1
 128 384 l 1
 0 384 l 1
256 384 m 1
 256 256 l 1
 384 256 l 1
 384 384 l 1
 256 384 l 1
EndSplineSet
EndChar

StartChar: BOX
Encoding: 9478 9478 121
Width: 512
Flags: HW
LayerCount: 2
Fore
SplineSet
128 896 m 1
 128 768 l 1
 256 768 l 1
 256 896 l 1
 128 896 l 1
128 768 m 1
 128 640 l 1
 256 640 l 1
 256 768 l 1
 128 768 l 1
128 512 m 1
 128 384 l 1
 256 384 l 1
 256 512 l 1
 128 512 l 1
128 384 m 1
 128 256 l 1
 256 256 l 1
 256 384 l 1
 128 384 l 1
128 128 m 1
 128 0 l 1
 256 0 l 1
 256 128 l 1
 128 128 l 1
128 0 m 1
 128 -128 l 1
 256 -128 l 1
 256 0 l 1
 128 0 l 1
EndSplineSet
EndChar

StartChar: BOX
Encoding: 9479 9479 122
Width: 512
Flags: HW
LayerCount: 2
Fore
SplineSet
128 896 m 1
 128 768 l 1
 256 768 l 1
 256 896 l 1
 128 896 l 1
256 896 m 1
 256 768 l 1
 384 768 l 1
 384 896 l 1
 256 896 l 1
128 768 m 1
 128 640 l 1
 256 640 l 1
 256 768 l 1
 128 768 l 1
256 768 m 1
 256 640 l 1
 384 640 l 1
 384 768 l 1
 256 768 l 1
128 512 m 1
 128 384 l 1
 256 384 l 1
 256 512 l 1
 128 512 l 1
256 512 m 1
 256 384 l 1
 384 384 l 1
 384 512 l 1
 256 512 l 1
128 384 m 1
 128 256 l 1
 256 256 l 1
 256 384 l 1
 128 384 l 1
256 384 m 1
 256 256 l 1
 384 256 l 1
 384 384 l 1
 256 384 l 1
128 128 m 1
 128 0 l 1
 256 0 l 1
 256 128 l 1
 128 128 l 1
256 128 m 1
 256 0 l 1
 384 0 l 1
 384 128 l 1
 256 128 l 1
128 0 m 1
 128 -128 l 1
 256 -128 l 1
 256 0 l 1
 128 0 l 1
256 0 m 1
 256 -128 l 1
 384 -128 l 1
 384 0 l 1
 256 0 l 1
EndSplineSet
EndChar

StartChar: BOX
Encoding: 9480 9480 123
Width: 512
Flags: HW
LayerCount: 2
Fore
SplineSet
0 384 m 1
 0 256 l 1
 128 256 l 1
 128 384 l 1
 0 384 l 1
256 384 m 1
 256 256 l 1
 384 256 l 1
 384 384 l 1
 256 384 l 1
EndSplineSet
EndChar

StartChar: BOX
Encoding: 9481 9481 124
Width: 512
Flags: HW
LayerCount: 2
Fore
SplineSet
0 512 m 1
 0 384 l 1
 128 384 l 1
 128 512 l 1
 0 512 l 1
256 512 m 1
 256 384 l 1
 384 384 l 1
 384 512 l 1
 256 512 l 1
0 384 m 1
 0 256 l 1
 128 256 l 1
 128 384 l 1
 0 384 l 1
256 384 m 1
 256 256 l 1
 384 256 l 1
 384 384 l 1
 256 384 l 1
EndSplineSet
EndChar

StartChar: BOX
Encoding: 9482 9482 125
Width: 512
Flags: HW
LayerCount: 2
Fore
SplineSet
128 896 m 1
 128 768 l 1
 256 768 l 1
 256 896 l 1
 128 896 l 1
128 768 m 1
 128 640 l 1
 256 640 l 1
 256 768 l 1
 128 768 l 1
128 512 m 1
 128 384 l 1
 256 384 l 1
 256 512 l 1
 128 512 l 1
128 384 m 1
 128 256 l 1
 256 256 l 1
 256 384 l 1
 128 384 l 1
128 128 m 1
 128 0 l 1
 256 0 l 1
 256 128 l 1
 128 128 l 1
128 0 m 1
 128 -128 l 1
 256 -128 l 1
 256 0 l 1
 128 0 l 1
EndSplineSet
EndChar

StartChar: BOX
Encoding: 9483 9483 126
Width: 512
Flags: HW
LayerCount: 2
Fore
SplineSet
128 896 m 1
 128 768 l 1
 256 768 l 1
 256 896 l 1
 128 896 l 1
256 896 m 1
 256 768 l 1
 384 768 l 1
 384 896 l 1
 256 896 l 1
128 768 m 1
 128 640 l 1
 256 640 l 1
 256 768 l 1
 128 768 l 1
256 768 m 1
 256 640 l 1
 384 640 l 1
 384 768 l 1
 256 768 l 1
128 512 m 1
 128 384 l 1
 256 384 l 1
 256 512 l 1
 128 512 l 1
256 512 m 1
 256 384 l 1
 384 384 l 1
 384 512 l 1
 256 512 l 1
128 384 m 1
 128 256 l 1
 256 256 l 1
 256 384 l 1
 128 384 l 1
256 384 m 1
 256 256 l 1
 384 256 l 1
 384 384 l 1
 256 384 l 1
128 128 m 1
 128 0 l 1
 256 0 l 1
 256 128 l 1
 128 128 l 1
256 128 m 1
 256 0 l 1
 384 0 l 1
 384 128 l 1
 256 128 l 1
128 0 m 1
 128 -128 l 1
 256 -128 l 1
 256 0 l 1
 128 0 l 1
256 0 m 1
 256 -128 l 1
 384 -128 l 1
 384 0 l 1
 256 0 l 1
EndSplineSet
EndChar

StartChar: BOX
Encoding: 9484 9484 127
Width: 512
Flags: HW
LayerCount: 2
Fore
SplineSet
128 384 m 1
 128 256 l 1
 256 256 l 1
 256 384 l 1
 128 384 l 1
256 384 m 1
 256 256 l 1
 384 256 l 1
 384 384 l 1
 256 384 l 1
384 384 m 1
 384 256 l 1
 512 256 l 1
 512 384 l 1
 384 384 l 1
128 256 m 1
 128 128 l 1
 256 128 l 1
 256 256 l 1
 128 256 l 1
128 128 m 1
 128 0 l 1
 256 0 l 1
 256 128 l 1
 128 128 l 1
128 0 m 1
 128 -128 l 1
 256 -128 l 1
 256 0 l 1
 128 0 l 1
EndSplineSet
EndChar

StartChar: BOX
Encoding: 9485 9485 128
Width: 512
Flags: HW
LayerCount: 2
Fore
SplineSet
128 512 m 1
 128 384 l 1
 256 384 l 1
 256 512 l 1
 128 512 l 1
256 512 m 1
 256 384 l 1
 384 384 l 1
 384 512 l 1
 256 512 l 1
384 512 m 1
 384 384 l 1
 512 384 l 1
 512 512 l 1
 384 512 l 1
128 384 m 1
 128 256 l 1
 256 256 l 1
 256 384 l 1
 128 384 l 1
256 384 m 1
 256 256 l 1
 384 256 l 1
 384 384 l 1
 256 384 l 1
384 384 m 1
 384 256 l 1
 512 256 l 1
 512 384 l 1
 384 384 l 1
128 256 m 1
 128 128 l 1
 256 128 l 1
 256 256 l 1
 128 256 l 1
128 128 m 1
 128 0 l 1
 256 0 l 1
 256 128 l 1
 128 128 l 1
128 0 m 1
 128 -128 l 1
 256 -128 l 1
 256 0 l 1
 128 0 l 1
EndSplineSet
EndChar

StartChar: BOX
Encoding: 9486 9486 129
Width: 512
Flags: HW
LayerCount: 2
Fore
SplineSet
128 384 m 1
 128 256 l 1
 256 256 l 1
 256 384 l 1
 128 384 l 1
256 384 m 1
 256 256 l 1
 384 256 l 1
 384 384 l 1
 256 384 l 1
384 384 m 1
 384 256 l 1
 512 256 l 1
 512 384 l 1
 384 384 l 1
128 256 m 1
 128 128 l 1
 256 128 l 1
 256 256 l 1
 128 256 l 1
256 256 m 1
 256 128 l 1
 384 128 l 1
 384 256 l 1
 256 256 l 1
128 128 m 1
 128 0 l 1
 256 0 l 1
 256 128 l 1
 128 128 l 1
256 128 m 1
 256 0 l 1
 384 0 l 1
 384 128 l 1
 256 128 l 1
128 0 m 1
 128 -128 l 1
 256 -128 l 1
 256 0 l 1
 128 0 l 1
256 0 m 1
 256 -128 l 1
 384 -128 l 1
 384 0 l 1
 256 0 l 1
EndSplineSet
EndChar

StartChar: BOX
Encoding: 9487 9487 130
Width: 512
Flags: HW
LayerCount: 2
Fore
SplineSet
128 512 m 1
 128 384 l 1
 256 384 l 1
 256 512 l 1
 128 512 l 1
256 512 m 1
 256 384 l 1
 384 384 l 1
 384 512 l 1
 256 512 l 1
384 512 m 1
 384 384 l 1
 512 384 l 1
 512 512 l 1
 384 512 l 1
128 384 m 1
 128 256 l 1
 256 256 l 1
 256 384 l 1
 128 384 l 1
256 384 m 1
 256 256 l 1
 384 256 l 1
 384 384 l 1
 256 384 l 1
384 384 m 1
 384 256 l 1
 512 256 l 1
 512 384 l 1
 384 384 l 1
128 256 m 1
 128 128 l 1
 256 128 l 1
 256 256 l 1
 128 256 l 1
256 256 m 1
 256 128 l 1
 384 128 l 1
 384 256 l 1
 256 256 l 1
128 128 m 1
 128 0 l 1
 256 0 l 1
 256 128 l 1
 128 128 l 1
256 128 m 1
 256 0 l 1
 384 0 l 1
 384 128 l 1
 256 128 l 1
128 0 m 1
 128 -128 l 1
 256 -128 l 1
 256 0 l 1
 128 0 l 1
256 0 m 1
 256 -128 l 1
 384 -128 l 1
 384 0 l 1
 256 0 l 1
EndSplineSet
EndChar

StartChar: BOX
Encoding: 9488 9488 131
Width: 512
Flags: HW
LayerCount: 2
Fore
SplineSet
0 384 m 1
 0 256 l 1
 128 256 l 1
 128 384 l 1
 0 384 l 1
128 384 m 1
 128 256 l 1
 256 256 l 1
 256 384 l 1
 128 384 l 1
128 256 m 1
 128 128 l 1
 256 128 l 1
 256 256 l 1
 128 256 l 1
128 128 m 1
 128 0 l 1
 256 0 l 1
 256 128 l 1
 128 128 l 1
128 0 m 1
 128 -128 l 1
 256 -128 l 1
 256 0 l 1
 128 0 l 1
EndSplineSet
EndChar

StartChar: BOX
Encoding: 9489 9489 132
Width: 512
Flags: HW
LayerCount: 2
Fore
SplineSet
0 512 m 1
 0 384 l 1
 128 384 l 1
 128 512 l 1
 0 512 l 1
128 512 m 1
 128 384 l 1
 256 384 l 1
 256 512 l 1
 128 512 l 1
0 384 m 1
 0 256 l 1
 128 256 l 1
 128 384 l 1
 0 384 l 1
128 384 m 1
 128 256 l 1
 256 256 l 1
 256 384 l 1
 128 384 l 1
128 256 m 1
 128 128 l 1
 256 128 l 1
 256 256 l 1
 128 256 l 1
128 128 m 1
 128 0 l 1
 256 0 l 1
 256 128 l 1
 128 128 l 1
128 0 m 1
 128 -128 l 1
 256 -128 l 1
 256 0 l 1
 128 0 l 1
EndSplineSet
EndChar

StartChar: BOX
Encoding: 9490 9490 133
Width: 512
Flags: HW
LayerCount: 2
Fore
SplineSet
0 384 m 1
 0 256 l 1
 128 256 l 1
 128 384 l 1
 0 384 l 1
128 384 m 1
 128 256 l 1
 256 256 l 1
 256 384 l 1
 128 384 l 1
256 384 m 1
 256 256 l 1
 384 256 l 1
 384 384 l 1
 256 384 l 1
128 256 m 1
 128 128 l 1
 256 128 l 1
 256 256 l 1
 128 256 l 1
256 256 m 1
 256 128 l 1
 384 128 l 1
 384 256 l 1
 256 256 l 1
128 128 m 1
 128 0 l 1
 256 0 l 1
 256 128 l 1
 128 128 l 1
256 128 m 1
 256 0 l 1
 384 0 l 1
 384 128 l 1
 256 128 l 1
128 0 m 1
 128 -128 l 1
 256 -128 l 1
 256 0 l 1
 128 0 l 1
256 0 m 1
 256 -128 l 1
 384 -128 l 1
 384 0 l 1
 256 0 l 1
EndSplineSet
EndChar

StartChar: BOX
Encoding: 9491 9491 134
Width: 512
Flags: HW
LayerCount: 2
Fore
SplineSet
0 512 m 1
 0 384 l 1
 128 384 l 1
 128 512 l 1
 0 512 l 1
128 512 m 1
 128 384 l 1
 256 384 l 1
 256 512 l 1
 128 512 l 1
256 512 m 1
 256 384 l 1
 384 384 l 1
 384 512 l 1
 256 512 l 1
0 384 m 1
 0 256 l 1
 128 256 l 1
 128 384 l 1
 0 384 l 1
128 384 m 1
 128 256 l 1
 256 256 l 1
 256 384 l 1
 128 384 l 1
256 384 m 1
 256 256 l 1
 384 256 l 1
 384 384 l 1
 256 384 l 1
128 256 m 1
 128 128 l 1
 256 128 l 1
 256 256 l 1
 128 256 l 1
256 256 m 1
 256 128 l 1
 384 128 l 1
 384 256 l 1
 256 256 l 1
128 128 m 1
 128 0 l 1
 256 0 l 1
 256 128 l 1
 128 128 l 1
256 128 m 1
 256 0 l 1
 384 0 l 1
 384 128 l 1
 256 128 l 1
128 0 m 1
 128 -128 l 1
 256 -128 l 1
 256 0 l 1
 128 0 l 1
256 0 m 1
 256 -128 l 1
 384 -128 l 1
 384 0 l 1
 256 0 l 1
EndSplineSet
EndChar

StartChar: BOX
Encoding: 9492 9492 135
Width: 512
Flags: HW
LayerCount: 2
Fore
SplineSet
128 896 m 1
 128 768 l 1
 256 768 l 1
 256 896 l 1
 128 896 l 1
128 768 m 1
 128 640 l 1
 256 640 l 1
 256 768 l 1
 128 768 l 1
128 640 m 1
 128 512 l 1
 256 512 l 1
 256 640 l 1
 128 640 l 1
128 512 m 1
 128 384 l 1
 256 384 l 1
 256 512 l 1
 128 512 l 1
128 384 m 1
 128 256 l 1
 256 256 l 1
 256 384 l 1
 128 384 l 1
256 384 m 1
 256 256 l 1
 384 256 l 1
 384 384 l 1
 256 384 l 1
384 384 m 1
 384 256 l 1
 512 256 l 1
 512 384 l 1
 384 384 l 1
EndSplineSet
EndChar

StartChar: BOX
Encoding: 9493 9493 136
Width: 512
Flags: HW
LayerCount: 2
Fore
SplineSet
128 896 m 1
 128 768 l 1
 256 768 l 1
 256 896 l 1
 128 896 l 1
128 768 m 1
 128 640 l 1
 256 640 l 1
 256 768 l 1
 128 768 l 1
128 640 m 1
 128 512 l 1
 256 512 l 1
 256 640 l 1
 128 640 l 1
128 512 m 1
 128 384 l 1
 256 384 l 1
 256 512 l 1
 128 512 l 1
256 512 m 1
 256 384 l 1
 384 384 l 1
 384 512 l 1
 256 512 l 1
384 512 m 1
 384 384 l 1
 512 384 l 1
 512 512 l 1
 384 512 l 1
128 384 m 1
 128 256 l 1
 256 256 l 1
 256 384 l 1
 128 384 l 1
256 384 m 1
 256 256 l 1
 384 256 l 1
 384 384 l 1
 256 384 l 1
384 384 m 1
 384 256 l 1
 512 256 l 1
 512 384 l 1
 384 384 l 1
EndSplineSet
EndChar

StartChar: BOX
Encoding: 9494 9494 137
Width: 512
Flags: HW
LayerCount: 2
Fore
SplineSet
128 896 m 1
 128 768 l 1
 256 768 l 1
 256 896 l 1
 128 896 l 1
256 896 m 1
 256 768 l 1
 384 768 l 1
 384 896 l 1
 256 896 l 1
128 768 m 1
 128 640 l 1
 256 640 l 1
 256 768 l 1
 128 768 l 1
256 768 m 1
 256 640 l 1
 384 640 l 1
 384 768 l 1
 256 768 l 1
128 640 m 1
 128 512 l 1
 256 512 l 1
 256 640 l 1
 128 640 l 1
256 640 m 1
 256 512 l 1
 384 512 l 1
 384 640 l 1
 256 640 l 1
128 512 m 1
 128 384 l 1
 256 384 l 1
 256 512 l 1
 128 512 l 1
256 512 m 1
 256 384 l 1
 384 384 l 1
 384 512 l 1
 256 512 l 1
128 384 m 1
 128 256 l 1
 256 256 l 1
 256 384 l 1
 128 384 l 1
256 384 m 1
 256 256 l 1
 384 256 l 1
 384 384 l 1
 256 384 l 1
384 384 m 1
 384 256 l 1
 512 256 l 1
 512 384 l 1
 384 384 l 1
EndSplineSet
EndChar

StartChar: BOX
Encoding: 9495 9495 138
Width: 512
Flags: HW
LayerCount: 2
Fore
SplineSet
128 896 m 1
 128 768 l 1
 256 768 l 1
 256 896 l 1
 128 896 l 1
256 896 m 1
 256 768 l 1
 384 768 l 1
 384 896 l 1
 256 896 l 1
128 768 m 1
 128 640 l 1
 256 640 l 1
 256 768 l 1
 128 768 l 1
256 768 m 1
 256 640 l 1
 384 640 l 1
 384 768 l 1
 256 768 l 1
128 640 m 1
 128 512 l 1
 256 512 l 1
 256 640 l 1
 128 640 l 1
256 640 m 1
 256 512 l 1
 384 512 l 1
 384 640 l 1
 256 640 l 1
128 512 m 1
 128 384 l 1
 256 384 l 1
 256 512 l 1
 128 512 l 1
256 512 m 1
 256 384 l 1
 384 384 l 1
 384 512 l 1
 256 512 l 1
384 512 m 1
 384 384 l 1
 512 384 l 1
 512 512 l 1
 384 512 l 1
128 384 m 1
 128 256 l 1
 256 256 l 1
 256 384 l 1
 128 384 l 1
256 384 m 1
 256 256 l 1
 384 256 l 1
 384 384 l 1
 256 384 l 1
384 384 m 1
 384 256 l 1
 512 256 l 1
 512 384 l 1
 384 384 l 1
EndSplineSet
EndChar

StartChar: BOX
Encoding: 9496 9496 139
Width: 512
Flags: HW
LayerCount: 2
Fore
SplineSet
128 896 m 1
 128 768 l 1
 256 768 l 1
 256 896 l 1
 128 896 l 1
128 768 m 1
 128 640 l 1
 256 640 l 1
 256 768 l 1
 128 768 l 1
128 640 m 1
 128 512 l 1
 256 512 l 1
 256 640 l 1
 128 640 l 1
128 512 m 1
 128 384 l 1
 256 384 l 1
 256 512 l 1
 128 512 l 1
0 384 m 1
 0 256 l 1
 128 256 l 1
 128 384 l 1
 0 384 l 1
128 384 m 1
 128 256 l 1
 256 256 l 1
 256 384 l 1
 128 384 l 1
EndSplineSet
EndChar

StartChar: BOX
Encoding: 9497 9497 140
Width: 512
Flags: HW
LayerCount: 2
Fore
SplineSet
128 896 m 1
 128 768 l 1
 256 768 l 1
 256 896 l 1
 128 896 l 1
128 768 m 1
 128 640 l 1
 256 640 l 1
 256 768 l 1
 128 768 l 1
128 640 m 1
 128 512 l 1
 256 512 l 1
 256 640 l 1
 128 640 l 1
0 512 m 1
 0 384 l 1
 128 384 l 1
 128 512 l 1
 0 512 l 1
128 512 m 1
 128 384 l 1
 256 384 l 1
 256 512 l 1
 128 512 l 1
0 384 m 1
 0 256 l 1
 128 256 l 1
 128 384 l 1
 0 384 l 1
128 384 m 1
 128 256 l 1
 256 256 l 1
 256 384 l 1
 128 384 l 1
EndSplineSet
EndChar

StartChar: BOX
Encoding: 9498 9498 141
Width: 512
Flags: HW
LayerCount: 2
Fore
SplineSet
128 896 m 1
 128 768 l 1
 256 768 l 1
 256 896 l 1
 128 896 l 1
256 896 m 1
 256 768 l 1
 384 768 l 1
 384 896 l 1
 256 896 l 1
128 768 m 1
 128 640 l 1
 256 640 l 1
 256 768 l 1
 128 768 l 1
256 768 m 1
 256 640 l 1
 384 640 l 1
 384 768 l 1
 256 768 l 1
128 640 m 1
 128 512 l 1
 256 512 l 1
 256 640 l 1
 128 640 l 1
256 640 m 1
 256 512 l 1
 384 512 l 1
 384 640 l 1
 256 640 l 1
128 512 m 1
 128 384 l 1
 256 384 l 1
 256 512 l 1
 128 512 l 1
256 512 m 1
 256 384 l 1
 384 384 l 1
 384 512 l 1
 256 512 l 1
0 384 m 1
 0 256 l 1
 128 256 l 1
 128 384 l 1
 0 384 l 1
128 384 m 1
 128 256 l 1
 256 256 l 1
 256 384 l 1
 128 384 l 1
256 384 m 1
 256 256 l 1
 384 256 l 1
 384 384 l 1
 256 384 l 1
EndSplineSet
EndChar

StartChar: BOX
Encoding: 9499 9499 142
Width: 512
Flags: HW
LayerCount: 2
Fore
SplineSet
128 896 m 1
 128 768 l 1
 256 768 l 1
 256 896 l 1
 128 896 l 1
256 896 m 1
 256 768 l 1
 384 768 l 1
 384 896 l 1
 256 896 l 1
128 768 m 1
 128 640 l 1
 256 640 l 1
 256 768 l 1
 128 768 l 1
256 768 m 1
 256 640 l 1
 384 640 l 1
 384 768 l 1
 256 768 l 1
128 640 m 1
 128 512 l 1
 256 512 l 1
 256 640 l 1
 128 640 l 1
256 640 m 1
 256 512 l 1
 384 512 l 1
 384 640 l 1
 256 640 l 1
0 512 m 1
 0 384 l 1
 128 384 l 1
 128 512 l 1
 0 512 l 1
128 512 m 1
 128 384 l 1
 256 384 l 1
 256 512 l 1
 128 512 l 1
256 512 m 1
 256 384 l 1
 384 384 l 1
 384 512 l 1
 256 512 l 1
0 384 m 1
 0 256 l 1
 128 256 l 1
 128 384 l 1
 0 384 l 1
128 384 m 1
 128 256 l 1
 256 256 l 1
 256 384 l 1
 128 384 l 1
256 384 m 1
 256 256 l 1
 384 256 l 1
 384 384 l 1
 256 384 l 1
EndSplineSet
EndChar

StartChar: BOX
Encoding: 9500 9500 143
Width: 512
Flags: HW
LayerCount: 2
Fore
SplineSet
128 896 m 1
 128 768 l 1
 256 768 l 1
 256 896 l 1
 128 896 l 1
128 768 m 1
 128 640 l 1
 256 640 l 1
 256 768 l 1
 128 768 l 1
128 640 m 1
 128 512 l 1
 256 512 l 1
 256 640 l 1
 128 640 l 1
128 512 m 1
 128 384 l 1
 256 384 l 1
 256 512 l 1
 128 512 l 1
128 384 m 1
 128 256 l 1
 256 256 l 1
 256 384 l 1
 128 384 l 1
256 384 m 1
 256 256 l 1
 384 256 l 1
 384 384 l 1
 256 384 l 1
384 384 m 1
 384 256 l 1
 512 256 l 1
 512 384 l 1
 384 384 l 1
128 256 m 1
 128 128 l 1
 256 128 l 1
 256 256 l 1
 128 256 l 1
128 128 m 1
 128 0 l 1
 256 0 l 1
 256 128 l 1
 128 128 l 1
128 0 m 1
 128 -128 l 1
 256 -128 l 1
 256 0 l 1
 128 0 l 1
EndSplineSet
EndChar

StartChar: BOX
Encoding: 9501 9501 144
Width: 512
Flags: HW
LayerCount: 2
Fore
SplineSet
128 896 m 1
 128 768 l 1
 256 768 l 1
 256 896 l 1
 128 896 l 1
128 768 m 1
 128 640 l 1
 256 640 l 1
 256 768 l 1
 128 768 l 1
128 640 m 1
 128 512 l 1
 256 512 l 1
 256 640 l 1
 128 640 l 1
128 512 m 1
 128 384 l 1
 256 384 l 1
 256 512 l 1
 128 512 l 1
256 512 m 1
 256 384 l 1
 384 384 l 1
 384 512 l 1
 256 512 l 1
384 512 m 1
 384 384 l 1
 512 384 l 1
 512 512 l 1
 384 512 l 1
128 384 m 1
 128 256 l 1
 256 256 l 1
 256 384 l 1
 128 384 l 1
256 384 m 1
 256 256 l 1
 384 256 l 1
 384 384 l 1
 256 384 l 1
384 384 m 1
 384 256 l 1
 512 256 l 1
 512 384 l 1
 384 384 l 1
128 256 m 1
 128 128 l 1
 256 128 l 1
 256 256 l 1
 128 256 l 1
128 128 m 1
 128 0 l 1
 256 0 l 1
 256 128 l 1
 128 128 l 1
128 0 m 1
 128 -128 l 1
 256 -128 l 1
 256 0 l 1
 128 0 l 1
EndSplineSet
EndChar

StartChar: BOX
Encoding: 9502 9502 145
Width: 512
Flags: HW
LayerCount: 2
Fore
SplineSet
128 896 m 1
 128 768 l 1
 256 768 l 1
 256 896 l 1
 128 896 l 1
256 896 m 1
 256 768 l 1
 384 768 l 1
 384 896 l 1
 256 896 l 1
128 768 m 1
 128 640 l 1
 256 640 l 1
 256 768 l 1
 128 768 l 1
256 768 m 1
 256 640 l 1
 384 640 l 1
 384 768 l 1
 256 768 l 1
128 640 m 1
 128 512 l 1
 256 512 l 1
 256 640 l 1
 128 640 l 1
256 640 m 1
 256 512 l 1
 384 512 l 1
 384 640 l 1
 256 640 l 1
128 512 m 1
 128 384 l 1
 256 384 l 1
 256 512 l 1
 128 512 l 1
256 512 m 1
 256 384 l 1
 384 384 l 1
 384 512 l 1
 256 512 l 1
128 384 m 1
 128 256 l 1
 256 256 l 1
 256 384 l 1
 128 384 l 1
256 384 m 1
 256 256 l 1
 384 256 l 1
 384 384 l 1
 256 384 l 1
384 384 m 1
 384 256 l 1
 512 256 l 1
 512 384 l 1
 384 384 l 1
128 256 m 1
 128 128 l 1
 256 128 l 1
 256 256 l 1
 128 256 l 1
128 128 m 1
 128 0 l 1
 256 0 l 1
 256 128 l 1
 128 128 l 1
128 0 m 1
 128 -128 l 1
 256 -128 l 1
 256 0 l 1
 128 0 l 1
EndSplineSet
EndChar

StartChar: BOX
Encoding: 9503 9503 146
Width: 512
Flags: HW
LayerCount: 2
Fore
SplineSet
128 896 m 1
 128 768 l 1
 256 768 l 1
 256 896 l 1
 128 896 l 1
128 768 m 1
 128 640 l 1
 256 640 l 1
 256 768 l 1
 128 768 l 1
128 640 m 1
 128 512 l 1
 256 512 l 1
 256 640 l 1
 128 640 l 1
128 512 m 1
 128 384 l 1
 256 384 l 1
 256 512 l 1
 128 512 l 1
128 384 m 1
 128 256 l 1
 256 256 l 1
 256 384 l 1
 128 384 l 1
256 384 m 1
 256 256 l 1
 384 256 l 1
 384 384 l 1
 256 384 l 1
384 384 m 1
 384 256 l 1
 512 256 l 1
 512 384 l 1
 384 384 l 1
128 256 m 1
 128 128 l 1
 256 128 l 1
 256 256 l 1
 128 256 l 1
256 256 m 1
 256 128 l 1
 384 128 l 1
 384 256 l 1
 256 256 l 1
128 128 m 1
 128 0 l 1
 256 0 l 1
 256 128 l 1
 128 128 l 1
256 128 m 1
 256 0 l 1
 384 0 l 1
 384 128 l 1
 256 128 l 1
128 0 m 1
 128 -128 l 1
 256 -128 l 1
 256 0 l 1
 128 0 l 1
256 0 m 1
 256 -128 l 1
 384 -128 l 1
 384 0 l 1
 256 0 l 1
EndSplineSet
EndChar

StartChar: BOX
Encoding: 9504 9504 147
Width: 512
Flags: HW
LayerCount: 2
Fore
SplineSet
128 896 m 1
 128 768 l 1
 256 768 l 1
 256 896 l 1
 128 896 l 1
256 896 m 1
 256 768 l 1
 384 768 l 1
 384 896 l 1
 256 896 l 1
128 768 m 1
 128 640 l 1
 256 640 l 1
 256 768 l 1
 128 768 l 1
256 768 m 1
 256 640 l 1
 384 640 l 1
 384 768 l 1
 256 768 l 1
128 640 m 1
 128 512 l 1
 256 512 l 1
 256 640 l 1
 128 640 l 1
256 640 m 1
 256 512 l 1
 384 512 l 1
 384 640 l 1
 256 640 l 1
128 512 m 1
 128 384 l 1
 256 384 l 1
 256 512 l 1
 128 512 l 1
256 512 m 1
 256 384 l 1
 384 384 l 1
 384 512 l 1
 256 512 l 1
128 384 m 1
 128 256 l 1
 256 256 l 1
 256 384 l 1
 128 384 l 1
256 384 m 1
 256 256 l 1
 384 256 l 1
 384 384 l 1
 256 384 l 1
384 384 m 1
 384 256 l 1
 512 256 l 1
 512 384 l 1
 384 384 l 1
128 256 m 1
 128 128 l 1
 256 128 l 1
 256 256 l 1
 128 256 l 1
256 256 m 1
 256 128 l 1
 384 128 l 1
 384 256 l 1
 256 256 l 1
128 128 m 1
 128 0 l 1
 256 0 l 1
 256 128 l 1
 128 128 l 1
256 128 m 1
 256 0 l 1
 384 0 l 1
 384 128 l 1
 256 128 l 1
128 0 m 1
 128 -128 l 1
 256 -128 l 1
 256 0 l 1
 128 0 l 1
256 0 m 1
 256 -128 l 1
 384 -128 l 1
 384 0 l 1
 256 0 l 1
EndSplineSet
EndChar

StartChar: BOX
Encoding: 9505 9505 148
Width: 512
Flags: HW
LayerCount: 2
Fore
SplineSet
128 896 m 1
 128 768 l 1
 256 768 l 1
 256 896 l 1
 128 896 l 1
256 896 m 1
 256 768 l 1
 384 768 l 1
 384 896 l 1
 256 896 l 1
128 768 m 1
 128 640 l 1
 256 640 l 1
 256 768 l 1
 128 768 l 1
256 768 m 1
 256 640 l 1
 384 640 l 1
 384 768 l 1
 256 768 l 1
128 640 m 1
 128 512 l 1
 256 512 l 1
 256 640 l 1
 128 640 l 1
256 640 m 1
 256 512 l 1
 384 512 l 1
 384 640 l 1
 256 640 l 1
128 512 m 1
 128 384 l 1
 256 384 l 1
 256 512 l 1
 128 512 l 1
256 512 m 1
 256 384 l 1
 384 384 l 1
 384 512 l 1
 256 512 l 1
384 512 m 1
 384 384 l 1
 512 384 l 1
 512 512 l 1
 384 512 l 1
128 384 m 1
 128 256 l 1
 256 256 l 1
 256 384 l 1
 128 384 l 1
256 384 m 1
 256 256 l 1
 384 256 l 1
 384 384 l 1
 256 384 l 1
384 384 m 1
 384 256 l 1
 512 256 l 1
 512 384 l 1
 384 384 l 1
128 256 m 1
 128 128 l 1
 256 128 l 1
 256 256 l 1
 128 256 l 1
128 128 m 1
 128 0 l 1
 256 0 l 1
 256 128 l 1
 128 128 l 1
128 0 m 1
 128 -128 l 1
 256 -128 l 1
 256 0 l 1
 128 0 l 1
EndSplineSet
EndChar

StartChar: BOX
Encoding: 9506 9506 149
Width: 512
Flags: HW
LayerCount: 2
Fore
SplineSet
128 896 m 1
 128 768 l 1
 256 768 l 1
 256 896 l 1
 128 896 l 1
128 768 m 1
 128 640 l 1
 256 640 l 1
 256 768 l 1
 128 768 l 1
128 640 m 1
 128 512 l 1
 256 512 l 1
 256 640 l 1
 128 640 l 1
128 512 m 1
 128 384 l 1
 256 384 l 1
 256 512 l 1
 128 512 l 1
256 512 m 1
 256 384 l 1
 384 384 l 1
 384 512 l 1
 256 512 l 1
384 512 m 1
 384 384 l 1
 512 384 l 1
 512 512 l 1
 384 512 l 1
128 384 m 1
 128 256 l 1
 256 256 l 1
 256 384 l 1
 128 384 l 1
256 384 m 1
 256 256 l 1
 384 256 l 1
 384 384 l 1
 256 384 l 1
384 384 m 1
 384 256 l 1
 512 256 l 1
 512 384 l 1
 384 384 l 1
128 256 m 1
 128 128 l 1
 256 128 l 1
 256 256 l 1
 128 256 l 1
256 256 m 1
 256 128 l 1
 384 128 l 1
 384 256 l 1
 256 256 l 1
128 128 m 1
 128 0 l 1
 256 0 l 1
 256 128 l 1
 128 128 l 1
256 128 m 1
 256 0 l 1
 384 0 l 1
 384 128 l 1
 256 128 l 1
128 0 m 1
 128 -128 l 1
 256 -128 l 1
 256 0 l 1
 128 0 l 1
256 0 m 1
 256 -128 l 1
 384 -128 l 1
 384 0 l 1
 256 0 l 1
EndSplineSet
EndChar

StartChar: BOX
Encoding: 9507 9507 150
Width: 512
Flags: HW
LayerCount: 2
Fore
SplineSet
128 896 m 1
 128 768 l 1
 256 768 l 1
 256 896 l 1
 128 896 l 1
256 896 m 1
 256 768 l 1
 384 768 l 1
 384 896 l 1
 256 896 l 1
128 768 m 1
 128 640 l 1
 256 640 l 1
 256 768 l 1
 128 768 l 1
256 768 m 1
 256 640 l 1
 384 640 l 1
 384 768 l 1
 256 768 l 1
128 640 m 1
 128 512 l 1
 256 512 l 1
 256 640 l 1
 128 640 l 1
256 640 m 1
 256 512 l 1
 384 512 l 1
 384 640 l 1
 256 640 l 1
128 512 m 1
 128 384 l 1
 256 384 l 1
 256 512 l 1
 128 512 l 1
256 512 m 1
 256 384 l 1
 384 384 l 1
 384 512 l 1
 256 512 l 1
384 512 m 1
 384 384 l 1
 512 384 l 1
 512 512 l 1
 384 512 l 1
128 384 m 1
 128 256 l 1
 256 256 l 1
 256 384 l 1
 128 384 l 1
256 384 m 1
 256 256 l 1
 384 256 l 1
 384 384 l 1
 256 384 l 1
384 384 m 1
 384 256 l 1
 512 256 l 1
 512 384 l 1
 384 384 l 1
128 256 m 1
 128 128 l 1
 256 128 l 1
 256 256 l 1
 128 256 l 1
256 256 m 1
 256 128 l 1
 384 128 l 1
 384 256 l 1
 256 256 l 1
128 128 m 1
 128 0 l 1
 256 0 l 1
 256 128 l 1
 128 128 l 1
256 128 m 1
 256 0 l 1
 384 0 l 1
 384 128 l 1
 256 128 l 1
128 0 m 1
 128 -128 l 1
 256 -128 l 1
 256 0 l 1
 128 0 l 1
256 0 m 1
 256 -128 l 1
 384 -128 l 1
 384 0 l 1
 256 0 l 1
EndSplineSet
EndChar

StartChar: BOX
Encoding: 9508 9508 151
Width: 512
Flags: HW
LayerCount: 2
Fore
SplineSet
128 896 m 1
 128 768 l 1
 256 768 l 1
 256 896 l 1
 128 896 l 1
128 768 m 1
 128 640 l 1
 256 640 l 1
 256 768 l 1
 128 768 l 1
128 640 m 1
 128 512 l 1
 256 512 l 1
 256 640 l 1
 128 640 l 1
128 512 m 1
 128 384 l 1
 256 384 l 1
 256 512 l 1
 128 512 l 1
0 384 m 1
 0 256 l 1
 128 256 l 1
 128 384 l 1
 0 384 l 1
128 384 m 1
 128 256 l 1
 256 256 l 1
 256 384 l 1
 128 384 l 1
128 256 m 1
 128 128 l 1
 256 128 l 1
 256 256 l 1
 128 256 l 1
128 128 m 1
 128 0 l 1
 256 0 l 1
 256 128 l 1
 128 128 l 1
128 0 m 1
 128 -128 l 1
 256 -128 l 1
 256 0 l 1
 128 0 l 1
EndSplineSet
EndChar

StartChar: BOX
Encoding: 9509 9509 152
Width: 512
Flags: HW
LayerCount: 2
Fore
SplineSet
128 896 m 1
 128 768 l 1
 256 768 l 1
 256 896 l 1
 128 896 l 1
128 768 m 1
 128 640 l 1
 256 640 l 1
 256 768 l 1
 128 768 l 1
128 640 m 1
 128 512 l 1
 256 512 l 1
 256 640 l 1
 128 640 l 1
0 512 m 1
 0 384 l 1
 128 384 l 1
 128 512 l 1
 0 512 l 1
128 512 m 1
 128 384 l 1
 256 384 l 1
 256 512 l 1
 128 512 l 1
0 384 m 1
 0 256 l 1
 128 256 l 1
 128 384 l 1
 0 384 l 1
128 384 m 1
 128 256 l 1
 256 256 l 1
 256 384 l 1
 128 384 l 1
128 256 m 1
 128 128 l 1
 256 128 l 1
 256 256 l 1
 128 256 l 1
128 128 m 1
 128 0 l 1
 256 0 l 1
 256 128 l 1
 128 128 l 1
128 0 m 1
 128 -128 l 1
 256 -128 l 1
 256 0 l 1
 128 0 l 1
EndSplineSet
EndChar

StartChar: BOX
Encoding: 9510 9510 153
Width: 512
Flags: HW
LayerCount: 2
Fore
SplineSet
128 896 m 1
 128 768 l 1
 256 768 l 1
 256 896 l 1
 128 896 l 1
256 896 m 1
 256 768 l 1
 384 768 l 1
 384 896 l 1
 256 896 l 1
128 768 m 1
 128 640 l 1
 256 640 l 1
 256 768 l 1
 128 768 l 1
256 768 m 1
 256 640 l 1
 384 640 l 1
 384 768 l 1
 256 768 l 1
128 640 m 1
 128 512 l 1
 256 512 l 1
 256 640 l 1
 128 640 l 1
256 640 m 1
 256 512 l 1
 384 512 l 1
 384 640 l 1
 256 640 l 1
128 512 m 1
 128 384 l 1
 256 384 l 1
 256 512 l 1
 128 512 l 1
256 512 m 1
 256 384 l 1
 384 384 l 1
 384 512 l 1
 256 512 l 1
0 384 m 1
 0 256 l 1
 128 256 l 1
 128 384 l 1
 0 384 l 1
128 384 m 1
 128 256 l 1
 256 256 l 1
 256 384 l 1
 128 384 l 1
256 384 m 1
 256 256 l 1
 384 256 l 1
 384 384 l 1
 256 384 l 1
128 256 m 1
 128 128 l 1
 256 128 l 1
 256 256 l 1
 128 256 l 1
128 128 m 1
 128 0 l 1
 256 0 l 1
 256 128 l 1
 128 128 l 1
128 0 m 1
 128 -128 l 1
 256 -128 l 1
 256 0 l 1
 128 0 l 1
EndSplineSet
EndChar

StartChar: BOX
Encoding: 9511 9511 154
Width: 512
Flags: HW
LayerCount: 2
Fore
SplineSet
128 896 m 1
 128 768 l 1
 256 768 l 1
 256 896 l 1
 128 896 l 1
128 768 m 1
 128 640 l 1
 256 640 l 1
 256 768 l 1
 128 768 l 1
128 640 m 1
 128 512 l 1
 256 512 l 1
 256 640 l 1
 128 640 l 1
128 512 m 1
 128 384 l 1
 256 384 l 1
 256 512 l 1
 128 512 l 1
0 384 m 1
 0 256 l 1
 128 256 l 1
 128 384 l 1
 0 384 l 1
128 384 m 1
 128 256 l 1
 256 256 l 1
 256 384 l 1
 128 384 l 1
256 384 m 1
 256 256 l 1
 384 256 l 1
 384 384 l 1
 256 384 l 1
128 256 m 1
 128 128 l 1
 256 128 l 1
 256 256 l 1
 128 256 l 1
256 256 m 1
 256 128 l 1
 384 128 l 1
 384 256 l 1
 256 256 l 1
128 128 m 1
 128 0 l 1
 256 0 l 1
 256 128 l 1
 128 128 l 1
256 128 m 1
 256 0 l 1
 384 0 l 1
 384 128 l 1
 256 128 l 1
128 0 m 1
 128 -128 l 1
 256 -128 l 1
 256 0 l 1
 128 0 l 1
256 0 m 1
 256 -128 l 1
 384 -128 l 1
 384 0 l 1
 256 0 l 1
EndSplineSet
EndChar

StartChar: BOX
Encoding: 9512 9512 155
Width: 512
Flags: HW
LayerCount: 2
Fore
SplineSet
128 896 m 1
 128 768 l 1
 256 768 l 1
 256 896 l 1
 128 896 l 1
256 896 m 1
 256 768 l 1
 384 768 l 1
 384 896 l 1
 256 896 l 1
128 768 m 1
 128 640 l 1
 256 640 l 1
 256 768 l 1
 128 768 l 1
256 768 m 1
 256 640 l 1
 384 640 l 1
 384 768 l 1
 256 768 l 1
128 640 m 1
 128 512 l 1
 256 512 l 1
 256 640 l 1
 128 640 l 1
256 640 m 1
 256 512 l 1
 384 512 l 1
 384 640 l 1
 256 640 l 1
128 512 m 1
 128 384 l 1
 256 384 l 1
 256 512 l 1
 128 512 l 1
256 512 m 1
 256 384 l 1
 384 384 l 1
 384 512 l 1
 256 512 l 1
0 384 m 1
 0 256 l 1
 128 256 l 1
 128 384 l 1
 0 384 l 1
128 384 m 1
 128 256 l 1
 256 256 l 1
 256 384 l 1
 128 384 l 1
256 384 m 1
 256 256 l 1
 384 256 l 1
 384 384 l 1
 256 384 l 1
128 256 m 1
 128 128 l 1
 256 128 l 1
 256 256 l 1
 128 256 l 1
256 256 m 1
 256 128 l 1
 384 128 l 1
 384 256 l 1
 256 256 l 1
128 128 m 1
 128 0 l 1
 256 0 l 1
 256 128 l 1
 128 128 l 1
256 128 m 1
 256 0 l 1
 384 0 l 1
 384 128 l 1
 256 128 l 1
128 0 m 1
 128 -128 l 1
 256 -128 l 1
 256 0 l 1
 128 0 l 1
256 0 m 1
 256 -128 l 1
 384 -128 l 1
 384 0 l 1
 256 0 l 1
EndSplineSet
EndChar

StartChar: BOX
Encoding: 9513 9513 156
Width: 512
Flags: HW
LayerCount: 2
Fore
SplineSet
128 896 m 1
 128 768 l 1
 256 768 l 1
 256 896 l 1
 128 896 l 1
256 896 m 1
 256 768 l 1
 384 768 l 1
 384 896 l 1
 256 896 l 1
128 768 m 1
 128 640 l 1
 256 640 l 1
 256 768 l 1
 128 768 l 1
256 768 m 1
 256 640 l 1
 384 640 l 1
 384 768 l 1
 256 768 l 1
128 640 m 1
 128 512 l 1
 256 512 l 1
 256 640 l 1
 128 640 l 1
256 640 m 1
 256 512 l 1
 384 512 l 1
 384 640 l 1
 256 640 l 1
0 512 m 1
 0 384 l 1
 128 384 l 1
 128 512 l 1
 0 512 l 1
128 512 m 1
 128 384 l 1
 256 384 l 1
 256 512 l 1
 128 512 l 1
256 512 m 1
 256 384 l 1
 384 384 l 1
 384 512 l 1
 256 512 l 1
0 384 m 1
 0 256 l 1
 128 256 l 1
 128 384 l 1
 0 384 l 1
128 384 m 1
 128 256 l 1
 256 256 l 1
 256 384 l 1
 128 384 l 1
256 384 m 1
 256 256 l 1
 384 256 l 1
 384 384 l 1
 256 384 l 1
128 256 m 1
 128 128 l 1
 256 128 l 1
 256 256 l 1
 128 256 l 1
128 128 m 1
 128 0 l 1
 256 0 l 1
 256 128 l 1
 128 128 l 1
128 0 m 1
 128 -128 l 1
 256 -128 l 1
 256 0 l 1
 128 0 l 1
EndSplineSet
EndChar

StartChar: BOX
Encoding: 9514 9514 157
Width: 512
Flags: HW
LayerCount: 2
Fore
SplineSet
128 896 m 1
 128 768 l 1
 256 768 l 1
 256 896 l 1
 128 896 l 1
128 768 m 1
 128 640 l 1
 256 640 l 1
 256 768 l 1
 128 768 l 1
128 640 m 1
 128 512 l 1
 256 512 l 1
 256 640 l 1
 128 640 l 1
0 512 m 1
 0 384 l 1
 128 384 l 1
 128 512 l 1
 0 512 l 1
128 512 m 1
 128 384 l 1
 256 384 l 1
 256 512 l 1
 128 512 l 1
256 512 m 1
 256 384 l 1
 384 384 l 1
 384 512 l 1
 256 512 l 1
0 384 m 1
 0 256 l 1
 128 256 l 1
 128 384 l 1
 0 384 l 1
128 384 m 1
 128 256 l 1
 256 256 l 1
 256 384 l 1
 128 384 l 1
256 384 m 1
 256 256 l 1
 384 256 l 1
 384 384 l 1
 256 384 l 1
128 256 m 1
 128 128 l 1
 256 128 l 1
 256 256 l 1
 128 256 l 1
256 256 m 1
 256 128 l 1
 384 128 l 1
 384 256 l 1
 256 256 l 1
128 128 m 1
 128 0 l 1
 256 0 l 1
 256 128 l 1
 128 128 l 1
256 128 m 1
 256 0 l 1
 384 0 l 1
 384 128 l 1
 256 128 l 1
128 0 m 1
 128 -128 l 1
 256 -128 l 1
 256 0 l 1
 128 0 l 1
256 0 m 1
 256 -128 l 1
 384 -128 l 1
 384 0 l 1
 256 0 l 1
EndSplineSet
EndChar

StartChar: BOX
Encoding: 9515 9515 158
Width: 512
Flags: HW
LayerCount: 2
Fore
SplineSet
128 896 m 1
 128 768 l 1
 256 768 l 1
 256 896 l 1
 128 896 l 1
256 896 m 1
 256 768 l 1
 384 768 l 1
 384 896 l 1
 256 896 l 1
128 768 m 1
 128 640 l 1
 256 640 l 1
 256 768 l 1
 128 768 l 1
256 768 m 1
 256 640 l 1
 384 640 l 1
 384 768 l 1
 256 768 l 1
128 640 m 1
 128 512 l 1
 256 512 l 1
 256 640 l 1
 128 640 l 1
256 640 m 1
 256 512 l 1
 384 512 l 1
 384 640 l 1
 256 640 l 1
0 512 m 1
 0 384 l 1
 128 384 l 1
 128 512 l 1
 0 512 l 1
128 512 m 1
 128 384 l 1
 256 384 l 1
 256 512 l 1
 128 512 l 1
256 512 m 1
 256 384 l 1
 384 384 l 1
 384 512 l 1
 256 512 l 1
0 384 m 1
 0 256 l 1
 128 256 l 1
 128 384 l 1
 0 384 l 1
128 384 m 1
 128 256 l 1
 256 256 l 1
 256 384 l 1
 128 384 l 1
256 384 m 1
 256 256 l 1
 384 256 l 1
 384 384 l 1
 256 384 l 1
128 256 m 1
 128 128 l 1
 256 128 l 1
 256 256 l 1
 128 256 l 1
256 256 m 1
 256 128 l 1
 384 128 l 1
 384 256 l 1
 256 256 l 1
128 128 m 1
 128 0 l 1
 256 0 l 1
 256 128 l 1
 128 128 l 1
256 128 m 1
 256 0 l 1
 384 0 l 1
 384 128 l 1
 256 128 l 1
128 0 m 1
 128 -128 l 1
 256 -128 l 1
 256 0 l 1
 128 0 l 1
256 0 m 1
 256 -128 l 1
 384 -128 l 1
 384 0 l 1
 256 0 l 1
EndSplineSet
EndChar

StartChar: BOX
Encoding: 9516 9516 159
Width: 512
Flags: HW
LayerCount: 2
Fore
SplineSet
0 384 m 1
 0 256 l 1
 128 256 l 1
 128 384 l 1
 0 384 l 1
128 384 m 1
 128 256 l 1
 256 256 l 1
 256 384 l 1
 128 384 l 1
256 384 m 1
 256 256 l 1
 384 256 l 1
 384 384 l 1
 256 384 l 1
384 384 m 1
 384 256 l 1
 512 256 l 1
 512 384 l 1
 384 384 l 1
128 256 m 1
 128 128 l 1
 256 128 l 1
 256 256 l 1
 128 256 l 1
128 128 m 1
 128 0 l 1
 256 0 l 1
 256 128 l 1
 128 128 l 1
128 0 m 1
 128 -128 l 1
 256 -128 l 1
 256 0 l 1
 128 0 l 1
EndSplineSet
EndChar

StartChar: BOX
Encoding: 9517 9517 160
Width: 512
Flags: HW
LayerCount: 2
Fore
SplineSet
0 512 m 1
 0 384 l 1
 128 384 l 1
 128 512 l 1
 0 512 l 1
128 512 m 1
 128 384 l 1
 256 384 l 1
 256 512 l 1
 128 512 l 1
256 512 m 1
 256 384 l 1
 384 384 l 1
 384 512 l 1
 256 512 l 1
0 384 m 1
 0 256 l 1
 128 256 l 1
 128 384 l 1
 0 384 l 1
128 384 m 1
 128 256 l 1
 256 256 l 1
 256 384 l 1
 128 384 l 1
256 384 m 1
 256 256 l 1
 384 256 l 1
 384 384 l 1
 256 384 l 1
384 384 m 1
 384 256 l 1
 512 256 l 1
 512 384 l 1
 384 384 l 1
256 256 m 1
 256 128 l 1
 384 128 l 1
 384 256 l 1
 256 256 l 1
256 128 m 1
 256 0 l 1
 384 0 l 1
 384 128 l 1
 256 128 l 1
256 0 m 1
 256 -128 l 1
 384 -128 l 1
 384 0 l 1
 256 0 l 1
EndSplineSet
EndChar

StartChar: BOX
Encoding: 9518 9518 161
Width: 512
Flags: HW
LayerCount: 2
Fore
SplineSet
128 512 m 1
 128 384 l 1
 256 384 l 1
 256 512 l 1
 128 512 l 1
256 512 m 1
 256 384 l 1
 384 384 l 1
 384 512 l 1
 256 512 l 1
384 512 m 1
 384 384 l 1
 512 384 l 1
 512 512 l 1
 384 512 l 1
0 384 m 1
 0 256 l 1
 128 256 l 1
 128 384 l 1
 0 384 l 1
128 384 m 1
 128 256 l 1
 256 256 l 1
 256 384 l 1
 128 384 l 1
256 384 m 1
 256 256 l 1
 384 256 l 1
 384 384 l 1
 256 384 l 1
384 384 m 1
 384 256 l 1
 512 256 l 1
 512 384 l 1
 384 384 l 1
128 256 m 1
 128 128 l 1
 256 128 l 1
 256 256 l 1
 128 256 l 1
128 128 m 1
 128 0 l 1
 256 0 l 1
 256 128 l 1
 128 128 l 1
128 0 m 1
 128 -128 l 1
 256 -128 l 1
 256 0 l 1
 128 0 l 1
EndSplineSet
EndChar

StartChar: BOX
Encoding: 9519 9519 162
Width: 512
Flags: HW
LayerCount: 2
Fore
SplineSet
0 512 m 1
 0 384 l 1
 128 384 l 1
 128 512 l 1
 0 512 l 1
128 512 m 1
 128 384 l 1
 256 384 l 1
 256 512 l 1
 128 512 l 1
256 512 m 1
 256 384 l 1
 384 384 l 1
 384 512 l 1
 256 512 l 1
384 512 m 1
 384 384 l 1
 512 384 l 1
 512 512 l 1
 384 512 l 1
0 384 m 1
 0 256 l 1
 128 256 l 1
 128 384 l 1
 0 384 l 1
128 384 m 1
 128 256 l 1
 256 256 l 1
 256 384 l 1
 128 384 l 1
256 384 m 1
 256 256 l 1
 384 256 l 1
 384 384 l 1
 256 384 l 1
384 384 m 1
 384 256 l 1
 512 256 l 1
 512 384 l 1
 384 384 l 1
128 256 m 1
 128 128 l 1
 256 128 l 1
 256 256 l 1
 128 256 l 1
128 128 m 1
 128 0 l 1
 256 0 l 1
 256 128 l 1
 128 128 l 1
128 0 m 1
 128 -128 l 1
 256 -128 l 1
 256 0 l 1
 128 0 l 1
EndSplineSet
EndChar

StartChar: BOX
Encoding: 9520 9520 163
Width: 512
Flags: HW
LayerCount: 2
Fore
SplineSet
0 384 m 1
 0 256 l 1
 128 256 l 1
 128 384 l 1
 0 384 l 1
128 384 m 1
 128 256 l 1
 256 256 l 1
 256 384 l 1
 128 384 l 1
256 384 m 1
 256 256 l 1
 384 256 l 1
 384 384 l 1
 256 384 l 1
384 384 m 1
 384 256 l 1
 512 256 l 1
 512 384 l 1
 384 384 l 1
128 256 m 1
 128 128 l 1
 256 128 l 1
 256 256 l 1
 128 256 l 1
256 256 m 1
 256 128 l 1
 384 128 l 1
 384 256 l 1
 256 256 l 1
128 128 m 1
 128 0 l 1
 256 0 l 1
 256 128 l 1
 128 128 l 1
256 128 m 1
 256 0 l 1
 384 0 l 1
 384 128 l 1
 256 128 l 1
128 0 m 1
 128 -128 l 1
 256 -128 l 1
 256 0 l 1
 128 0 l 1
256 0 m 1
 256 -128 l 1
 384 -128 l 1
 384 0 l 1
 256 0 l 1
EndSplineSet
EndChar

StartChar: BOX
Encoding: 9521 9521 164
Width: 512
Flags: HW
LayerCount: 2
Fore
SplineSet
0 512 m 1
 0 384 l 1
 128 384 l 1
 128 512 l 1
 0 512 l 1
128 512 m 1
 128 384 l 1
 256 384 l 1
 256 512 l 1
 128 512 l 1
256 512 m 1
 256 384 l 1
 384 384 l 1
 384 512 l 1
 256 512 l 1
0 384 m 1
 0 256 l 1
 128 256 l 1
 128 384 l 1
 0 384 l 1
128 384 m 1
 128 256 l 1
 256 256 l 1
 256 384 l 1
 128 384 l 1
256 384 m 1
 256 256 l 1
 384 256 l 1
 384 384 l 1
 256 384 l 1
384 384 m 1
 384 256 l 1
 512 256 l 1
 512 384 l 1
 384 384 l 1
128 256 m 1
 128 128 l 1
 256 128 l 1
 256 256 l 1
 128 256 l 1
256 256 m 1
 256 128 l 1
 384 128 l 1
 384 256 l 1
 256 256 l 1
128 128 m 1
 128 0 l 1
 256 0 l 1
 256 128 l 1
 128 128 l 1
256 128 m 1
 256 0 l 1
 384 0 l 1
 384 128 l 1
 256 128 l 1
128 0 m 1
 128 -128 l 1
 256 -128 l 1
 256 0 l 1
 128 0 l 1
256 0 m 1
 256 -128 l 1
 384 -128 l 1
 384 0 l 1
 256 0 l 1
EndSplineSet
EndChar

StartChar: BOX
Encoding: 9522 9522 165
Width: 512
Flags: HW
LayerCount: 2
Fore
SplineSet
128 512 m 1
 128 384 l 1
 256 384 l 1
 256 512 l 1
 128 512 l 1
256 512 m 1
 256 384 l 1
 384 384 l 1
 384 512 l 1
 256 512 l 1
384 512 m 1
 384 384 l 1
 512 384 l 1
 512 512 l 1
 384 512 l 1
0 384 m 1
 0 256 l 1
 128 256 l 1
 128 384 l 1
 0 384 l 1
128 384 m 1
 128 256 l 1
 256 256 l 1
 256 384 l 1
 128 384 l 1
256 384 m 1
 256 256 l 1
 384 256 l 1
 384 384 l 1
 256 384 l 1
384 384 m 1
 384 256 l 1
 512 256 l 1
 512 384 l 1
 384 384 l 1
128 256 m 1
 128 128 l 1
 256 128 l 1
 256 256 l 1
 128 256 l 1
256 256 m 1
 256 128 l 1
 384 128 l 1
 384 256 l 1
 256 256 l 1
128 128 m 1
 128 0 l 1
 256 0 l 1
 256 128 l 1
 128 128 l 1
256 128 m 1
 256 0 l 1
 384 0 l 1
 384 128 l 1
 256 128 l 1
128 0 m 1
 128 -128 l 1
 256 -128 l 1
 256 0 l 1
 128 0 l 1
256 0 m 1
 256 -128 l 1
 384 -128 l 1
 384 0 l 1
 256 0 l 1
EndSplineSet
EndChar

StartChar: BOX
Encoding: 9523 9523 166
Width: 512
Flags: HW
LayerCount: 2
Fore
SplineSet
0 512 m 1
 0 384 l 1
 128 384 l 1
 128 512 l 1
 0 512 l 1
128 512 m 1
 128 384 l 1
 256 384 l 1
 256 512 l 1
 128 512 l 1
256 512 m 1
 256 384 l 1
 384 384 l 1
 384 512 l 1
 256 512 l 1
384 512 m 1
 384 384 l 1
 512 384 l 1
 512 512 l 1
 384 512 l 1
0 384 m 1
 0 256 l 1
 128 256 l 1
 128 384 l 1
 0 384 l 1
128 384 m 1
 128 256 l 1
 256 256 l 1
 256 384 l 1
 128 384 l 1
256 384 m 1
 256 256 l 1
 384 256 l 1
 384 384 l 1
 256 384 l 1
384 384 m 1
 384 256 l 1
 512 256 l 1
 512 384 l 1
 384 384 l 1
128 256 m 1
 128 128 l 1
 256 128 l 1
 256 256 l 1
 128 256 l 1
256 256 m 1
 256 128 l 1
 384 128 l 1
 384 256 l 1
 256 256 l 1
128 128 m 1
 128 0 l 1
 256 0 l 1
 256 128 l 1
 128 128 l 1
256 128 m 1
 256 0 l 1
 384 0 l 1
 384 128 l 1
 256 128 l 1
128 0 m 1
 128 -128 l 1
 256 -128 l 1
 256 0 l 1
 128 0 l 1
256 0 m 1
 256 -128 l 1
 384 -128 l 1
 384 0 l 1
 256 0 l 1
EndSplineSet
EndChar

StartChar: BOX
Encoding: 9524 9524 167
Width: 512
Flags: HW
LayerCount: 2
Fore
SplineSet
128 896 m 1
 128 768 l 1
 256 768 l 1
 256 896 l 1
 128 896 l 1
128 768 m 1
 128 640 l 1
 256 640 l 1
 256 768 l 1
 128 768 l 1
128 640 m 1
 128 512 l 1
 256 512 l 1
 256 640 l 1
 128 640 l 1
128 512 m 1
 128 384 l 1
 256 384 l 1
 256 512 l 1
 128 512 l 1
0 384 m 1
 0 256 l 1
 128 256 l 1
 128 384 l 1
 0 384 l 1
128 384 m 1
 128 256 l 1
 256 256 l 1
 256 384 l 1
 128 384 l 1
256 384 m 1
 256 256 l 1
 384 256 l 1
 384 384 l 1
 256 384 l 1
384 384 m 1
 384 256 l 1
 512 256 l 1
 512 384 l 1
 384 384 l 1
EndSplineSet
EndChar

StartChar: BOX
Encoding: 9525 9525 168
Width: 512
Flags: HW
LayerCount: 2
Fore
SplineSet
128 896 m 1
 128 768 l 1
 256 768 l 1
 256 896 l 1
 128 896 l 1
128 768 m 1
 128 640 l 1
 256 640 l 1
 256 768 l 1
 128 768 l 1
128 640 m 1
 128 512 l 1
 256 512 l 1
 256 640 l 1
 128 640 l 1
0 512 m 1
 0 384 l 1
 128 384 l 1
 128 512 l 1
 0 512 l 1
128 512 m 1
 128 384 l 1
 256 384 l 1
 256 512 l 1
 128 512 l 1
0 384 m 1
 0 256 l 1
 128 256 l 1
 128 384 l 1
 0 384 l 1
128 384 m 1
 128 256 l 1
 256 256 l 1
 256 384 l 1
 128 384 l 1
256 384 m 1
 256 256 l 1
 384 256 l 1
 384 384 l 1
 256 384 l 1
384 384 m 1
 384 256 l 1
 512 256 l 1
 512 384 l 1
 384 384 l 1
EndSplineSet
EndChar

StartChar: BOX
Encoding: 9526 9526 169
Width: 512
Flags: HW
LayerCount: 2
Fore
SplineSet
128 896 m 1
 128 768 l 1
 256 768 l 1
 256 896 l 1
 128 896 l 1
128 768 m 1
 128 640 l 1
 256 640 l 1
 256 768 l 1
 128 768 l 1
128 640 m 1
 128 512 l 1
 256 512 l 1
 256 640 l 1
 128 640 l 1
128 512 m 1
 128 384 l 1
 256 384 l 1
 256 512 l 1
 128 512 l 1
256 512 m 1
 256 384 l 1
 384 384 l 1
 384 512 l 1
 256 512 l 1
384 512 m 1
 384 384 l 1
 512 384 l 1
 512 512 l 1
 384 512 l 1
0 384 m 1
 0 256 l 1
 128 256 l 1
 128 384 l 1
 0 384 l 1
128 384 m 1
 128 256 l 1
 256 256 l 1
 256 384 l 1
 128 384 l 1
256 384 m 1
 256 256 l 1
 384 256 l 1
 384 384 l 1
 256 384 l 1
384 384 m 1
 384 256 l 1
 512 256 l 1
 512 384 l 1
 384 384 l 1
EndSplineSet
EndChar

StartChar: BOX
Encoding: 9527 9527 170
Width: 512
Flags: HW
LayerCount: 2
Fore
SplineSet
128 896 m 1
 128 768 l 1
 256 768 l 1
 256 896 l 1
 128 896 l 1
128 768 m 1
 128 640 l 1
 256 640 l 1
 256 768 l 1
 128 768 l 1
128 640 m 1
 128 512 l 1
 256 512 l 1
 256 640 l 1
 128 640 l 1
0 512 m 1
 0 384 l 1
 128 384 l 1
 128 512 l 1
 0 512 l 1
128 512 m 1
 128 384 l 1
 256 384 l 1
 256 512 l 1
 128 512 l 1
256 512 m 1
 256 384 l 1
 384 384 l 1
 384 512 l 1
 256 512 l 1
384 512 m 1
 384 384 l 1
 512 384 l 1
 512 512 l 1
 384 512 l 1
0 384 m 1
 0 256 l 1
 128 256 l 1
 128 384 l 1
 0 384 l 1
128 384 m 1
 128 256 l 1
 256 256 l 1
 256 384 l 1
 128 384 l 1
256 384 m 1
 256 256 l 1
 384 256 l 1
 384 384 l 1
 256 384 l 1
384 384 m 1
 384 256 l 1
 512 256 l 1
 512 384 l 1
 384 384 l 1
EndSplineSet
EndChar

StartChar: BOX
Encoding: 9528 9528 171
Width: 512
Flags: HW
LayerCount: 2
Fore
SplineSet
128 896 m 1
 128 768 l 1
 256 768 l 1
 256 896 l 1
 128 896 l 1
256 896 m 1
 256 768 l 1
 384 768 l 1
 384 896 l 1
 256 896 l 1
128 768 m 1
 128 640 l 1
 256 640 l 1
 256 768 l 1
 128 768 l 1
256 768 m 1
 256 640 l 1
 384 640 l 1
 384 768 l 1
 256 768 l 1
128 640 m 1
 128 512 l 1
 256 512 l 1
 256 640 l 1
 128 640 l 1
256 640 m 1
 256 512 l 1
 384 512 l 1
 384 640 l 1
 256 640 l 1
128 512 m 1
 128 384 l 1
 256 384 l 1
 256 512 l 1
 128 512 l 1
256 512 m 1
 256 384 l 1
 384 384 l 1
 384 512 l 1
 256 512 l 1
0 384 m 1
 0 256 l 1
 128 256 l 1
 128 384 l 1
 0 384 l 1
128 384 m 1
 128 256 l 1
 256 256 l 1
 256 384 l 1
 128 384 l 1
256 384 m 1
 256 256 l 1
 384 256 l 1
 384 384 l 1
 256 384 l 1
384 384 m 1
 384 256 l 1
 512 256 l 1
 512 384 l 1
 384 384 l 1
EndSplineSet
EndChar

StartChar: BOX
Encoding: 9529 9529 172
Width: 512
Flags: HW
LayerCount: 2
Fore
SplineSet
128 896 m 1
 128 768 l 1
 256 768 l 1
 256 896 l 1
 128 896 l 1
256 896 m 1
 256 768 l 1
 384 768 l 1
 384 896 l 1
 256 896 l 1
128 768 m 1
 128 640 l 1
 256 640 l 1
 256 768 l 1
 128 768 l 1
256 768 m 1
 256 640 l 1
 384 640 l 1
 384 768 l 1
 256 768 l 1
128 640 m 1
 128 512 l 1
 256 512 l 1
 256 640 l 1
 128 640 l 1
256 640 m 1
 256 512 l 1
 384 512 l 1
 384 640 l 1
 256 640 l 1
0 512 m 1
 0 384 l 1
 128 384 l 1
 128 512 l 1
 0 512 l 1
128 512 m 1
 128 384 l 1
 256 384 l 1
 256 512 l 1
 128 512 l 1
256 512 m 1
 256 384 l 1
 384 384 l 1
 384 512 l 1
 256 512 l 1
0 384 m 1
 0 256 l 1
 128 256 l 1
 128 384 l 1
 0 384 l 1
128 384 m 1
 128 256 l 1
 256 256 l 1
 256 384 l 1
 128 384 l 1
256 384 m 1
 256 256 l 1
 384 256 l 1
 384 384 l 1
 256 384 l 1
384 384 m 1
 384 256 l 1
 512 256 l 1
 512 384 l 1
 384 384 l 1
EndSplineSet
EndChar

StartChar: BOX
Encoding: 9530 9530 173
Width: 512
Flags: HW
LayerCount: 2
Fore
SplineSet
128 896 m 1
 128 768 l 1
 256 768 l 1
 256 896 l 1
 128 896 l 1
256 896 m 1
 256 768 l 1
 384 768 l 1
 384 896 l 1
 256 896 l 1
128 768 m 1
 128 640 l 1
 256 640 l 1
 256 768 l 1
 128 768 l 1
256 768 m 1
 256 640 l 1
 384 640 l 1
 384 768 l 1
 256 768 l 1
128 640 m 1
 128 512 l 1
 256 512 l 1
 256 640 l 1
 128 640 l 1
256 640 m 1
 256 512 l 1
 384 512 l 1
 384 640 l 1
 256 640 l 1
128 512 m 1
 128 384 l 1
 256 384 l 1
 256 512 l 1
 128 512 l 1
256 512 m 1
 256 384 l 1
 384 384 l 1
 384 512 l 1
 256 512 l 1
384 512 m 1
 384 384 l 1
 512 384 l 1
 512 512 l 1
 384 512 l 1
0 384 m 1
 0 256 l 1
 128 256 l 1
 128 384 l 1
 0 384 l 1
128 384 m 1
 128 256 l 1
 256 256 l 1
 256 384 l 1
 128 384 l 1
256 384 m 1
 256 256 l 1
 384 256 l 1
 384 384 l 1
 256 384 l 1
384 384 m 1
 384 256 l 1
 512 256 l 1
 512 384 l 1
 384 384 l 1
EndSplineSet
EndChar

StartChar: BOX
Encoding: 9531 9531 174
Width: 512
Flags: HW
LayerCount: 2
Fore
SplineSet
128 896 m 1
 128 768 l 1
 256 768 l 1
 256 896 l 1
 128 896 l 1
256 896 m 1
 256 768 l 1
 384 768 l 1
 384 896 l 1
 256 896 l 1
128 768 m 1
 128 640 l 1
 256 640 l 1
 256 768 l 1
 128 768 l 1
256 768 m 1
 256 640 l 1
 384 640 l 1
 384 768 l 1
 256 768 l 1
128 640 m 1
 128 512 l 1
 256 512 l 1
 256 640 l 1
 128 640 l 1
256 640 m 1
 256 512 l 1
 384 512 l 1
 384 640 l 1
 256 640 l 1
0 512 m 1
 0 384 l 1
 128 384 l 1
 128 512 l 1
 0 512 l 1
128 512 m 1
 128 384 l 1
 256 384 l 1
 256 512 l 1
 128 512 l 1
256 512 m 1
 256 384 l 1
 384 384 l 1
 384 512 l 1
 256 512 l 1
384 512 m 1
 384 384 l 1
 512 384 l 1
 512 512 l 1
 384 512 l 1
0 384 m 1
 0 256 l 1
 128 256 l 1
 128 384 l 1
 0 384 l 1
128 384 m 1
 128 256 l 1
 256 256 l 1
 256 384 l 1
 128 384 l 1
256 384 m 1
 256 256 l 1
 384 256 l 1
 384 384 l 1
 256 384 l 1
384 384 m 1
 384 256 l 1
 512 256 l 1
 512 384 l 1
 384 384 l 1
EndSplineSet
EndChar

StartChar: BOX
Encoding: 9532 9532 175
Width: 512
Flags: HW
LayerCount: 2
Fore
SplineSet
128 896 m 1
 128 768 l 1
 256 768 l 1
 256 896 l 1
 128 896 l 1
128 768 m 1
 128 640 l 1
 256 640 l 1
 256 768 l 1
 128 768 l 1
128 640 m 1
 128 512 l 1
 256 512 l 1
 256 640 l 1
 128 640 l 1
128 512 m 1
 128 384 l 1
 256 384 l 1
 256 512 l 1
 128 512 l 1
0 384 m 1
 0 256 l 1
 128 256 l 1
 128 384 l 1
 0 384 l 1
128 384 m 1
 128 256 l 1
 256 256 l 1
 256 384 l 1
 128 384 l 1
256 384 m 1
 256 256 l 1
 384 256 l 1
 384 384 l 1
 256 384 l 1
384 384 m 1
 384 256 l 1
 512 256 l 1
 512 384 l 1
 384 384 l 1
128 256 m 1
 128 128 l 1
 256 128 l 1
 256 256 l 1
 128 256 l 1
128 128 m 1
 128 0 l 1
 256 0 l 1
 256 128 l 1
 128 128 l 1
128 0 m 1
 128 -128 l 1
 256 -128 l 1
 256 0 l 1
 128 0 l 1
EndSplineSet
EndChar

StartChar: BOX
Encoding: 9533 9533 176
Width: 512
Flags: HW
LayerCount: 2
Fore
SplineSet
128 896 m 1
 128 768 l 1
 256 768 l 1
 256 896 l 1
 128 896 l 1
128 768 m 1
 128 640 l 1
 256 640 l 1
 256 768 l 1
 128 768 l 1
128 640 m 1
 128 512 l 1
 256 512 l 1
 256 640 l 1
 128 640 l 1
0 512 m 1
 0 384 l 1
 128 384 l 1
 128 512 l 1
 0 512 l 1
128 512 m 1
 128 384 l 1
 256 384 l 1
 256 512 l 1
 128 512 l 1
0 384 m 1
 0 256 l 1
 128 256 l 1
 128 384 l 1
 0 384 l 1
128 384 m 1
 128 256 l 1
 256 256 l 1
 256 384 l 1
 128 384 l 1
256 384 m 1
 256 256 l 1
 384 256 l 1
 384 384 l 1
 256 384 l 1
384 384 m 1
 384 256 l 1
 512 256 l 1
 512 384 l 1
 384 384 l 1
128 256 m 1
 128 128 l 1
 256 128 l 1
 256 256 l 1
 128 256 l 1
128 128 m 1
 128 0 l 1
 256 0 l 1
 256 128 l 1
 128 128 l 1
128 0 m 1
 128 -128 l 1
 256 -128 l 1
 256 0 l 1
 128 0 l 1
EndSplineSet
EndChar

StartChar: BOX
Encoding: 9534 9534 177
Width: 512
Flags: HW
LayerCount: 2
Fore
SplineSet
128 896 m 1
 128 768 l 1
 256 768 l 1
 256 896 l 1
 128 896 l 1
128 768 m 1
 128 640 l 1
 256 640 l 1
 256 768 l 1
 128 768 l 1
128 640 m 1
 128 512 l 1
 256 512 l 1
 256 640 l 1
 128 640 l 1
128 512 m 1
 128 384 l 1
 256 384 l 1
 256 512 l 1
 128 512 l 1
256 512 m 1
 256 384 l 1
 384 384 l 1
 384 512 l 1
 256 512 l 1
384 512 m 1
 384 384 l 1
 512 384 l 1
 512 512 l 1
 384 512 l 1
0 384 m 1
 0 256 l 1
 128 256 l 1
 128 384 l 1
 0 384 l 1
128 384 m 1
 128 256 l 1
 256 256 l 1
 256 384 l 1
 128 384 l 1
256 384 m 1
 256 256 l 1
 384 256 l 1
 384 384 l 1
 256 384 l 1
384 384 m 1
 384 256 l 1
 512 256 l 1
 512 384 l 1
 384 384 l 1
128 256 m 1
 128 128 l 1
 256 128 l 1
 256 256 l 1
 128 256 l 1
128 128 m 1
 128 0 l 1
 256 0 l 1
 256 128 l 1
 128 128 l 1
128 0 m 1
 128 -128 l 1
 256 -128 l 1
 256 0 l 1
 128 0 l 1
EndSplineSet
EndChar

StartChar: BOX
Encoding: 9535 9535 178
Width: 512
Flags: HW
LayerCount: 2
Fore
SplineSet
128 896 m 1
 128 768 l 1
 256 768 l 1
 256 896 l 1
 128 896 l 1
128 768 m 1
 128 640 l 1
 256 640 l 1
 256 768 l 1
 128 768 l 1
128 640 m 1
 128 512 l 1
 256 512 l 1
 256 640 l 1
 128 640 l 1
0 512 m 1
 0 384 l 1
 128 384 l 1
 128 512 l 1
 0 512 l 1
128 512 m 1
 128 384 l 1
 256 384 l 1
 256 512 l 1
 128 512 l 1
256 512 m 1
 256 384 l 1
 384 384 l 1
 384 512 l 1
 256 512 l 1
384 512 m 1
 384 384 l 1
 512 384 l 1
 512 512 l 1
 384 512 l 1
0 384 m 1
 0 256 l 1
 128 256 l 1
 128 384 l 1
 0 384 l 1
128 384 m 1
 128 256 l 1
 256 256 l 1
 256 384 l 1
 128 384 l 1
256 384 m 1
 256 256 l 1
 384 256 l 1
 384 384 l 1
 256 384 l 1
384 384 m 1
 384 256 l 1
 512 256 l 1
 512 384 l 1
 384 384 l 1
128 256 m 1
 128 128 l 1
 256 128 l 1
 256 256 l 1
 128 256 l 1
128 128 m 1
 128 0 l 1
 256 0 l 1
 256 128 l 1
 128 128 l 1
128 0 m 1
 128 -128 l 1
 256 -128 l 1
 256 0 l 1
 128 0 l 1
EndSplineSet
EndChar

StartChar: BOX
Encoding: 9536 9536 179
Width: 512
Flags: HW
LayerCount: 2
Fore
SplineSet
128 896 m 1
 128 768 l 1
 256 768 l 1
 256 896 l 1
 128 896 l 1
256 896 m 1
 256 768 l 1
 384 768 l 1
 384 896 l 1
 256 896 l 1
128 768 m 1
 128 640 l 1
 256 640 l 1
 256 768 l 1
 128 768 l 1
256 768 m 1
 256 640 l 1
 384 640 l 1
 384 768 l 1
 256 768 l 1
128 640 m 1
 128 512 l 1
 256 512 l 1
 256 640 l 1
 128 640 l 1
256 640 m 1
 256 512 l 1
 384 512 l 1
 384 640 l 1
 256 640 l 1
128 512 m 1
 128 384 l 1
 256 384 l 1
 256 512 l 1
 128 512 l 1
256 512 m 1
 256 384 l 1
 384 384 l 1
 384 512 l 1
 256 512 l 1
0 384 m 1
 0 256 l 1
 128 256 l 1
 128 384 l 1
 0 384 l 1
128 384 m 1
 128 256 l 1
 256 256 l 1
 256 384 l 1
 128 384 l 1
256 384 m 1
 256 256 l 1
 384 256 l 1
 384 384 l 1
 256 384 l 1
384 384 m 1
 384 256 l 1
 512 256 l 1
 512 384 l 1
 384 384 l 1
128 256 m 1
 128 128 l 1
 256 128 l 1
 256 256 l 1
 128 256 l 1
128 128 m 1
 128 0 l 1
 256 0 l 1
 256 128 l 1
 128 128 l 1
128 0 m 1
 128 -128 l 1
 256 -128 l 1
 256 0 l 1
 128 0 l 1
EndSplineSet
EndChar

StartChar: BOX
Encoding: 9537 9537 180
Width: 512
Flags: HW
LayerCount: 2
Fore
SplineSet
128 896 m 1
 128 768 l 1
 256 768 l 1
 256 896 l 1
 128 896 l 1
128 768 m 1
 128 640 l 1
 256 640 l 1
 256 768 l 1
 128 768 l 1
128 640 m 1
 128 512 l 1
 256 512 l 1
 256 640 l 1
 128 640 l 1
128 512 m 1
 128 384 l 1
 256 384 l 1
 256 512 l 1
 128 512 l 1
0 384 m 1
 0 256 l 1
 128 256 l 1
 128 384 l 1
 0 384 l 1
128 384 m 1
 128 256 l 1
 256 256 l 1
 256 384 l 1
 128 384 l 1
256 384 m 1
 256 256 l 1
 384 256 l 1
 384 384 l 1
 256 384 l 1
384 384 m 1
 384 256 l 1
 512 256 l 1
 512 384 l 1
 384 384 l 1
128 256 m 1
 128 128 l 1
 256 128 l 1
 256 256 l 1
 128 256 l 1
256 256 m 1
 256 128 l 1
 384 128 l 1
 384 256 l 1
 256 256 l 1
128 128 m 1
 128 0 l 1
 256 0 l 1
 256 128 l 1
 128 128 l 1
256 128 m 1
 256 0 l 1
 384 0 l 1
 384 128 l 1
 256 128 l 1
128 0 m 1
 128 -128 l 1
 256 -128 l 1
 256 0 l 1
 128 0 l 1
256 0 m 1
 256 -128 l 1
 384 -128 l 1
 384 0 l 1
 256 0 l 1
EndSplineSet
EndChar

StartChar: BOX
Encoding: 9538 9538 181
Width: 512
Flags: HW
LayerCount: 2
Fore
SplineSet
128 896 m 1
 128 768 l 1
 256 768 l 1
 256 896 l 1
 128 896 l 1
256 896 m 1
 256 768 l 1
 384 768 l 1
 384 896 l 1
 256 896 l 1
128 768 m 1
 128 640 l 1
 256 640 l 1
 256 768 l 1
 128 768 l 1
256 768 m 1
 256 640 l 1
 384 640 l 1
 384 768 l 1
 256 768 l 1
128 640 m 1
 128 512 l 1
 256 512 l 1
 256 640 l 1
 128 640 l 1
256 640 m 1
 256 512 l 1
 384 512 l 1
 384 640 l 1
 256 640 l 1
128 512 m 1
 128 384 l 1
 256 384 l 1
 256 512 l 1
 128 512 l 1
256 512 m 1
 256 384 l 1
 384 384 l 1
 384 512 l 1
 256 512 l 1
0 384 m 1
 0 256 l 1
 128 256 l 1
 128 384 l 1
 0 384 l 1
128 384 m 1
 128 256 l 1
 256 256 l 1
 256 384 l 1
 128 384 l 1
256 384 m 1
 256 256 l 1
 384 256 l 1
 384 384 l 1
 256 384 l 1
384 384 m 1
 384 256 l 1
 512 256 l 1
 512 384 l 1
 384 384 l 1
128 256 m 1
 128 128 l 1
 256 128 l 1
 256 256 l 1
 128 256 l 1
256 256 m 1
 256 128 l 1
 384 128 l 1
 384 256 l 1
 256 256 l 1
128 128 m 1
 128 0 l 1
 256 0 l 1
 256 128 l 1
 128 128 l 1
256 128 m 1
 256 0 l 1
 384 0 l 1
 384 128 l 1
 256 128 l 1
128 0 m 1
 128 -128 l 1
 256 -128 l 1
 256 0 l 1
 128 0 l 1
256 0 m 1
 256 -128 l 1
 384 -128 l 1
 384 0 l 1
 256 0 l 1
EndSplineSet
EndChar

StartChar: BOX
Encoding: 9539 9539 182
Width: 512
Flags: HW
LayerCount: 2
Fore
SplineSet
128 896 m 1
 128 768 l 1
 256 768 l 1
 256 896 l 1
 128 896 l 1
256 896 m 1
 256 768 l 1
 384 768 l 1
 384 896 l 1
 256 896 l 1
128 768 m 1
 128 640 l 1
 256 640 l 1
 256 768 l 1
 128 768 l 1
256 768 m 1
 256 640 l 1
 384 640 l 1
 384 768 l 1
 256 768 l 1
128 640 m 1
 128 512 l 1
 256 512 l 1
 256 640 l 1
 128 640 l 1
256 640 m 1
 256 512 l 1
 384 512 l 1
 384 640 l 1
 256 640 l 1
0 512 m 1
 0 384 l 1
 128 384 l 1
 128 512 l 1
 0 512 l 1
128 512 m 1
 128 384 l 1
 256 384 l 1
 256 512 l 1
 128 512 l 1
256 512 m 1
 256 384 l 1
 384 384 l 1
 384 512 l 1
 256 512 l 1
0 384 m 1
 0 256 l 1
 128 256 l 1
 128 384 l 1
 0 384 l 1
128 384 m 1
 128 256 l 1
 256 256 l 1
 256 384 l 1
 128 384 l 1
256 384 m 1
 256 256 l 1
 384 256 l 1
 384 384 l 1
 256 384 l 1
384 384 m 1
 384 256 l 1
 512 256 l 1
 512 384 l 1
 384 384 l 1
128 256 m 1
 128 128 l 1
 256 128 l 1
 256 256 l 1
 128 256 l 1
128 128 m 1
 128 0 l 1
 256 0 l 1
 256 128 l 1
 128 128 l 1
128 0 m 1
 128 -128 l 1
 256 -128 l 1
 256 0 l 1
 128 0 l 1
EndSplineSet
EndChar

StartChar: BOX
Encoding: 9540 9540 183
Width: 512
Flags: HW
LayerCount: 2
Fore
SplineSet
128 896 m 1
 128 768 l 1
 256 768 l 1
 256 896 l 1
 128 896 l 1
256 896 m 1
 256 768 l 1
 384 768 l 1
 384 896 l 1
 256 896 l 1
128 768 m 1
 128 640 l 1
 256 640 l 1
 256 768 l 1
 128 768 l 1
256 768 m 1
 256 640 l 1
 384 640 l 1
 384 768 l 1
 256 768 l 1
128 640 m 1
 128 512 l 1
 256 512 l 1
 256 640 l 1
 128 640 l 1
256 640 m 1
 256 512 l 1
 384 512 l 1
 384 640 l 1
 256 640 l 1
128 512 m 1
 128 384 l 1
 256 384 l 1
 256 512 l 1
 128 512 l 1
256 512 m 1
 256 384 l 1
 384 384 l 1
 384 512 l 1
 256 512 l 1
384 512 m 1
 384 384 l 1
 512 384 l 1
 512 512 l 1
 384 512 l 1
0 384 m 1
 0 256 l 1
 128 256 l 1
 128 384 l 1
 0 384 l 1
128 384 m 1
 128 256 l 1
 256 256 l 1
 256 384 l 1
 128 384 l 1
256 384 m 1
 256 256 l 1
 384 256 l 1
 384 384 l 1
 256 384 l 1
384 384 m 1
 384 256 l 1
 512 256 l 1
 512 384 l 1
 384 384 l 1
128 256 m 1
 128 128 l 1
 256 128 l 1
 256 256 l 1
 128 256 l 1
128 128 m 1
 128 0 l 1
 256 0 l 1
 256 128 l 1
 128 128 l 1
128 0 m 1
 128 -128 l 1
 256 -128 l 1
 256 0 l 1
 128 0 l 1
EndSplineSet
EndChar

StartChar: BOX
Encoding: 9541 9541 184
Width: 512
Flags: HW
LayerCount: 2
Fore
SplineSet
128 896 m 1
 128 768 l 1
 256 768 l 1
 256 896 l 1
 128 896 l 1
128 768 m 1
 128 640 l 1
 256 640 l 1
 256 768 l 1
 128 768 l 1
128 640 m 1
 128 512 l 1
 256 512 l 1
 256 640 l 1
 128 640 l 1
0 512 m 1
 0 384 l 1
 128 384 l 1
 128 512 l 1
 0 512 l 1
128 512 m 1
 128 384 l 1
 256 384 l 1
 256 512 l 1
 128 512 l 1
256 512 m 1
 256 384 l 1
 384 384 l 1
 384 512 l 1
 256 512 l 1
0 384 m 1
 0 256 l 1
 128 256 l 1
 128 384 l 1
 0 384 l 1
128 384 m 1
 128 256 l 1
 256 256 l 1
 256 384 l 1
 128 384 l 1
256 384 m 1
 256 256 l 1
 384 256 l 1
 384 384 l 1
 256 384 l 1
384 384 m 1
 384 256 l 1
 512 256 l 1
 512 384 l 1
 384 384 l 1
128 256 m 1
 128 128 l 1
 256 128 l 1
 256 256 l 1
 128 256 l 1
256 256 m 1
 256 128 l 1
 384 128 l 1
 384 256 l 1
 256 256 l 1
128 128 m 1
 128 0 l 1
 256 0 l 1
 256 128 l 1
 128 128 l 1
256 128 m 1
 256 0 l 1
 384 0 l 1
 384 128 l 1
 256 128 l 1
128 0 m 1
 128 -128 l 1
 256 -128 l 1
 256 0 l 1
 128 0 l 1
256 0 m 1
 256 -128 l 1
 384 -128 l 1
 384 0 l 1
 256 0 l 1
EndSplineSet
EndChar

StartChar: BOX
Encoding: 9542 9542 185
Width: 512
Flags: HW
LayerCount: 2
Fore
SplineSet
128 896 m 1
 128 768 l 1
 256 768 l 1
 256 896 l 1
 128 896 l 1
128 768 m 1
 128 640 l 1
 256 640 l 1
 256 768 l 1
 128 768 l 1
128 640 m 1
 128 512 l 1
 256 512 l 1
 256 640 l 1
 128 640 l 1
128 512 m 1
 128 384 l 1
 256 384 l 1
 256 512 l 1
 128 512 l 1
256 512 m 1
 256 384 l 1
 384 384 l 1
 384 512 l 1
 256 512 l 1
384 512 m 1
 384 384 l 1
 512 384 l 1
 512 512 l 1
 384 512 l 1
0 384 m 1
 0 256 l 1
 128 256 l 1
 128 384 l 1
 0 384 l 1
128 384 m 1
 128 256 l 1
 256 256 l 1
 256 384 l 1
 128 384 l 1
256 384 m 1
 256 256 l 1
 384 256 l 1
 384 384 l 1
 256 384 l 1
384 384 m 1
 384 256 l 1
 512 256 l 1
 512 384 l 1
 384 384 l 1
128 256 m 1
 128 128 l 1
 256 128 l 1
 256 256 l 1
 128 256 l 1
256 256 m 1
 256 128 l 1
 384 128 l 1
 384 256 l 1
 256 256 l 1
128 128 m 1
 128 0 l 1
 256 0 l 1
 256 128 l 1
 128 128 l 1
256 128 m 1
 256 0 l 1
 384 0 l 1
 384 128 l 1
 256 128 l 1
128 0 m 1
 128 -128 l 1
 256 -128 l 1
 256 0 l 1
 128 0 l 1
256 0 m 1
 256 -128 l 1
 384 -128 l 1
 384 0 l 1
 256 0 l 1
EndSplineSet
EndChar

StartChar: BOX
Encoding: 9543 9543 186
Width: 512
Flags: HW
LayerCount: 2
Fore
SplineSet
128 896 m 1
 128 768 l 1
 256 768 l 1
 256 896 l 1
 128 896 l 1
256 896 m 1
 256 768 l 1
 384 768 l 1
 384 896 l 1
 256 896 l 1
128 768 m 1
 128 640 l 1
 256 640 l 1
 256 768 l 1
 128 768 l 1
256 768 m 1
 256 640 l 1
 384 640 l 1
 384 768 l 1
 256 768 l 1
128 640 m 1
 128 512 l 1
 256 512 l 1
 256 640 l 1
 128 640 l 1
256 640 m 1
 256 512 l 1
 384 512 l 1
 384 640 l 1
 256 640 l 1
0 512 m 1
 0 384 l 1
 128 384 l 1
 128 512 l 1
 0 512 l 1
128 512 m 1
 128 384 l 1
 256 384 l 1
 256 512 l 1
 128 512 l 1
256 512 m 1
 256 384 l 1
 384 384 l 1
 384 512 l 1
 256 512 l 1
384 512 m 1
 384 384 l 1
 512 384 l 1
 512 512 l 1
 384 512 l 1
0 384 m 1
 0 256 l 1
 128 256 l 1
 128 384 l 1
 0 384 l 1
128 384 m 1
 128 256 l 1
 256 256 l 1
 256 384 l 1
 128 384 l 1
256 384 m 1
 256 256 l 1
 384 256 l 1
 384 384 l 1
 256 384 l 1
384 384 m 1
 384 256 l 1
 512 256 l 1
 512 384 l 1
 384 384 l 1
128 256 m 1
 128 128 l 1
 256 128 l 1
 256 256 l 1
 128 256 l 1
128 128 m 1
 128 0 l 1
 256 0 l 1
 256 128 l 1
 128 128 l 1
128 0 m 1
 128 -128 l 1
 256 -128 l 1
 256 0 l 1
 128 0 l 1
EndSplineSet
EndChar

StartChar: BOX
Encoding: 9544 9544 187
Width: 512
Flags: HW
LayerCount: 2
Fore
SplineSet
128 896 m 1
 128 768 l 1
 256 768 l 1
 256 896 l 1
 128 896 l 1
128 768 m 1
 128 640 l 1
 256 640 l 1
 256 768 l 1
 128 768 l 1
128 640 m 1
 128 512 l 1
 256 512 l 1
 256 640 l 1
 128 640 l 1
0 512 m 1
 0 384 l 1
 128 384 l 1
 128 512 l 1
 0 512 l 1
128 512 m 1
 128 384 l 1
 256 384 l 1
 256 512 l 1
 128 512 l 1
256 512 m 1
 256 384 l 1
 384 384 l 1
 384 512 l 1
 256 512 l 1
384 512 m 1
 384 384 l 1
 512 384 l 1
 512 512 l 1
 384 512 l 1
0 384 m 1
 0 256 l 1
 128 256 l 1
 128 384 l 1
 0 384 l 1
128 384 m 1
 128 256 l 1
 256 256 l 1
 256 384 l 1
 128 384 l 1
256 384 m 1
 256 256 l 1
 384 256 l 1
 384 384 l 1
 256 384 l 1
384 384 m 1
 384 256 l 1
 512 256 l 1
 512 384 l 1
 384 384 l 1
128 256 m 1
 128 128 l 1
 256 128 l 1
 256 256 l 1
 128 256 l 1
256 256 m 1
 256 128 l 1
 384 128 l 1
 384 256 l 1
 256 256 l 1
128 128 m 1
 128 0 l 1
 256 0 l 1
 256 128 l 1
 128 128 l 1
256 128 m 1
 256 0 l 1
 384 0 l 1
 384 128 l 1
 256 128 l 1
128 0 m 1
 128 -128 l 1
 256 -128 l 1
 256 0 l 1
 128 0 l 1
256 0 m 1
 256 -128 l 1
 384 -128 l 1
 384 0 l 1
 256 0 l 1
EndSplineSet
EndChar

StartChar: BOX
Encoding: 9545 9545 188
Width: 512
Flags: HW
LayerCount: 2
Fore
SplineSet
128 896 m 1
 128 768 l 1
 256 768 l 1
 256 896 l 1
 128 896 l 1
256 896 m 1
 256 768 l 1
 384 768 l 1
 384 896 l 1
 256 896 l 1
128 768 m 1
 128 640 l 1
 256 640 l 1
 256 768 l 1
 128 768 l 1
256 768 m 1
 256 640 l 1
 384 640 l 1
 384 768 l 1
 256 768 l 1
128 640 m 1
 128 512 l 1
 256 512 l 1
 256 640 l 1
 128 640 l 1
256 640 m 1
 256 512 l 1
 384 512 l 1
 384 640 l 1
 256 640 l 1
0 512 m 1
 0 384 l 1
 128 384 l 1
 128 512 l 1
 0 512 l 1
128 512 m 1
 128 384 l 1
 256 384 l 1
 256 512 l 1
 128 512 l 1
256 512 m 1
 256 384 l 1
 384 384 l 1
 384 512 l 1
 256 512 l 1
0 384 m 1
 0 256 l 1
 128 256 l 1
 128 384 l 1
 0 384 l 1
128 384 m 1
 128 256 l 1
 256 256 l 1
 256 384 l 1
 128 384 l 1
256 384 m 1
 256 256 l 1
 384 256 l 1
 384 384 l 1
 256 384 l 1
384 384 m 1
 384 256 l 1
 512 256 l 1
 512 384 l 1
 384 384 l 1
128 256 m 1
 128 128 l 1
 256 128 l 1
 256 256 l 1
 128 256 l 1
256 256 m 1
 256 128 l 1
 384 128 l 1
 384 256 l 1
 256 256 l 1
128 128 m 1
 128 0 l 1
 256 0 l 1
 256 128 l 1
 128 128 l 1
256 128 m 1
 256 0 l 1
 384 0 l 1
 384 128 l 1
 256 128 l 1
128 0 m 1
 128 -128 l 1
 256 -128 l 1
 256 0 l 1
 128 0 l 1
256 0 m 1
 256 -128 l 1
 384 -128 l 1
 384 0 l 1
 256 0 l 1
EndSplineSet
EndChar

StartChar: BOX
Encoding: 9546 9546 189
Width: 512
Flags: HW
LayerCount: 2
Fore
SplineSet
128 896 m 1
 128 768 l 1
 256 768 l 1
 256 896 l 1
 128 896 l 1
256 896 m 1
 256 768 l 1
 384 768 l 1
 384 896 l 1
 256 896 l 1
128 768 m 1
 128 640 l 1
 256 640 l 1
 256 768 l 1
 128 768 l 1
256 768 m 1
 256 640 l 1
 384 640 l 1
 384 768 l 1
 256 768 l 1
128 640 m 1
 128 512 l 1
 256 512 l 1
 256 640 l 1
 128 640 l 1
256 640 m 1
 256 512 l 1
 384 512 l 1
 384 640 l 1
 256 640 l 1
128 512 m 1
 128 384 l 1
 256 384 l 1
 256 512 l 1
 128 512 l 1
256 512 m 1
 256 384 l 1
 384 384 l 1
 384 512 l 1
 256 512 l 1
384 512 m 1
 384 384 l 1
 512 384 l 1
 512 512 l 1
 384 512 l 1
0 384 m 1
 0 256 l 1
 128 256 l 1
 128 384 l 1
 0 384 l 1
128 384 m 1
 128 256 l 1
 256 256 l 1
 256 384 l 1
 128 384 l 1
256 384 m 1
 256 256 l 1
 384 256 l 1
 384 384 l 1
 256 384 l 1
384 384 m 1
 384 256 l 1
 512 256 l 1
 512 384 l 1
 384 384 l 1
128 256 m 1
 128 128 l 1
 256 128 l 1
 256 256 l 1
 128 256 l 1
256 256 m 1
 256 128 l 1
 384 128 l 1
 384 256 l 1
 256 256 l 1
128 128 m 1
 128 0 l 1
 256 0 l 1
 256 128 l 1
 128 128 l 1
256 128 m 1
 256 0 l 1
 384 0 l 1
 384 128 l 1
 256 128 l 1
128 0 m 1
 128 -128 l 1
 256 -128 l 1
 256 0 l 1
 128 0 l 1
256 0 m 1
 256 -128 l 1
 384 -128 l 1
 384 0 l 1
 256 0 l 1
EndSplineSet
EndChar

StartChar: BOX
Encoding: 9547 9547 190
Width: 512
Flags: HW
LayerCount: 2
Fore
SplineSet
128 896 m 1
 128 768 l 1
 256 768 l 1
 256 896 l 1
 128 896 l 1
256 896 m 1
 256 768 l 1
 384 768 l 1
 384 896 l 1
 256 896 l 1
128 768 m 1
 128 640 l 1
 256 640 l 1
 256 768 l 1
 128 768 l 1
256 768 m 1
 256 640 l 1
 384 640 l 1
 384 768 l 1
 256 768 l 1
128 640 m 1
 128 512 l 1
 256 512 l 1
 256 640 l 1
 128 640 l 1
256 640 m 1
 256 512 l 1
 384 512 l 1
 384 640 l 1
 256 640 l 1
0 512 m 1
 0 384 l 1
 128 384 l 1
 128 512 l 1
 0 512 l 1
128 512 m 1
 128 384 l 1
 256 384 l 1
 256 512 l 1
 128 512 l 1
256 512 m 1
 256 384 l 1
 384 384 l 1
 384 512 l 1
 256 512 l 1
384 512 m 1
 384 384 l 1
 512 384 l 1
 512 512 l 1
 384 512 l 1
0 384 m 1
 0 256 l 1
 128 256 l 1
 128 384 l 1
 0 384 l 1
128 384 m 1
 128 256 l 1
 256 256 l 1
 256 384 l 1
 128 384 l 1
256 384 m 1
 256 256 l 1
 384 256 l 1
 384 384 l 1
 256 384 l 1
384 384 m 1
 384 256 l 1
 512 256 l 1
 512 384 l 1
 384 384 l 1
128 256 m 1
 128 128 l 1
 256 128 l 1
 256 256 l 1
 128 256 l 1
256 256 m 1
 256 128 l 1
 384 128 l 1
 384 256 l 1
 256 256 l 1
128 128 m 1
 128 0 l 1
 256 0 l 1
 256 128 l 1
 128 128 l 1
256 128 m 1
 256 0 l 1
 384 0 l 1
 384 128 l 1
 256 128 l 1
128 0 m 1
 128 -128 l 1
 256 -128 l 1
 256 0 l 1
 128 0 l 1
256 0 m 1
 256 -128 l 1
 384 -128 l 1
 384 0 l 1
 256 0 l 1
EndSplineSet
EndChar

StartChar: BOX
Encoding: 9548 9548 191
Width: 512
Flags: HW
LayerCount: 2
Fore
SplineSet
0 384 m 1
 0 256 l 1
 128 256 l 1
 128 384 l 1
 0 384 l 1
128 384 m 1
 128 256 l 1
 256 256 l 1
 256 384 l 1
 128 384 l 1
384 384 m 1
 384 256 l 1
 512 256 l 1
 512 384 l 1
 384 384 l 1
EndSplineSet
EndChar

StartChar: BOX
Encoding: 9549 9549 192
Width: 512
Flags: HW
LayerCount: 2
Fore
SplineSet
0 512 m 1
 0 384 l 1
 128 384 l 1
 128 512 l 1
 0 512 l 1
128 512 m 1
 128 384 l 1
 256 384 l 1
 256 512 l 1
 128 512 l 1
384 512 m 1
 384 384 l 1
 512 384 l 1
 512 512 l 1
 384 512 l 1
0 384 m 1
 0 256 l 1
 128 256 l 1
 128 384 l 1
 0 384 l 1
128 384 m 1
 128 256 l 1
 256 256 l 1
 256 384 l 1
 128 384 l 1
384 384 m 1
 384 256 l 1
 512 256 l 1
 512 384 l 1
 384 384 l 1
EndSplineSet
EndChar

StartChar: BOX
Encoding: 9550 9550 193
Width: 512
Flags: HW
LayerCount: 2
Fore
SplineSet
128 896 m 1
 128 768 l 1
 256 768 l 1
 256 896 l 1
 128 896 l 1
128 768 m 1
 128 640 l 1
 256 640 l 1
 256 768 l 1
 128 768 l 1
128 640 m 1
 128 512 l 1
 256 512 l 1
 256 640 l 1
 128 640 l 1
128 384 m 1
 128 256 l 1
 256 256 l 1
 256 384 l 1
 128 384 l 1
128 256 m 1
 128 128 l 1
 256 128 l 1
 256 256 l 1
 128 256 l 1
128 128 m 1
 128 0 l 1
 256 0 l 1
 256 128 l 1
 128 128 l 1
128 0 m 1
 128 -128 l 1
 256 -128 l 1
 256 0 l 1
 128 0 l 1
EndSplineSet
EndChar

StartChar: BOX
Encoding: 9551 9551 194
Width: 512
Flags: HW
LayerCount: 2
Fore
SplineSet
128 896 m 1
 128 768 l 1
 256 768 l 1
 256 896 l 1
 128 896 l 1
256 896 m 1
 256 768 l 1
 384 768 l 1
 384 896 l 1
 256 896 l 1
128 768 m 1
 128 640 l 1
 256 640 l 1
 256 768 l 1
 128 768 l 1
256 768 m 1
 256 640 l 1
 384 640 l 1
 384 768 l 1
 256 768 l 1
128 640 m 1
 128 512 l 1
 256 512 l 1
 256 640 l 1
 128 640 l 1
256 640 m 1
 256 512 l 1
 384 512 l 1
 384 640 l 1
 256 640 l 1
128 384 m 1
 128 256 l 1
 256 256 l 1
 256 384 l 1
 128 384 l 1
256 384 m 1
 256 256 l 1
 384 256 l 1
 384 384 l 1
 256 384 l 1
128 256 m 1
 128 128 l 1
 256 128 l 1
 256 256 l 1
 128 256 l 1
256 256 m 1
 256 128 l 1
 384 128 l 1
 384 256 l 1
 256 256 l 1
128 128 m 1
 128 0 l 1
 256 0 l 1
 256 128 l 1
 128 128 l 1
256 128 m 1
 256 0 l 1
 384 0 l 1
 384 128 l 1
 256 128 l 1
128 0 m 1
 128 -128 l 1
 256 -128 l 1
 256 0 l 1
 128 0 l 1
256 0 m 1
 256 -128 l 1
 384 -128 l 1
 384 0 l 1
 256 0 l 1
EndSplineSet
EndChar

StartChar: BOX
Encoding: 9552 9552 195
Width: 512
Flags: HW
LayerCount: 2
Fore
SplineSet
0 640 m 1
 0 512 l 1
 128 512 l 1
 128 640 l 1
 0 640 l 1
128 640 m 1
 128 512 l 1
 256 512 l 1
 256 640 l 1
 128 640 l 1
256 640 m 1
 256 512 l 1
 384 512 l 1
 384 640 l 1
 256 640 l 1
384 640 m 1
 384 512 l 1
 512 512 l 1
 512 640 l 1
 384 640 l 1
0 384 m 1
 0 256 l 1
 128 256 l 1
 128 384 l 1
 0 384 l 1
128 384 m 1
 128 256 l 1
 256 256 l 1
 256 384 l 1
 128 384 l 1
256 384 m 1
 256 256 l 1
 384 256 l 1
 384 384 l 1
 256 384 l 1
384 384 m 1
 384 256 l 1
 512 256 l 1
 512 384 l 1
 384 384 l 1
EndSplineSet
EndChar

StartChar: BOX
Encoding: 9553 9553 196
Width: 512
Flags: HW
LayerCount: 2
Fore
SplineSet
128 896 m 1
 128 768 l 1
 256 768 l 1
 256 896 l 1
 128 896 l 1
384 896 m 1
 384 768 l 1
 512 768 l 1
 512 896 l 1
 384 896 l 1
128 768 m 1
 128 640 l 1
 256 640 l 1
 256 768 l 1
 128 768 l 1
384 768 m 1
 384 640 l 1
 512 640 l 1
 512 768 l 1
 384 768 l 1
128 640 m 1
 128 512 l 1
 256 512 l 1
 256 640 l 1
 128 640 l 1
384 640 m 1
 384 512 l 1
 512 512 l 1
 512 640 l 1
 384 640 l 1
128 512 m 1
 128 384 l 1
 256 384 l 1
 256 512 l 1
 128 512 l 1
384 512 m 1
 384 384 l 1
 512 384 l 1
 512 512 l 1
 384 512 l 1
128 384 m 1
 128 256 l 1
 256 256 l 1
 256 384 l 1
 128 384 l 1
384 384 m 1
 384 256 l 1
 512 256 l 1
 512 384 l 1
 384 384 l 1
128 256 m 1
 128 128 l 1
 256 128 l 1
 256 256 l 1
 128 256 l 1
384 256 m 1
 384 128 l 1
 512 128 l 1
 512 256 l 1
 384 256 l 1
128 128 m 1
 128 0 l 1
 256 0 l 1
 256 128 l 1
 128 128 l 1
384 128 m 1
 384 0 l 1
 512 0 l 1
 512 128 l 1
 384 128 l 1
128 0 m 1
 128 -128 l 1
 256 -128 l 1
 256 0 l 1
 128 0 l 1
384 0 m 1
 384 -128 l 1
 512 -128 l 1
 512 0 l 1
 384 0 l 1
EndSplineSet
EndChar

StartChar: BOX
Encoding: 9554 9554 197
Width: 512
Flags: HW
LayerCount: 2
Fore
SplineSet
128 640 m 1
 128 512 l 1
 256 512 l 1
 256 640 l 1
 128 640 l 1
256 640 m 1
 256 512 l 1
 384 512 l 1
 384 640 l 1
 256 640 l 1
384 640 m 1
 384 512 l 1
 512 512 l 1
 512 640 l 1
 384 640 l 1
128 512 m 1
 128 384 l 1
 256 384 l 1
 256 512 l 1
 128 512 l 1
128 384 m 1
 128 256 l 1
 256 256 l 1
 256 384 l 1
 128 384 l 1
256 384 m 1
 256 256 l 1
 384 256 l 1
 384 384 l 1
 256 384 l 1
384 384 m 1
 384 256 l 1
 512 256 l 1
 512 384 l 1
 384 384 l 1
128 256 m 1
 128 128 l 1
 256 128 l 1
 256 256 l 1
 128 256 l 1
128 128 m 1
 128 0 l 1
 256 0 l 1
 256 128 l 1
 128 128 l 1
128 0 m 1
 128 -128 l 1
 256 -128 l 1
 256 0 l 1
 128 0 l 1
EndSplineSet
EndChar

StartChar: BOX
Encoding: 9555 9555 198
Width: 512
Flags: HW
LayerCount: 2
Fore
SplineSet
128 384 m 1
 128 256 l 1
 256 256 l 1
 256 384 l 1
 128 384 l 1
256 384 m 1
 256 256 l 1
 384 256 l 1
 384 384 l 1
 256 384 l 1
384 384 m 1
 384 256 l 1
 512 256 l 1
 512 384 l 1
 384 384 l 1
128 256 m 1
 128 128 l 1
 256 128 l 1
 256 256 l 1
 128 256 l 1
384 256 m 1
 384 128 l 1
 512 128 l 1
 512 256 l 1
 384 256 l 1
128 128 m 1
 128 0 l 1
 256 0 l 1
 256 128 l 1
 128 128 l 1
384 128 m 1
 384 0 l 1
 512 0 l 1
 512 128 l 1
 384 128 l 1
128 0 m 1
 128 -128 l 1
 256 -128 l 1
 256 0 l 1
 128 0 l 1
384 0 m 1
 384 -128 l 1
 512 -128 l 1
 512 0 l 1
 384 0 l 1
EndSplineSet
EndChar

StartChar: BOX
Encoding: 9556 9556 199
Width: 512
Flags: HW
LayerCount: 2
Fore
SplineSet
128 640 m 1
 128 512 l 1
 256 512 l 1
 256 640 l 1
 128 640 l 1
256 640 m 1
 256 512 l 1
 384 512 l 1
 384 640 l 1
 256 640 l 1
384 640 m 1
 384 512 l 1
 512 512 l 1
 512 640 l 1
 384 640 l 1
128 512 m 1
 128 384 l 1
 256 384 l 1
 256 512 l 1
 128 512 l 1
128 384 m 1
 128 256 l 1
 256 256 l 1
 256 384 l 1
 128 384 l 1
384 384 m 1
 384 256 l 1
 512 256 l 1
 512 384 l 1
 384 384 l 1
128 256 m 1
 128 128 l 1
 256 128 l 1
 256 256 l 1
 128 256 l 1
384 256 m 1
 384 128 l 1
 512 128 l 1
 512 256 l 1
 384 256 l 1
128 128 m 1
 128 0 l 1
 256 0 l 1
 256 128 l 1
 128 128 l 1
384 128 m 1
 384 0 l 1
 512 0 l 1
 512 128 l 1
 384 128 l 1
128 0 m 1
 128 -128 l 1
 256 -128 l 1
 256 0 l 1
 128 0 l 1
384 0 m 1
 384 -128 l 1
 512 -128 l 1
 512 0 l 1
 384 0 l 1
EndSplineSet
EndChar

StartChar: BOX
Encoding: 9557 9557 200
Width: 512
Flags: HW
LayerCount: 2
Fore
SplineSet
0 640 m 1
 0 512 l 1
 128 512 l 1
 128 640 l 1
 0 640 l 1
128 640 m 1
 128 512 l 1
 256 512 l 1
 256 640 l 1
 128 640 l 1
128 512 m 1
 128 384 l 1
 256 384 l 1
 256 512 l 1
 128 512 l 1
0 384 m 1
 0 256 l 1
 128 256 l 1
 128 384 l 1
 0 384 l 1
128 384 m 1
 128 256 l 1
 256 256 l 1
 256 384 l 1
 128 384 l 1
128 256 m 1
 128 128 l 1
 256 128 l 1
 256 256 l 1
 128 256 l 1
128 128 m 1
 128 0 l 1
 256 0 l 1
 256 128 l 1
 128 128 l 1
128 0 m 1
 128 -128 l 1
 256 -128 l 1
 256 0 l 1
 128 0 l 1
EndSplineSet
EndChar

StartChar: BOX
Encoding: 9558 9558 201
Width: 512
Flags: HW
LayerCount: 2
Fore
SplineSet
0 384 m 1
 0 256 l 1
 128 256 l 1
 128 384 l 1
 0 384 l 1
128 384 m 1
 128 256 l 1
 256 256 l 1
 256 384 l 1
 128 384 l 1
256 384 m 1
 256 256 l 1
 384 256 l 1
 384 384 l 1
 256 384 l 1
384 384 m 1
 384 256 l 1
 512 256 l 1
 512 384 l 1
 384 384 l 1
128 256 m 1
 128 128 l 1
 256 128 l 1
 256 256 l 1
 128 256 l 1
384 256 m 1
 384 128 l 1
 512 128 l 1
 512 256 l 1
 384 256 l 1
128 128 m 1
 128 0 l 1
 256 0 l 1
 256 128 l 1
 128 128 l 1
384 128 m 1
 384 0 l 1
 512 0 l 1
 512 128 l 1
 384 128 l 1
128 0 m 1
 128 -128 l 1
 256 -128 l 1
 256 0 l 1
 128 0 l 1
384 0 m 1
 384 -128 l 1
 512 -128 l 1
 512 0 l 1
 384 0 l 1
EndSplineSet
EndChar

StartChar: BOX
Encoding: 9559 9559 202
Width: 512
Flags: HW
LayerCount: 2
Fore
SplineSet
0 640 m 1
 0 512 l 1
 128 512 l 1
 128 640 l 1
 0 640 l 1
128 640 m 1
 128 512 l 1
 256 512 l 1
 256 640 l 1
 128 640 l 1
256 640 m 1
 256 512 l 1
 384 512 l 1
 384 640 l 1
 256 640 l 1
384 640 m 1
 384 512 l 1
 512 512 l 1
 512 640 l 1
 384 640 l 1
384 512 m 1
 384 384 l 1
 512 384 l 1
 512 512 l 1
 384 512 l 1
0 384 m 1
 0 256 l 1
 128 256 l 1
 128 384 l 1
 0 384 l 1
128 384 m 1
 128 256 l 1
 256 256 l 1
 256 384 l 1
 128 384 l 1
384 384 m 1
 384 256 l 1
 512 256 l 1
 512 384 l 1
 384 384 l 1
128 256 m 1
 128 128 l 1
 256 128 l 1
 256 256 l 1
 128 256 l 1
384 256 m 1
 384 128 l 1
 512 128 l 1
 512 256 l 1
 384 256 l 1
128 128 m 1
 128 0 l 1
 256 0 l 1
 256 128 l 1
 128 128 l 1
384 128 m 1
 384 0 l 1
 512 0 l 1
 512 128 l 1
 384 128 l 1
128 0 m 1
 128 -128 l 1
 256 -128 l 1
 256 0 l 1
 128 0 l 1
384 0 m 1
 384 -128 l 1
 512 -128 l 1
 512 0 l 1
 384 0 l 1
EndSplineSet
EndChar

StartChar: BOX
Encoding: 9560 9560 203
Width: 512
Flags: HW
LayerCount: 2
Fore
SplineSet
128 896 m 1
 128 768 l 1
 256 768 l 1
 256 896 l 1
 128 896 l 1
128 768 m 1
 128 640 l 1
 256 640 l 1
 256 768 l 1
 128 768 l 1
128 640 m 1
 128 512 l 1
 256 512 l 1
 256 640 l 1
 128 640 l 1
256 640 m 1
 256 512 l 1
 384 512 l 1
 384 640 l 1
 256 640 l 1
384 640 m 1
 384 512 l 1
 512 512 l 1
 512 640 l 1
 384 640 l 1
128 512 m 1
 128 384 l 1
 256 384 l 1
 256 512 l 1
 128 512 l 1
128 384 m 1
 128 256 l 1
 256 256 l 1
 256 384 l 1
 128 384 l 1
256 384 m 1
 256 256 l 1
 384 256 l 1
 384 384 l 1
 256 384 l 1
384 384 m 1
 384 256 l 1
 512 256 l 1
 512 384 l 1
 384 384 l 1
EndSplineSet
EndChar

StartChar: BOX
Encoding: 9561 9561 204
Width: 512
Flags: HW
LayerCount: 2
Fore
SplineSet
128 896 m 1
 128 768 l 1
 256 768 l 1
 256 896 l 1
 128 896 l 1
384 896 m 1
 384 768 l 1
 512 768 l 1
 512 896 l 1
 384 896 l 1
128 768 m 1
 128 640 l 1
 256 640 l 1
 256 768 l 1
 128 768 l 1
384 768 m 1
 384 640 l 1
 512 640 l 1
 512 768 l 1
 384 768 l 1
128 640 m 1
 128 512 l 1
 256 512 l 1
 256 640 l 1
 128 640 l 1
384 640 m 1
 384 512 l 1
 512 512 l 1
 512 640 l 1
 384 640 l 1
128 512 m 1
 128 384 l 1
 256 384 l 1
 256 512 l 1
 128 512 l 1
384 512 m 1
 384 384 l 1
 512 384 l 1
 512 512 l 1
 384 512 l 1
128 384 m 1
 128 256 l 1
 256 256 l 1
 256 384 l 1
 128 384 l 1
256 384 m 1
 256 256 l 1
 384 256 l 1
 384 384 l 1
 256 384 l 1
384 384 m 1
 384 256 l 1
 512 256 l 1
 512 384 l 1
 384 384 l 1
EndSplineSet
EndChar

StartChar: BOX
Encoding: 9562 9562 205
Width: 512
Flags: HW
LayerCount: 2
Fore
SplineSet
128 896 m 1
 128 768 l 1
 256 768 l 1
 256 896 l 1
 128 896 l 1
384 896 m 1
 384 768 l 1
 512 768 l 1
 512 896 l 1
 384 896 l 1
128 768 m 1
 128 640 l 1
 256 640 l 1
 256 768 l 1
 128 768 l 1
384 768 m 1
 384 640 l 1
 512 640 l 1
 512 768 l 1
 384 768 l 1
128 640 m 1
 128 512 l 1
 256 512 l 1
 256 640 l 1
 128 640 l 1
384 640 m 1
 384 512 l 1
 512 512 l 1
 512 640 l 1
 384 640 l 1
128 512 m 1
 128 384 l 1
 256 384 l 1
 256 512 l 1
 128 512 l 1
128 384 m 1
 128 256 l 1
 256 256 l 1
 256 384 l 1
 128 384 l 1
256 384 m 1
 256 256 l 1
 384 256 l 1
 384 384 l 1
 256 384 l 1
384 384 m 1
 384 256 l 1
 512 256 l 1
 512 384 l 1
 384 384 l 1
EndSplineSet
EndChar

StartChar: BOX
Encoding: 9563 9563 206
Width: 512
Flags: HW
LayerCount: 2
Fore
SplineSet
128 896 m 1
 128 768 l 1
 256 768 l 1
 256 896 l 1
 128 896 l 1
128 768 m 1
 128 640 l 1
 256 640 l 1
 256 768 l 1
 128 768 l 1
0 640 m 1
 0 512 l 1
 128 512 l 1
 128 640 l 1
 0 640 l 1
128 640 m 1
 128 512 l 1
 256 512 l 1
 256 640 l 1
 128 640 l 1
128 512 m 1
 128 384 l 1
 256 384 l 1
 256 512 l 1
 128 512 l 1
0 384 m 1
 0 256 l 1
 128 256 l 1
 128 384 l 1
 0 384 l 1
128 384 m 1
 128 256 l 1
 256 256 l 1
 256 384 l 1
 128 384 l 1
EndSplineSet
EndChar

StartChar: BOX
Encoding: 9564 9564 207
Width: 512
Flags: HW
LayerCount: 2
Fore
SplineSet
128 896 m 1
 128 768 l 1
 256 768 l 1
 256 896 l 1
 128 896 l 1
384 896 m 1
 384 768 l 1
 512 768 l 1
 512 896 l 1
 384 896 l 1
128 768 m 1
 128 640 l 1
 256 640 l 1
 256 768 l 1
 128 768 l 1
384 768 m 1
 384 640 l 1
 512 640 l 1
 512 768 l 1
 384 768 l 1
128 640 m 1
 128 512 l 1
 256 512 l 1
 256 640 l 1
 128 640 l 1
384 640 m 1
 384 512 l 1
 512 512 l 1
 512 640 l 1
 384 640 l 1
128 512 m 1
 128 384 l 1
 256 384 l 1
 256 512 l 1
 128 512 l 1
384 512 m 1
 384 384 l 1
 512 384 l 1
 512 512 l 1
 384 512 l 1
0 384 m 1
 0 256 l 1
 128 256 l 1
 128 384 l 1
 0 384 l 1
128 384 m 1
 128 256 l 1
 256 256 l 1
 256 384 l 1
 128 384 l 1
256 384 m 1
 256 256 l 1
 384 256 l 1
 384 384 l 1
 256 384 l 1
384 384 m 1
 384 256 l 1
 512 256 l 1
 512 384 l 1
 384 384 l 1
EndSplineSet
EndChar

StartChar: BOX
Encoding: 9565 9565 208
Width: 512
Flags: HW
LayerCount: 2
Fore
SplineSet
128 896 m 1
 128 768 l 1
 256 768 l 1
 256 896 l 1
 128 896 l 1
384 896 m 1
 384 768 l 1
 512 768 l 1
 512 896 l 1
 384 896 l 1
128 768 m 1
 128 640 l 1
 256 640 l 1
 256 768 l 1
 128 768 l 1
384 768 m 1
 384 640 l 1
 512 640 l 1
 512 768 l 1
 384 768 l 1
0 640 m 1
 0 512 l 1
 128 512 l 1
 128 640 l 1
 0 640 l 1
128 640 m 1
 128 512 l 1
 256 512 l 1
 256 640 l 1
 128 640 l 1
384 640 m 1
 384 512 l 1
 512 512 l 1
 512 640 l 1
 384 640 l 1
384 512 m 1
 384 384 l 1
 512 384 l 1
 512 512 l 1
 384 512 l 1
0 384 m 1
 0 256 l 1
 128 256 l 1
 128 384 l 1
 0 384 l 1
128 384 m 1
 128 256 l 1
 256 256 l 1
 256 384 l 1
 128 384 l 1
256 384 m 1
 256 256 l 1
 384 256 l 1
 384 384 l 1
 256 384 l 1
384 384 m 1
 384 256 l 1
 512 256 l 1
 512 384 l 1
 384 384 l 1
EndSplineSet
EndChar

StartChar: BOX
Encoding: 9566 9566 209
Width: 512
Flags: HW
LayerCount: 2
Fore
SplineSet
128 896 m 1
 128 768 l 1
 256 768 l 1
 256 896 l 1
 128 896 l 1
128 768 m 1
 128 640 l 1
 256 640 l 1
 256 768 l 1
 128 768 l 1
128 640 m 1
 128 512 l 1
 256 512 l 1
 256 640 l 1
 128 640 l 1
256 640 m 1
 256 512 l 1
 384 512 l 1
 384 640 l 1
 256 640 l 1
384 640 m 1
 384 512 l 1
 512 512 l 1
 512 640 l 1
 384 640 l 1
128 512 m 1
 128 384 l 1
 256 384 l 1
 256 512 l 1
 128 512 l 1
128 384 m 1
 128 256 l 1
 256 256 l 1
 256 384 l 1
 128 384 l 1
256 384 m 1
 256 256 l 1
 384 256 l 1
 384 384 l 1
 256 384 l 1
384 384 m 1
 384 256 l 1
 512 256 l 1
 512 384 l 1
 384 384 l 1
128 256 m 1
 128 128 l 1
 256 128 l 1
 256 256 l 1
 128 256 l 1
128 128 m 1
 128 0 l 1
 256 0 l 1
 256 128 l 1
 128 128 l 1
128 0 m 1
 128 -128 l 1
 256 -128 l 1
 256 0 l 1
 128 0 l 1
EndSplineSet
EndChar

StartChar: BOX
Encoding: 9567 9567 210
Width: 512
Flags: HW
LayerCount: 2
Fore
SplineSet
128 896 m 1
 128 768 l 1
 256 768 l 1
 256 896 l 1
 128 896 l 1
384 896 m 1
 384 768 l 1
 512 768 l 1
 512 896 l 1
 384 896 l 1
128 768 m 1
 128 640 l 1
 256 640 l 1
 256 768 l 1
 128 768 l 1
384 768 m 1
 384 640 l 1
 512 640 l 1
 512 768 l 1
 384 768 l 1
128 640 m 1
 128 512 l 1
 256 512 l 1
 256 640 l 1
 128 640 l 1
384 640 m 1
 384 512 l 1
 512 512 l 1
 512 640 l 1
 384 640 l 1
128 512 m 1
 128 384 l 1
 256 384 l 1
 256 512 l 1
 128 512 l 1
384 512 m 1
 384 384 l 1
 512 384 l 1
 512 512 l 1
 384 512 l 1
128 384 m 1
 128 256 l 1
 256 256 l 1
 256 384 l 1
 128 384 l 1
384 384 m 1
 384 256 l 1
 512 256 l 1
 512 384 l 1
 384 384 l 1
128 256 m 1
 128 128 l 1
 256 128 l 1
 256 256 l 1
 128 256 l 1
384 256 m 1
 384 128 l 1
 512 128 l 1
 512 256 l 1
 384 256 l 1
128 128 m 1
 128 0 l 1
 256 0 l 1
 256 128 l 1
 128 128 l 1
384 128 m 1
 384 0 l 1
 512 0 l 1
 512 128 l 1
 384 128 l 1
128 0 m 1
 128 -128 l 1
 256 -128 l 1
 256 0 l 1
 128 0 l 1
384 0 m 1
 384 -128 l 1
 512 -128 l 1
 512 0 l 1
 384 0 l 1
EndSplineSet
EndChar

StartChar: BOX
Encoding: 9568 9568 211
Width: 512
Flags: HW
LayerCount: 2
Fore
SplineSet
128 896 m 1
 128 768 l 1
 256 768 l 1
 256 896 l 1
 128 896 l 1
384 896 m 1
 384 768 l 1
 512 768 l 1
 512 896 l 1
 384 896 l 1
128 768 m 1
 128 640 l 1
 256 640 l 1
 256 768 l 1
 128 768 l 1
384 768 m 1
 384 640 l 1
 512 640 l 1
 512 768 l 1
 384 768 l 1
128 640 m 1
 128 512 l 1
 256 512 l 1
 256 640 l 1
 128 640 l 1
384 640 m 1
 384 512 l 1
 512 512 l 1
 512 640 l 1
 384 640 l 1
128 512 m 1
 128 384 l 1
 256 384 l 1
 256 512 l 1
 128 512 l 1
128 384 m 1
 128 256 l 1
 256 256 l 1
 256 384 l 1
 128 384 l 1
384 384 m 1
 384 256 l 1
 512 256 l 1
 512 384 l 1
 384 384 l 1
128 256 m 1
 128 128 l 1
 256 128 l 1
 256 256 l 1
 128 256 l 1
384 256 m 1
 384 128 l 1
 512 128 l 1
 512 256 l 1
 384 256 l 1
128 128 m 1
 128 0 l 1
 256 0 l 1
 256 128 l 1
 128 128 l 1
384 128 m 1
 384 0 l 1
 512 0 l 1
 512 128 l 1
 384 128 l 1
128 0 m 1
 128 -128 l 1
 256 -128 l 1
 256 0 l 1
 128 0 l 1
384 0 m 1
 384 -128 l 1
 512 -128 l 1
 512 0 l 1
 384 0 l 1
EndSplineSet
EndChar

StartChar: BOX
Encoding: 9569 9569 212
Width: 512
Flags: HW
LayerCount: 2
Fore
SplineSet
128 896 m 1
 128 768 l 1
 256 768 l 1
 256 896 l 1
 128 896 l 1
128 768 m 1
 128 640 l 1
 256 640 l 1
 256 768 l 1
 128 768 l 1
0 640 m 1
 0 512 l 1
 128 512 l 1
 128 640 l 1
 0 640 l 1
128 640 m 1
 128 512 l 1
 256 512 l 1
 256 640 l 1
 128 640 l 1
128 512 m 1
 128 384 l 1
 256 384 l 1
 256 512 l 1
 128 512 l 1
0 384 m 1
 0 256 l 1
 128 256 l 1
 128 384 l 1
 0 384 l 1
128 384 m 1
 128 256 l 1
 256 256 l 1
 256 384 l 1
 128 384 l 1
128 256 m 1
 128 128 l 1
 256 128 l 1
 256 256 l 1
 128 256 l 1
128 128 m 1
 128 0 l 1
 256 0 l 1
 256 128 l 1
 128 128 l 1
128 0 m 1
 128 -128 l 1
 256 -128 l 1
 256 0 l 1
 128 0 l 1
EndSplineSet
EndChar

StartChar: BOX
Encoding: 9570 9570 213
Width: 512
Flags: HW
LayerCount: 2
Fore
SplineSet
128 896 m 1
 128 768 l 1
 256 768 l 1
 256 896 l 1
 128 896 l 1
384 896 m 1
 384 768 l 1
 512 768 l 1
 512 896 l 1
 384 896 l 1
128 768 m 1
 128 640 l 1
 256 640 l 1
 256 768 l 1
 128 768 l 1
384 768 m 1
 384 640 l 1
 512 640 l 1
 512 768 l 1
 384 768 l 1
128 640 m 1
 128 512 l 1
 256 512 l 1
 256 640 l 1
 128 640 l 1
384 640 m 1
 384 512 l 1
 512 512 l 1
 512 640 l 1
 384 640 l 1
128 512 m 1
 128 384 l 1
 256 384 l 1
 256 512 l 1
 128 512 l 1
384 512 m 1
 384 384 l 1
 512 384 l 1
 512 512 l 1
 384 512 l 1
0 384 m 1
 0 256 l 1
 128 256 l 1
 128 384 l 1
 0 384 l 1
128 384 m 1
 128 256 l 1
 256 256 l 1
 256 384 l 1
 128 384 l 1
384 384 m 1
 384 256 l 1
 512 256 l 1
 512 384 l 1
 384 384 l 1
128 256 m 1
 128 128 l 1
 256 128 l 1
 256 256 l 1
 128 256 l 1
384 256 m 1
 384 128 l 1
 512 128 l 1
 512 256 l 1
 384 256 l 1
128 128 m 1
 128 0 l 1
 256 0 l 1
 256 128 l 1
 128 128 l 1
384 128 m 1
 384 0 l 1
 512 0 l 1
 512 128 l 1
 384 128 l 1
128 0 m 1
 128 -128 l 1
 256 -128 l 1
 256 0 l 1
 128 0 l 1
384 0 m 1
 384 -128 l 1
 512 -128 l 1
 512 0 l 1
 384 0 l 1
EndSplineSet
EndChar

StartChar: BOX
Encoding: 9571 9571 214
Width: 512
Flags: HW
LayerCount: 2
Fore
SplineSet
128 896 m 1
 128 768 l 1
 256 768 l 1
 256 896 l 1
 128 896 l 1
384 896 m 1
 384 768 l 1
 512 768 l 1
 512 896 l 1
 384 896 l 1
128 768 m 1
 128 640 l 1
 256 640 l 1
 256 768 l 1
 128 768 l 1
384 768 m 1
 384 640 l 1
 512 640 l 1
 512 768 l 1
 384 768 l 1
0 640 m 1
 0 512 l 1
 128 512 l 1
 128 640 l 1
 0 640 l 1
128 640 m 1
 128 512 l 1
 256 512 l 1
 256 640 l 1
 128 640 l 1
384 640 m 1
 384 512 l 1
 512 512 l 1
 512 640 l 1
 384 640 l 1
384 512 m 1
 384 384 l 1
 512 384 l 1
 512 512 l 1
 384 512 l 1
0 384 m 1
 0 256 l 1
 128 256 l 1
 128 384 l 1
 0 384 l 1
128 384 m 1
 128 256 l 1
 256 256 l 1
 256 384 l 1
 128 384 l 1
384 384 m 1
 384 256 l 1
 512 256 l 1
 512 384 l 1
 384 384 l 1
128 256 m 1
 128 128 l 1
 256 128 l 1
 256 256 l 1
 128 256 l 1
384 256 m 1
 384 128 l 1
 512 128 l 1
 512 256 l 1
 384 256 l 1
128 128 m 1
 128 0 l 1
 256 0 l 1
 256 128 l 1
 128 128 l 1
384 128 m 1
 384 0 l 1
 512 0 l 1
 512 128 l 1
 384 128 l 1
128 0 m 1
 128 -128 l 1
 256 -128 l 1
 256 0 l 1
 128 0 l 1
384 0 m 1
 384 -128 l 1
 512 -128 l 1
 512 0 l 1
 384 0 l 1
EndSplineSet
EndChar

StartChar: BOX
Encoding: 9572 9572 215
Width: 512
Flags: HW
LayerCount: 2
Fore
SplineSet
0 640 m 1
 0 512 l 1
 128 512 l 1
 128 640 l 1
 0 640 l 1
128 640 m 1
 128 512 l 1
 256 512 l 1
 256 640 l 1
 128 640 l 1
256 640 m 1
 256 512 l 1
 384 512 l 1
 384 640 l 1
 256 640 l 1
384 640 m 1
 384 512 l 1
 512 512 l 1
 512 640 l 1
 384 640 l 1
0 384 m 1
 0 256 l 1
 128 256 l 1
 128 384 l 1
 0 384 l 1
128 384 m 1
 128 256 l 1
 256 256 l 1
 256 384 l 1
 128 384 l 1
256 384 m 1
 256 256 l 1
 384 256 l 1
 384 384 l 1
 256 384 l 1
384 384 m 1
 384 256 l 1
 512 256 l 1
 512 384 l 1
 384 384 l 1
128 256 m 1
 128 128 l 1
 256 128 l 1
 256 256 l 1
 128 256 l 1
128 128 m 1
 128 0 l 1
 256 0 l 1
 256 128 l 1
 128 128 l 1
128 0 m 1
 128 -128 l 1
 256 -128 l 1
 256 0 l 1
 128 0 l 1
EndSplineSet
EndChar

StartChar: BOX
Encoding: 9573 9573 216
Width: 512
Flags: HW
LayerCount: 2
Fore
SplineSet
0 384 m 1
 0 256 l 1
 128 256 l 1
 128 384 l 1
 0 384 l 1
128 384 m 1
 128 256 l 1
 256 256 l 1
 256 384 l 1
 128 384 l 1
256 384 m 1
 256 256 l 1
 384 256 l 1
 384 384 l 1
 256 384 l 1
384 384 m 1
 384 256 l 1
 512 256 l 1
 512 384 l 1
 384 384 l 1
128 256 m 1
 128 128 l 1
 256 128 l 1
 256 256 l 1
 128 256 l 1
384 256 m 1
 384 128 l 1
 512 128 l 1
 512 256 l 1
 384 256 l 1
128 128 m 1
 128 0 l 1
 256 0 l 1
 256 128 l 1
 128 128 l 1
384 128 m 1
 384 0 l 1
 512 0 l 1
 512 128 l 1
 384 128 l 1
128 0 m 1
 128 -128 l 1
 256 -128 l 1
 256 0 l 1
 128 0 l 1
384 0 m 1
 384 -128 l 1
 512 -128 l 1
 512 0 l 1
 384 0 l 1
EndSplineSet
EndChar

StartChar: BOX
Encoding: 9574 9574 217
Width: 512
Flags: HW
LayerCount: 2
Fore
SplineSet
0 640 m 1
 0 512 l 1
 128 512 l 1
 128 640 l 1
 0 640 l 1
128 640 m 1
 128 512 l 1
 256 512 l 1
 256 640 l 1
 128 640 l 1
256 640 m 1
 256 512 l 1
 384 512 l 1
 384 640 l 1
 256 640 l 1
384 640 m 1
 384 512 l 1
 512 512 l 1
 512 640 l 1
 384 640 l 1
0 384 m 1
 0 256 l 1
 128 256 l 1
 128 384 l 1
 0 384 l 1
128 384 m 1
 128 256 l 1
 256 256 l 1
 256 384 l 1
 128 384 l 1
384 384 m 1
 384 256 l 1
 512 256 l 1
 512 384 l 1
 384 384 l 1
128 256 m 1
 128 128 l 1
 256 128 l 1
 256 256 l 1
 128 256 l 1
384 256 m 1
 384 128 l 1
 512 128 l 1
 512 256 l 1
 384 256 l 1
128 128 m 1
 128 0 l 1
 256 0 l 1
 256 128 l 1
 128 128 l 1
384 128 m 1
 384 0 l 1
 512 0 l 1
 512 128 l 1
 384 128 l 1
128 0 m 1
 128 -128 l 1
 256 -128 l 1
 256 0 l 1
 128 0 l 1
384 0 m 1
 384 -128 l 1
 512 -128 l 1
 512 0 l 1
 384 0 l 1
EndSplineSet
EndChar

StartChar: BOX
Encoding: 9575 9575 218
Width: 512
Flags: HW
LayerCount: 2
Fore
SplineSet
128 896 m 1
 128 768 l 1
 256 768 l 1
 256 896 l 1
 128 896 l 1
128 768 m 1
 128 640 l 1
 256 640 l 1
 256 768 l 1
 128 768 l 1
0 640 m 1
 0 512 l 1
 128 512 l 1
 128 640 l 1
 0 640 l 1
128 640 m 1
 128 512 l 1
 256 512 l 1
 256 640 l 1
 128 640 l 1
256 640 m 1
 256 512 l 1
 384 512 l 1
 384 640 l 1
 256 640 l 1
384 640 m 1
 384 512 l 1
 512 512 l 1
 512 640 l 1
 384 640 l 1
0 384 m 1
 0 256 l 1
 128 256 l 1
 128 384 l 1
 0 384 l 1
128 384 m 1
 128 256 l 1
 256 256 l 1
 256 384 l 1
 128 384 l 1
256 384 m 1
 256 256 l 1
 384 256 l 1
 384 384 l 1
 256 384 l 1
384 384 m 1
 384 256 l 1
 512 256 l 1
 512 384 l 1
 384 384 l 1
EndSplineSet
EndChar

StartChar: BOX
Encoding: 9576 9576 219
Width: 512
Flags: HW
LayerCount: 2
Fore
SplineSet
128 896 m 1
 128 768 l 1
 256 768 l 1
 256 896 l 1
 128 896 l 1
384 896 m 1
 384 768 l 1
 512 768 l 1
 512 896 l 1
 384 896 l 1
128 768 m 1
 128 640 l 1
 256 640 l 1
 256 768 l 1
 128 768 l 1
384 768 m 1
 384 640 l 1
 512 640 l 1
 512 768 l 1
 384 768 l 1
128 640 m 1
 128 512 l 1
 256 512 l 1
 256 640 l 1
 128 640 l 1
384 640 m 1
 384 512 l 1
 512 512 l 1
 512 640 l 1
 384 640 l 1
128 512 m 1
 128 384 l 1
 256 384 l 1
 256 512 l 1
 128 512 l 1
384 512 m 1
 384 384 l 1
 512 384 l 1
 512 512 l 1
 384 512 l 1
0 384 m 1
 0 256 l 1
 128 256 l 1
 128 384 l 1
 0 384 l 1
128 384 m 1
 128 256 l 1
 256 256 l 1
 256 384 l 1
 128 384 l 1
256 384 m 1
 256 256 l 1
 384 256 l 1
 384 384 l 1
 256 384 l 1
384 384 m 1
 384 256 l 1
 512 256 l 1
 512 384 l 1
 384 384 l 1
EndSplineSet
EndChar

StartChar: BOX
Encoding: 9577 9577 220
Width: 512
Flags: HW
LayerCount: 2
Fore
SplineSet
128 896 m 1
 128 768 l 1
 256 768 l 1
 256 896 l 1
 128 896 l 1
384 896 m 1
 384 768 l 1
 512 768 l 1
 512 896 l 1
 384 896 l 1
128 768 m 1
 128 640 l 1
 256 640 l 1
 256 768 l 1
 128 768 l 1
384 768 m 1
 384 640 l 1
 512 640 l 1
 512 768 l 1
 384 768 l 1
0 640 m 1
 0 512 l 1
 128 512 l 1
 128 640 l 1
 0 640 l 1
128 640 m 1
 128 512 l 1
 256 512 l 1
 256 640 l 1
 128 640 l 1
384 640 m 1
 384 512 l 1
 512 512 l 1
 512 640 l 1
 384 640 l 1
0 384 m 1
 0 256 l 1
 128 256 l 1
 128 384 l 1
 0 384 l 1
128 384 m 1
 128 256 l 1
 256 256 l 1
 256 384 l 1
 128 384 l 1
256 384 m 1
 256 256 l 1
 384 256 l 1
 384 384 l 1
 256 384 l 1
384 384 m 1
 384 256 l 1
 512 256 l 1
 512 384 l 1
 384 384 l 1
EndSplineSet
EndChar

StartChar: BOX
Encoding: 9578 9578 221
Width: 512
Flags: HW
LayerCount: 2
Fore
SplineSet
128 896 m 1
 128 768 l 1
 256 768 l 1
 256 896 l 1
 128 896 l 1
128 768 m 1
 128 640 l 1
 256 640 l 1
 256 768 l 1
 128 768 l 1
0 640 m 1
 0 512 l 1
 128 512 l 1
 128 640 l 1
 0 640 l 1
128 640 m 1
 128 512 l 1
 256 512 l 1
 256 640 l 1
 128 640 l 1
256 640 m 1
 256 512 l 1
 384 512 l 1
 384 640 l 1
 256 640 l 1
384 640 m 1
 384 512 l 1
 512 512 l 1
 512 640 l 1
 384 640 l 1
128 512 m 1
 128 384 l 1
 256 384 l 1
 256 512 l 1
 128 512 l 1
0 384 m 1
 0 256 l 1
 128 256 l 1
 128 384 l 1
 0 384 l 1
128 384 m 1
 128 256 l 1
 256 256 l 1
 256 384 l 1
 128 384 l 1
256 384 m 1
 256 256 l 1
 384 256 l 1
 384 384 l 1
 256 384 l 1
384 384 m 1
 384 256 l 1
 512 256 l 1
 512 384 l 1
 384 384 l 1
128 256 m 1
 128 128 l 1
 256 128 l 1
 256 256 l 1
 128 256 l 1
128 128 m 1
 128 0 l 1
 256 0 l 1
 256 128 l 1
 128 128 l 1
128 0 m 1
 128 -128 l 1
 256 -128 l 1
 256 0 l 1
 128 0 l 1
EndSplineSet
EndChar

StartChar: BOX
Encoding: 9579 9579 222
Width: 512
Flags: HW
LayerCount: 2
Fore
SplineSet
128 896 m 1
 128 768 l 1
 256 768 l 1
 256 896 l 1
 128 896 l 1
384 896 m 1
 384 768 l 1
 512 768 l 1
 512 896 l 1
 384 896 l 1
128 768 m 1
 128 640 l 1
 256 640 l 1
 256 768 l 1
 128 768 l 1
384 768 m 1
 384 640 l 1
 512 640 l 1
 512 768 l 1
 384 768 l 1
128 640 m 1
 128 512 l 1
 256 512 l 1
 256 640 l 1
 128 640 l 1
384 640 m 1
 384 512 l 1
 512 512 l 1
 512 640 l 1
 384 640 l 1
128 512 m 1
 128 384 l 1
 256 384 l 1
 256 512 l 1
 128 512 l 1
384 512 m 1
 384 384 l 1
 512 384 l 1
 512 512 l 1
 384 512 l 1
0 384 m 1
 0 256 l 1
 128 256 l 1
 128 384 l 1
 0 384 l 1
128 384 m 1
 128 256 l 1
 256 256 l 1
 256 384 l 1
 128 384 l 1
256 384 m 1
 256 256 l 1
 384 256 l 1
 384 384 l 1
 256 384 l 1
384 384 m 1
 384 256 l 1
 512 256 l 1
 512 384 l 1
 384 384 l 1
128 256 m 1
 128 128 l 1
 256 128 l 1
 256 256 l 1
 128 256 l 1
384 256 m 1
 384 128 l 1
 512 128 l 1
 512 256 l 1
 384 256 l 1
128 128 m 1
 128 0 l 1
 256 0 l 1
 256 128 l 1
 128 128 l 1
384 128 m 1
 384 0 l 1
 512 0 l 1
 512 128 l 1
 384 128 l 1
128 0 m 1
 128 -128 l 1
 256 -128 l 1
 256 0 l 1
 128 0 l 1
384 0 m 1
 384 -128 l 1
 512 -128 l 1
 512 0 l 1
 384 0 l 1
EndSplineSet
EndChar

StartChar: BOX
Encoding: 9580 9580 223
Width: 512
Flags: HW
LayerCount: 2
Fore
SplineSet
128 896 m 1
 128 768 l 1
 256 768 l 1
 256 896 l 1
 128 896 l 1
384 896 m 1
 384 768 l 1
 512 768 l 1
 512 896 l 1
 384 896 l 1
128 768 m 1
 128 640 l 1
 256 640 l 1
 256 768 l 1
 128 768 l 1
384 768 m 1
 384 640 l 1
 512 640 l 1
 512 768 l 1
 384 768 l 1
0 640 m 1
 0 512 l 1
 128 512 l 1
 128 640 l 1
 0 640 l 1
128 640 m 1
 128 512 l 1
 256 512 l 1
 256 640 l 1
 128 640 l 1
384 640 m 1
 384 512 l 1
 512 512 l 1
 512 640 l 1
 384 640 l 1
0 384 m 1
 0 256 l 1
 128 256 l 1
 128 384 l 1
 0 384 l 1
128 384 m 1
 128 256 l 1
 256 256 l 1
 256 384 l 1
 128 384 l 1
384 384 m 1
 384 256 l 1
 512 256 l 1
 512 384 l 1
 384 384 l 1
128 256 m 1
 128 128 l 1
 256 128 l 1
 256 256 l 1
 128 256 l 1
384 256 m 1
 384 128 l 1
 512 128 l 1
 512 256 l 1
 384 256 l 1
128 128 m 1
 128 0 l 1
 256 0 l 1
 256 128 l 1
 128 128 l 1
384 128 m 1
 384 0 l 1
 512 0 l 1
 512 128 l 1
 384 128 l 1
128 0 m 1
 128 -128 l 1
 256 -128 l 1
 256 0 l 1
 128 0 l 1
384 0 m 1
 384 -128 l 1
 512 -128 l 1
 512 0 l 1
 384 0 l 1
EndSplineSet
EndChar

StartChar: BOX
Encoding: 9581 9581 224
Width: 512
Flags: HW
LayerCount: 2
Fore
SplineSet
256 384 m 1
 256 256 l 1
 384 256 l 1
 384 384 l 1
 256 384 l 1
384 384 m 1
 384 256 l 1
 512 256 l 1
 512 384 l 1
 384 384 l 1
128 256 m 1
 128 128 l 1
 256 128 l 1
 256 256 l 1
 128 256 l 1
256 256 m 1
 256 128 l 1
 384 128 l 1
 384 256 l 1
 256 256 l 1
128 128 m 1
 128 0 l 1
 256 0 l 1
 256 128 l 1
 128 128 l 1
128 0 m 1
 128 -128 l 1
 256 -128 l 1
 256 0 l 1
 128 0 l 1
EndSplineSet
EndChar

StartChar: BOX
Encoding: 9582 9582 225
Width: 512
Flags: HW
LayerCount: 2
Fore
SplineSet
0 384 m 1
 0 256 l 1
 128 256 l 1
 128 384 l 1
 0 384 l 1
0 256 m 1
 0 128 l 1
 128 128 l 1
 128 256 l 1
 0 256 l 1
128 256 m 1
 128 128 l 1
 256 128 l 1
 256 256 l 1
 128 256 l 1
128 128 m 1
 128 0 l 1
 256 0 l 1
 256 128 l 1
 128 128 l 1
128 0 m 1
 128 -128 l 1
 256 -128 l 1
 256 0 l 1
 128 0 l 1
EndSplineSet
EndChar

StartChar: BOX
Encoding: 9583 9583 226
Width: 512
Flags: HW
LayerCount: 2
Fore
SplineSet
128 896 m 1
 128 768 l 1
 256 768 l 1
 256 896 l 1
 128 896 l 1
128 768 m 1
 128 640 l 1
 256 640 l 1
 256 768 l 1
 128 768 l 1
128 640 m 1
 128 512 l 1
 256 512 l 1
 256 640 l 1
 128 640 l 1
0 512 m 1
 0 384 l 1
 128 384 l 1
 128 512 l 1
 0 512 l 1
128 512 m 1
 128 384 l 1
 256 384 l 1
 256 512 l 1
 128 512 l 1
0 384 m 1
 0 256 l 1
 128 256 l 1
 128 384 l 1
 0 384 l 1
EndSplineSet
EndChar

StartChar: BOX
Encoding: 9584 9584 227
Width: 512
Flags: HW
LayerCount: 2
Fore
SplineSet
128 896 m 1
 128 768 l 1
 256 768 l 1
 256 896 l 1
 128 896 l 1
128 768 m 1
 128 640 l 1
 256 640 l 1
 256 768 l 1
 128 768 l 1
128 640 m 1
 128 512 l 1
 256 512 l 1
 256 640 l 1
 128 640 l 1
128 512 m 1
 128 384 l 1
 256 384 l 1
 256 512 l 1
 128 512 l 1
256 512 m 1
 256 384 l 1
 384 384 l 1
 384 512 l 1
 256 512 l 1
256 384 m 1
 256 256 l 1
 384 256 l 1
 384 384 l 1
 256 384 l 1
384 384 m 1
 384 256 l 1
 512 256 l 1
 512 384 l 1
 384 384 l 1
EndSplineSet
EndChar

StartChar: BOX
Encoding: 9585 9585 228
Width: 512
Flags: HW
LayerCount: 2
Fore
SplineSet
384 896 m 1
 384 768 l 1
 512 768 l 1
 512 896 l 1
 384 896 l 1
384 768 m 1
 384 640 l 1
 512 640 l 1
 512 768 l 1
 384 768 l 1
256 640 m 1
 256 512 l 1
 384 512 l 1
 384 640 l 1
 256 640 l 1
256 512 m 1
 256 384 l 1
 384 384 l 1
 384 512 l 1
 256 512 l 1
128 384 m 1
 128 256 l 1
 256 256 l 1
 256 384 l 1
 128 384 l 1
128 256 m 1
 128 128 l 1
 256 128 l 1
 256 256 l 1
 128 256 l 1
0 128 m 1
 0 0 l 1
 128 0 l 1
 128 128 l 1
 0 128 l 1
0 0 m 1
 0 -128 l 1
 128 -128 l 1
 128 0 l 1
 0 0 l 1
EndSplineSet
EndChar

StartChar: BOX
Encoding: 9586 9586 229
Width: 512
Flags: HW
LayerCount: 2
Fore
SplineSet
0 896 m 1
 0 768 l 1
 128 768 l 1
 128 896 l 1
 0 896 l 1
0 768 m 1
 0 640 l 1
 128 640 l 1
 128 768 l 1
 0 768 l 1
128 640 m 1
 128 512 l 1
 256 512 l 1
 256 640 l 1
 128 640 l 1
128 512 m 1
 128 384 l 1
 256 384 l 1
 256 512 l 1
 128 512 l 1
256 384 m 1
 256 256 l 1
 384 256 l 1
 384 384 l 1
 256 384 l 1
256 256 m 1
 256 128 l 1
 384 128 l 1
 384 256 l 1
 256 256 l 1
384 128 m 1
 384 0 l 1
 512 0 l 1
 512 128 l 1
 384 128 l 1
384 0 m 1
 384 -128 l 1
 512 -128 l 1
 512 0 l 1
 384 0 l 1
EndSplineSet
EndChar

StartChar: BOX
Encoding: 9587 9587 230
Width: 512
Flags: HW
LayerCount: 2
Fore
SplineSet
0 896 m 1
 0 768 l 1
 128 768 l 1
 128 896 l 1
 0 896 l 1
384 896 m 1
 384 768 l 1
 512 768 l 1
 512 896 l 1
 384 896 l 1
0 768 m 1
 0 640 l 1
 128 640 l 1
 128 768 l 1
 0 768 l 1
384 768 m 1
 384 640 l 1
 512 640 l 1
 512 768 l 1
 384 768 l 1
128 640 m 1
 128 512 l 1
 256 512 l 1
 256 640 l 1
 128 640 l 1
256 640 m 1
 256 512 l 1
 384 512 l 1
 384 640 l 1
 256 640 l 1
128 512 m 1
 128 384 l 1
 256 384 l 1
 256 512 l 1
 128 512 l 1
256 512 m 1
 256 384 l 1
 384 384 l 1
 384 512 l 1
 256 512 l 1
128 384 m 1
 128 256 l 1
 256 256 l 1
 256 384 l 1
 128 384 l 1
256 384 m 1
 256 256 l 1
 384 256 l 1
 384 384 l 1
 256 384 l 1
128 256 m 1
 128 128 l 1
 256 128 l 1
 256 256 l 1
 128 256 l 1
256 256 m 1
 256 128 l 1
 384 128 l 1
 384 256 l 1
 256 256 l 1
0 128 m 1
 0 0 l 1
 128 0 l 1
 128 128 l 1
 0 128 l 1
384 128 m 1
 384 0 l 1
 512 0 l 1
 512 128 l 1
 384 128 l 1
0 0 m 1
 0 -128 l 1
 128 -128 l 1
 128 0 l 1
 0 0 l 1
384 0 m 1
 384 -128 l 1
 512 -128 l 1
 512 0 l 1
 384 0 l 1
EndSplineSet
EndChar

StartChar: BOX
Encoding: 9588 9588 231
Width: 512
Flags: HW
LayerCount: 2
Fore
SplineSet
0 384 m 1
 0 256 l 1
 128 256 l 1
 128 384 l 1
 0 384 l 1
128 384 m 1
 128 256 l 1
 256 256 l 1
 256 384 l 1
 128 384 l 1
EndSplineSet
EndChar

StartChar: BOX
Encoding: 9589 9589 232
Width: 512
Flags: HW
LayerCount: 2
Fore
SplineSet
128 896 m 1
 128 768 l 1
 256 768 l 1
 256 896 l 1
 128 896 l 1
128 768 m 1
 128 640 l 1
 256 640 l 1
 256 768 l 1
 128 768 l 1
128 640 m 1
 128 512 l 1
 256 512 l 1
 256 640 l 1
 128 640 l 1
128 512 m 1
 128 384 l 1
 256 384 l 1
 256 512 l 1
 128 512 l 1
EndSplineSet
EndChar

StartChar: BOX
Encoding: 9590 9590 233
Width: 512
Flags: HW
LayerCount: 2
Fore
SplineSet
256 384 m 1
 256 256 l 1
 384 256 l 1
 384 384 l 1
 256 384 l 1
384 384 m 1
 384 256 l 1
 512 256 l 1
 512 384 l 1
 384 384 l 1
EndSplineSet
EndChar

StartChar: BOX
Encoding: 9591 9591 234
Width: 512
Flags: HW
LayerCount: 2
Fore
SplineSet
128 384 m 1
 128 256 l 1
 256 256 l 1
 256 384 l 1
 128 384 l 1
128 256 m 1
 128 128 l 1
 256 128 l 1
 256 256 l 1
 128 256 l 1
128 128 m 1
 128 0 l 1
 256 0 l 1
 256 128 l 1
 128 128 l 1
128 0 m 1
 128 -128 l 1
 256 -128 l 1
 256 0 l 1
 128 0 l 1
EndSplineSet
EndChar

StartChar: BOX
Encoding: 9592 9592 235
Width: 512
Flags: HW
LayerCount: 2
Fore
SplineSet
0 512 m 1
 0 384 l 1
 128 384 l 1
 128 512 l 1
 0 512 l 1
128 512 m 1
 128 384 l 1
 256 384 l 1
 256 512 l 1
 128 512 l 1
0 384 m 1
 0 256 l 1
 128 256 l 1
 128 384 l 1
 0 384 l 1
128 384 m 1
 128 256 l 1
 256 256 l 1
 256 384 l 1
 128 384 l 1
EndSplineSet
EndChar

StartChar: BOX
Encoding: 9593 9593 236
Width: 512
Flags: HW
LayerCount: 2
Fore
SplineSet
128 896 m 1
 128 768 l 1
 256 768 l 1
 256 896 l 1
 128 896 l 1
256 896 m 1
 256 768 l 1
 384 768 l 1
 384 896 l 1
 256 896 l 1
128 768 m 1
 128 640 l 1
 256 640 l 1
 256 768 l 1
 128 768 l 1
256 768 m 1
 256 640 l 1
 384 640 l 1
 384 768 l 1
 256 768 l 1
128 640 m 1
 128 512 l 1
 256 512 l 1
 256 640 l 1
 128 640 l 1
256 640 m 1
 256 512 l 1
 384 512 l 1
 384 640 l 1
 256 640 l 1
128 512 m 1
 128 384 l 1
 256 384 l 1
 256 512 l 1
 128 512 l 1
256 512 m 1
 256 384 l 1
 384 384 l 1
 384 512 l 1
 256 512 l 1
EndSplineSet
EndChar

StartChar: BOX
Encoding: 9594 9594 237
Width: 512
Flags: HW
LayerCount: 2
Fore
SplineSet
256 512 m 1
 256 384 l 1
 384 384 l 1
 384 512 l 1
 256 512 l 1
384 512 m 1
 384 384 l 1
 512 384 l 1
 512 512 l 1
 384 512 l 1
256 384 m 1
 256 256 l 1
 384 256 l 1
 384 384 l 1
 256 384 l 1
384 384 m 1
 384 256 l 1
 512 256 l 1
 512 384 l 1
 384 384 l 1
EndSplineSet
EndChar

StartChar: BOX
Encoding: 9595 9595 238
Width: 512
Flags: HW
LayerCount: 2
Fore
SplineSet
128 384 m 1
 128 256 l 1
 256 256 l 1
 256 384 l 1
 128 384 l 1
256 384 m 1
 256 256 l 1
 384 256 l 1
 384 384 l 1
 256 384 l 1
128 256 m 1
 128 128 l 1
 256 128 l 1
 256 256 l 1
 128 256 l 1
256 256 m 1
 256 128 l 1
 384 128 l 1
 384 256 l 1
 256 256 l 1
128 128 m 1
 128 0 l 1
 256 0 l 1
 256 128 l 1
 128 128 l 1
256 128 m 1
 256 0 l 1
 384 0 l 1
 384 128 l 1
 256 128 l 1
128 0 m 1
 128 -128 l 1
 256 -128 l 1
 256 0 l 1
 128 0 l 1
256 0 m 1
 256 -128 l 1
 384 -128 l 1
 384 0 l 1
 256 0 l 1
EndSplineSet
EndChar

StartChar: BOX
Encoding: 9596 9596 239
Width: 512
Flags: HW
LayerCount: 2
Fore
SplineSet
256 512 m 1
 256 384 l 1
 384 384 l 1
 384 512 l 1
 256 512 l 1
384 512 m 1
 384 384 l 1
 512 384 l 1
 512 512 l 1
 384 512 l 1
0 384 m 1
 0 256 l 1
 128 256 l 1
 128 384 l 1
 0 384 l 1
128 384 m 1
 128 256 l 1
 256 256 l 1
 256 384 l 1
 128 384 l 1
256 384 m 1
 256 256 l 1
 384 256 l 1
 384 384 l 1
 256 384 l 1
384 384 m 1
 384 256 l 1
 512 256 l 1
 512 384 l 1
 384 384 l 1
EndSplineSet
EndChar

StartChar: BOX
Encoding: 9597 9597 240
Width: 512
Flags: HW
LayerCount: 2
Fore
SplineSet
128 896 m 1
 128 768 l 1
 256 768 l 1
 256 896 l 1
 128 896 l 1
128 768 m 1
 128 640 l 1
 256 640 l 1
 256 768 l 1
 128 768 l 1
128 640 m 1
 128 512 l 1
 256 512 l 1
 256 640 l 1
 128 640 l 1
128 512 m 1
 128 384 l 1
 256 384 l 1
 256 512 l 1
 128 512 l 1
128 384 m 1
 128 256 l 1
 256 256 l 1
 256 384 l 1
 128 384 l 1
256 384 m 1
 256 256 l 1
 384 256 l 1
 384 384 l 1
 256 384 l 1
128 256 m 1
 128 128 l 1
 256 128 l 1
 256 256 l 1
 128 256 l 1
256 256 m 1
 256 128 l 1
 384 128 l 1
 384 256 l 1
 256 256 l 1
128 128 m 1
 128 0 l 1
 256 0 l 1
 256 128 l 1
 128 128 l 1
256 128 m 1
 256 0 l 1
 384 0 l 1
 384 128 l 1
 256 128 l 1
128 0 m 1
 128 -128 l 1
 256 -128 l 1
 256 0 l 1
 128 0 l 1
256 0 m 1
 256 -128 l 1
 384 -128 l 1
 384 0 l 1
 256 0 l 1
EndSplineSet
EndChar

StartChar: BOX
Encoding: 9598 9598 241
Width: 512
Flags: HW
LayerCount: 2
Fore
SplineSet
0 512 m 1
 0 384 l 1
 128 384 l 1
 128 512 l 1
 0 512 l 1
128 512 m 1
 128 384 l 1
 256 384 l 1
 256 512 l 1
 128 512 l 1
0 384 m 1
 0 256 l 1
 128 256 l 1
 128 384 l 1
 0 384 l 1
128 384 m 1
 128 256 l 1
 256 256 l 1
 256 384 l 1
 128 384 l 1
256 384 m 1
 256 256 l 1
 384 256 l 1
 384 384 l 1
 256 384 l 1
384 384 m 1
 384 256 l 1
 512 256 l 1
 512 384 l 1
 384 384 l 1
EndSplineSet
EndChar

StartChar: BOX
Encoding: 9599 9599 242
Width: 512
Flags: HW
LayerCount: 2
Fore
SplineSet
128 896 m 1
 128 768 l 1
 256 768 l 1
 256 896 l 1
 128 896 l 1
256 896 m 1
 256 768 l 1
 384 768 l 1
 384 896 l 1
 256 896 l 1
128 768 m 1
 128 640 l 1
 256 640 l 1
 256 768 l 1
 128 768 l 1
256 768 m 1
 256 640 l 1
 384 640 l 1
 384 768 l 1
 256 768 l 1
128 640 m 1
 128 512 l 1
 256 512 l 1
 256 640 l 1
 128 640 l 1
256 640 m 1
 256 512 l 1
 384 512 l 1
 384 640 l 1
 256 640 l 1
128 512 m 1
 128 384 l 1
 256 384 l 1
 256 512 l 1
 128 512 l 1
256 512 m 1
 256 384 l 1
 384 384 l 1
 384 512 l 1
 256 512 l 1
128 384 m 1
 128 256 l 1
 256 256 l 1
 256 384 l 1
 128 384 l 1
128 256 m 1
 128 128 l 1
 256 128 l 1
 256 256 l 1
 128 256 l 1
128 128 m 1
 128 0 l 1
 256 0 l 1
 256 128 l 1
 128 128 l 1
128 0 m 1
 128 -128 l 1
 256 -128 l 1
 256 0 l 1
 128 0 l 1
EndSplineSet
EndChar

StartChar: UPPER
Encoding: 9600 9600 243
Width: 512
Flags: HW
LayerCount: 2
Fore
SplineSet
0 896 m 1
 0 768 l 1
 128 768 l 1
 128 896 l 1
 0 896 l 1
128 896 m 1
 128 768 l 1
 256 768 l 1
 256 896 l 1
 128 896 l 1
256 896 m 1
 256 768 l 1
 384 768 l 1
 384 896 l 1
 256 896 l 1
384 896 m 1
 384 768 l 1
 512 768 l 1
 512 896 l 1
 384 896 l 1
0 768 m 1
 0 640 l 1
 128 640 l 1
 128 768 l 1
 0 768 l 1
128 768 m 1
 128 640 l 1
 256 640 l 1
 256 768 l 1
 128 768 l 1
256 768 m 1
 256 640 l 1
 384 640 l 1
 384 768 l 1
 256 768 l 1
384 768 m 1
 384 640 l 1
 512 640 l 1
 512 768 l 1
 384 768 l 1
0 640 m 1
 0 512 l 1
 128 512 l 1
 128 640 l 1
 0 640 l 1
128 640 m 1
 128 512 l 1
 256 512 l 1
 256 640 l 1
 128 640 l 1
256 640 m 1
 256 512 l 1
 384 512 l 1
 384 640 l 1
 256 640 l 1
384 640 m 1
 384 512 l 1
 512 512 l 1
 512 640 l 1
 384 640 l 1
0 512 m 1
 0 384 l 1
 128 384 l 1
 128 512 l 1
 0 512 l 1
128 512 m 1
 128 384 l 1
 256 384 l 1
 256 512 l 1
 128 512 l 1
256 512 m 1
 256 384 l 1
 384 384 l 1
 384 512 l 1
 256 512 l 1
384 512 m 1
 384 384 l 1
 512 384 l 1
 512 512 l 1
 384 512 l 1
EndSplineSet
EndChar

StartChar: LOWER
Encoding: 9601 9601 244
Width: 512
Flags: HW
LayerCount: 2
Fore
SplineSet
0 0 m 1
 0 -128 l 1
 128 -128 l 1
 128 0 l 1
 0 0 l 1
128 0 m 1
 128 -128 l 1
 256 -128 l 1
 256 0 l 1
 128 0 l 1
256 0 m 1
 256 -128 l 1
 384 -128 l 1
 384 0 l 1
 256 0 l 1
384 0 m 1
 384 -128 l 1
 512 -128 l 1
 512 0 l 1
 384 0 l 1
EndSplineSet
EndChar

StartChar: LOWER
Encoding: 9602 9602 245
Width: 512
Flags: HW
LayerCount: 2
Fore
SplineSet
0 128 m 1
 0 0 l 1
 128 0 l 1
 128 128 l 1
 0 128 l 1
128 128 m 1
 128 0 l 1
 256 0 l 1
 256 128 l 1
 128 128 l 1
256 128 m 1
 256 0 l 1
 384 0 l 1
 384 128 l 1
 256 128 l 1
384 128 m 1
 384 0 l 1
 512 0 l 1
 512 128 l 1
 384 128 l 1
0 0 m 1
 0 -128 l 1
 128 -128 l 1
 128 0 l 1
 0 0 l 1
128 0 m 1
 128 -128 l 1
 256 -128 l 1
 256 0 l 1
 128 0 l 1
256 0 m 1
 256 -128 l 1
 384 -128 l 1
 384 0 l 1
 256 0 l 1
384 0 m 1
 384 -128 l 1
 512 -128 l 1
 512 0 l 1
 384 0 l 1
EndSplineSet
EndChar

StartChar: LOWER
Encoding: 9603 9603 246
Width: 512
Flags: HW
LayerCount: 2
Fore
SplineSet
0 256 m 1
 0 128 l 1
 128 128 l 1
 128 256 l 1
 0 256 l 1
128 256 m 1
 128 128 l 1
 256 128 l 1
 256 256 l 1
 128 256 l 1
256 256 m 1
 256 128 l 1
 384 128 l 1
 384 256 l 1
 256 256 l 1
384 256 m 1
 384 128 l 1
 512 128 l 1
 512 256 l 1
 384 256 l 1
0 128 m 1
 0 0 l 1
 128 0 l 1
 128 128 l 1
 0 128 l 1
128 128 m 1
 128 0 l 1
 256 0 l 1
 256 128 l 1
 128 128 l 1
256 128 m 1
 256 0 l 1
 384 0 l 1
 384 128 l 1
 256 128 l 1
384 128 m 1
 384 0 l 1
 512 0 l 1
 512 128 l 1
 384 128 l 1
0 0 m 1
 0 -128 l 1
 128 -128 l 1
 128 0 l 1
 0 0 l 1
128 0 m 1
 128 -128 l 1
 256 -128 l 1
 256 0 l 1
 128 0 l 1
256 0 m 1
 256 -128 l 1
 384 -128 l 1
 384 0 l 1
 256 0 l 1
384 0 m 1
 384 -128 l 1
 512 -128 l 1
 512 0 l 1
 384 0 l 1
EndSplineSet
EndChar

StartChar: LOWER
Encoding: 9604 9604 247
Width: 512
Flags: HW
LayerCount: 2
Fore
SplineSet
0 384 m 1
 0 256 l 1
 128 256 l 1
 128 384 l 1
 0 384 l 1
128 384 m 1
 128 256 l 1
 256 256 l 1
 256 384 l 1
 128 384 l 1
256 384 m 1
 256 256 l 1
 384 256 l 1
 384 384 l 1
 256 384 l 1
384 384 m 1
 384 256 l 1
 512 256 l 1
 512 384 l 1
 384 384 l 1
0 256 m 1
 0 128 l 1
 128 128 l 1
 128 256 l 1
 0 256 l 1
128 256 m 1
 128 128 l 1
 256 128 l 1
 256 256 l 1
 128 256 l 1
256 256 m 1
 256 128 l 1
 384 128 l 1
 384 256 l 1
 256 256 l 1
384 256 m 1
 384 128 l 1
 512 128 l 1
 512 256 l 1
 384 256 l 1
0 128 m 1
 0 0 l 1
 128 0 l 1
 128 128 l 1
 0 128 l 1
128 128 m 1
 128 0 l 1
 256 0 l 1
 256 128 l 1
 128 128 l 1
256 128 m 1
 256 0 l 1
 384 0 l 1
 384 128 l 1
 256 128 l 1
384 128 m 1
 384 0 l 1
 512 0 l 1
 512 128 l 1
 384 128 l 1
0 0 m 1
 0 -128 l 1
 128 -128 l 1
 128 0 l 1
 0 0 l 1
128 0 m 1
 128 -128 l 1
 256 -128 l 1
 256 0 l 1
 128 0 l 1
256 0 m 1
 256 -128 l 1
 384 -128 l 1
 384 0 l 1
 256 0 l 1
384 0 m 1
 384 -128 l 1
 512 -128 l 1
 512 0 l 1
 384 0 l 1
EndSplineSet
EndChar

StartChar: LOWER
Encoding: 9605 9605 248
Width: 512
Flags: HW
LayerCount: 2
Fore
SplineSet
0 512 m 1
 0 384 l 1
 128 384 l 1
 128 512 l 1
 0 512 l 1
128 512 m 1
 128 384 l 1
 256 384 l 1
 256 512 l 1
 128 512 l 1
256 512 m 1
 256 384 l 1
 384 384 l 1
 384 512 l 1
 256 512 l 1
384 512 m 1
 384 384 l 1
 512 384 l 1
 512 512 l 1
 384 512 l 1
0 384 m 1
 0 256 l 1
 128 256 l 1
 128 384 l 1
 0 384 l 1
128 384 m 1
 128 256 l 1
 256 256 l 1
 256 384 l 1
 128 384 l 1
256 384 m 1
 256 256 l 1
 384 256 l 1
 384 384 l 1
 256 384 l 1
384 384 m 1
 384 256 l 1
 512 256 l 1
 512 384 l 1
 384 384 l 1
0 256 m 1
 0 128 l 1
 128 128 l 1
 128 256 l 1
 0 256 l 1
128 256 m 1
 128 128 l 1
 256 128 l 1
 256 256 l 1
 128 256 l 1
256 256 m 1
 256 128 l 1
 384 128 l 1
 384 256 l 1
 256 256 l 1
384 256 m 1
 384 128 l 1
 512 128 l 1
 512 256 l 1
 384 256 l 1
0 128 m 1
 0 0 l 1
 128 0 l 1
 128 128 l 1
 0 128 l 1
128 128 m 1
 128 0 l 1
 256 0 l 1
 256 128 l 1
 128 128 l 1
256 128 m 1
 256 0 l 1
 384 0 l 1
 384 128 l 1
 256 128 l 1
384 128 m 1
 384 0 l 1
 512 0 l 1
 512 128 l 1
 384 128 l 1
0 0 m 1
 0 -128 l 1
 128 -128 l 1
 128 0 l 1
 0 0 l 1
128 0 m 1
 128 -128 l 1
 256 -128 l 1
 256 0 l 1
 128 0 l 1
256 0 m 1
 256 -128 l 1
 384 -128 l 1
 384 0 l 1
 256 0 l 1
384 0 m 1
 384 -128 l 1
 512 -128 l 1
 512 0 l 1
 384 0 l 1
EndSplineSet
EndChar

StartChar: LOWER
Encoding: 9606 9606 249
Width: 512
Flags: HW
LayerCount: 2
Fore
SplineSet
0 640 m 1
 0 512 l 1
 128 512 l 1
 128 640 l 1
 0 640 l 1
128 640 m 1
 128 512 l 1
 256 512 l 1
 256 640 l 1
 128 640 l 1
256 640 m 1
 256 512 l 1
 384 512 l 1
 384 640 l 1
 256 640 l 1
384 640 m 1
 384 512 l 1
 512 512 l 1
 512 640 l 1
 384 640 l 1
0 512 m 1
 0 384 l 1
 128 384 l 1
 128 512 l 1
 0 512 l 1
128 512 m 1
 128 384 l 1
 256 384 l 1
 256 512 l 1
 128 512 l 1
256 512 m 1
 256 384 l 1
 384 384 l 1
 384 512 l 1
 256 512 l 1
384 512 m 1
 384 384 l 1
 512 384 l 1
 512 512 l 1
 384 512 l 1
0 384 m 1
 0 256 l 1
 128 256 l 1
 128 384 l 1
 0 384 l 1
128 384 m 1
 128 256 l 1
 256 256 l 1
 256 384 l 1
 128 384 l 1
256 384 m 1
 256 256 l 1
 384 256 l 1
 384 384 l 1
 256 384 l 1
384 384 m 1
 384 256 l 1
 512 256 l 1
 512 384 l 1
 384 384 l 1
0 256 m 1
 0 128 l 1
 128 128 l 1
 128 256 l 1
 0 256 l 1
128 256 m 1
 128 128 l 1
 256 128 l 1
 256 256 l 1
 128 256 l 1
256 256 m 1
 256 128 l 1
 384 128 l 1
 384 256 l 1
 256 256 l 1
384 256 m 1
 384 128 l 1
 512 128 l 1
 512 256 l 1
 384 256 l 1
0 128 m 1
 0 0 l 1
 128 0 l 1
 128 128 l 1
 0 128 l 1
128 128 m 1
 128 0 l 1
 256 0 l 1
 256 128 l 1
 128 128 l 1
256 128 m 1
 256 0 l 1
 384 0 l 1
 384 128 l 1
 256 128 l 1
384 128 m 1
 384 0 l 1
 512 0 l 1
 512 128 l 1
 384 128 l 1
0 0 m 1
 0 -128 l 1
 128 -128 l 1
 128 0 l 1
 0 0 l 1
128 0 m 1
 128 -128 l 1
 256 -128 l 1
 256 0 l 1
 128 0 l 1
256 0 m 1
 256 -128 l 1
 384 -128 l 1
 384 0 l 1
 256 0 l 1
384 0 m 1
 384 -128 l 1
 512 -128 l 1
 512 0 l 1
 384 0 l 1
EndSplineSet
EndChar

StartChar: LOWER
Encoding: 9607 9607 250
Width: 512
Flags: HW
LayerCount: 2
Fore
SplineSet
0 768 m 1
 0 640 l 1
 128 640 l 1
 128 768 l 1
 0 768 l 1
128 768 m 1
 128 640 l 1
 256 640 l 1
 256 768 l 1
 128 768 l 1
256 768 m 1
 256 640 l 1
 384 640 l 1
 384 768 l 1
 256 768 l 1
384 768 m 1
 384 640 l 1
 512 640 l 1
 512 768 l 1
 384 768 l 1
0 640 m 1
 0 512 l 1
 128 512 l 1
 128 640 l 1
 0 640 l 1
128 640 m 1
 128 512 l 1
 256 512 l 1
 256 640 l 1
 128 640 l 1
256 640 m 1
 256 512 l 1
 384 512 l 1
 384 640 l 1
 256 640 l 1
384 640 m 1
 384 512 l 1
 512 512 l 1
 512 640 l 1
 384 640 l 1
0 512 m 1
 0 384 l 1
 128 384 l 1
 128 512 l 1
 0 512 l 1
128 512 m 1
 128 384 l 1
 256 384 l 1
 256 512 l 1
 128 512 l 1
256 512 m 1
 256 384 l 1
 384 384 l 1
 384 512 l 1
 256 512 l 1
384 512 m 1
 384 384 l 1
 512 384 l 1
 512 512 l 1
 384 512 l 1
0 384 m 1
 0 256 l 1
 128 256 l 1
 128 384 l 1
 0 384 l 1
128 384 m 1
 128 256 l 1
 256 256 l 1
 256 384 l 1
 128 384 l 1
256 384 m 1
 256 256 l 1
 384 256 l 1
 384 384 l 1
 256 384 l 1
384 384 m 1
 384 256 l 1
 512 256 l 1
 512 384 l 1
 384 384 l 1
0 256 m 1
 0 128 l 1
 128 128 l 1
 128 256 l 1
 0 256 l 1
128 256 m 1
 128 128 l 1
 256 128 l 1
 256 256 l 1
 128 256 l 1
256 256 m 1
 256 128 l 1
 384 128 l 1
 384 256 l 1
 256 256 l 1
384 256 m 1
 384 128 l 1
 512 128 l 1
 512 256 l 1
 384 256 l 1
0 128 m 1
 0 0 l 1
 128 0 l 1
 128 128 l 1
 0 128 l 1
128 128 m 1
 128 0 l 1
 256 0 l 1
 256 128 l 1
 128 128 l 1
256 128 m 1
 256 0 l 1
 384 0 l 1
 384 128 l 1
 256 128 l 1
384 128 m 1
 384 0 l 1
 512 0 l 1
 512 128 l 1
 384 128 l 1
0 0 m 1
 0 -128 l 1
 128 -128 l 1
 128 0 l 1
 0 0 l 1
128 0 m 1
 128 -128 l 1
 256 -128 l 1
 256 0 l 1
 128 0 l 1
256 0 m 1
 256 -128 l 1
 384 -128 l 1
 384 0 l 1
 256 0 l 1
384 0 m 1
 384 -128 l 1
 512 -128 l 1
 512 0 l 1
 384 0 l 1
EndSplineSet
EndChar

StartChar: FULL
Encoding: 9608 9608 251
Width: 512
Flags: HW
LayerCount: 2
Fore
SplineSet
0 896 m 1
 0 768 l 1
 128 768 l 1
 128 896 l 1
 0 896 l 1
128 896 m 1
 128 768 l 1
 256 768 l 1
 256 896 l 1
 128 896 l 1
256 896 m 1
 256 768 l 1
 384 768 l 1
 384 896 l 1
 256 896 l 1
384 896 m 1
 384 768 l 1
 512 768 l 1
 512 896 l 1
 384 896 l 1
0 768 m 1
 0 640 l 1
 128 640 l 1
 128 768 l 1
 0 768 l 1
128 768 m 1
 128 640 l 1
 256 640 l 1
 256 768 l 1
 128 768 l 1
256 768 m 1
 256 640 l 1
 384 640 l 1
 384 768 l 1
 256 768 l 1
384 768 m 1
 384 640 l 1
 512 640 l 1
 512 768 l 1
 384 768 l 1
0 640 m 1
 0 512 l 1
 128 512 l 1
 128 640 l 1
 0 640 l 1
128 640 m 1
 128 512 l 1
 256 512 l 1
 256 640 l 1
 128 640 l 1
256 640 m 1
 256 512 l 1
 384 512 l 1
 384 640 l 1
 256 640 l 1
384 640 m 1
 384 512 l 1
 512 512 l 1
 512 640 l 1
 384 640 l 1
0 512 m 1
 0 384 l 1
 128 384 l 1
 128 512 l 1
 0 512 l 1
128 512 m 1
 128 384 l 1
 256 384 l 1
 256 512 l 1
 128 512 l 1
256 512 m 1
 256 384 l 1
 384 384 l 1
 384 512 l 1
 256 512 l 1
384 512 m 1
 384 384 l 1
 512 384 l 1
 512 512 l 1
 384 512 l 1
0 384 m 1
 0 256 l 1
 128 256 l 1
 128 384 l 1
 0 384 l 1
128 384 m 1
 128 256 l 1
 256 256 l 1
 256 384 l 1
 128 384 l 1
256 384 m 1
 256 256 l 1
 384 256 l 1
 384 384 l 1
 256 384 l 1
384 384 m 1
 384 256 l 1
 512 256 l 1
 512 384 l 1
 384 384 l 1
0 256 m 1
 0 128 l 1
 128 128 l 1
 128 256 l 1
 0 256 l 1
128 256 m 1
 128 128 l 1
 256 128 l 1
 256 256 l 1
 128 256 l 1
256 256 m 1
 256 128 l 1
 384 128 l 1
 384 256 l 1
 256 256 l 1
384 256 m 1
 384 128 l 1
 512 128 l 1
 512 256 l 1
 384 256 l 1
0 128 m 1
 0 0 l 1
 128 0 l 1
 128 128 l 1
 0 128 l 1
128 128 m 1
 128 0 l 1
 256 0 l 1
 256 128 l 1
 128 128 l 1
256 128 m 1
 256 0 l 1
 384 0 l 1
 384 128 l 1
 256 128 l 1
384 128 m 1
 384 0 l 1
 512 0 l 1
 512 128 l 1
 384 128 l 1
0 0 m 1
 0 -128 l 1
 128 -128 l 1
 128 0 l 1
 0 0 l 1
128 0 m 1
 128 -128 l 1
 256 -128 l 1
 256 0 l 1
 128 0 l 1
256 0 m 1
 256 -128 l 1
 384 -128 l 1
 384 0 l 1
 256 0 l 1
384 0 m 1
 384 -128 l 1
 512 -128 l 1
 512 0 l 1
 384 0 l 1
EndSplineSet
EndChar

StartChar: LEFT
Encoding: 9609 9609 252
Width: 512
Flags: HW
LayerCount: 2
Fore
SplineSet
0 896 m 1
 0 768 l 1
 128 768 l 1
 128 896 l 1
 0 896 l 1
128 896 m 1
 128 768 l 1
 256 768 l 1
 256 896 l 1
 128 896 l 1
256 896 m 1
 256 768 l 1
 384 768 l 1
 384 896 l 1
 256 896 l 1
384 896 m 1
 384 768 l 1
 512 768 l 1
 512 896 l 1
 384 896 l 1
0 768 m 1
 0 640 l 1
 128 640 l 1
 128 768 l 1
 0 768 l 1
128 768 m 1
 128 640 l 1
 256 640 l 1
 256 768 l 1
 128 768 l 1
256 768 m 1
 256 640 l 1
 384 640 l 1
 384 768 l 1
 256 768 l 1
384 768 m 1
 384 640 l 1
 512 640 l 1
 512 768 l 1
 384 768 l 1
0 640 m 1
 0 512 l 1
 128 512 l 1
 128 640 l 1
 0 640 l 1
128 640 m 1
 128 512 l 1
 256 512 l 1
 256 640 l 1
 128 640 l 1
256 640 m 1
 256 512 l 1
 384 512 l 1
 384 640 l 1
 256 640 l 1
384 640 m 1
 384 512 l 1
 512 512 l 1
 512 640 l 1
 384 640 l 1
0 512 m 1
 0 384 l 1
 128 384 l 1
 128 512 l 1
 0 512 l 1
128 512 m 1
 128 384 l 1
 256 384 l 1
 256 512 l 1
 128 512 l 1
256 512 m 1
 256 384 l 1
 384 384 l 1
 384 512 l 1
 256 512 l 1
384 512 m 1
 384 384 l 1
 512 384 l 1
 512 512 l 1
 384 512 l 1
0 384 m 1
 0 256 l 1
 128 256 l 1
 128 384 l 1
 0 384 l 1
128 384 m 1
 128 256 l 1
 256 256 l 1
 256 384 l 1
 128 384 l 1
256 384 m 1
 256 256 l 1
 384 256 l 1
 384 384 l 1
 256 384 l 1
384 384 m 1
 384 256 l 1
 512 256 l 1
 512 384 l 1
 384 384 l 1
0 256 m 1
 0 128 l 1
 128 128 l 1
 128 256 l 1
 0 256 l 1
128 256 m 1
 128 128 l 1
 256 128 l 1
 256 256 l 1
 128 256 l 1
256 256 m 1
 256 128 l 1
 384 128 l 1
 384 256 l 1
 256 256 l 1
384 256 m 1
 384 128 l 1
 512 128 l 1
 512 256 l 1
 384 256 l 1
0 128 m 1
 0 0 l 1
 128 0 l 1
 128 128 l 1
 0 128 l 1
128 128 m 1
 128 0 l 1
 256 0 l 1
 256 128 l 1
 128 128 l 1
256 128 m 1
 256 0 l 1
 384 0 l 1
 384 128 l 1
 256 128 l 1
384 128 m 1
 384 0 l 1
 512 0 l 1
 512 128 l 1
 384 128 l 1
0 0 m 1
 0 -128 l 1
 128 -128 l 1
 128 0 l 1
 0 0 l 1
128 0 m 1
 128 -128 l 1
 256 -128 l 1
 256 0 l 1
 128 0 l 1
256 0 m 1
 256 -128 l 1
 384 -128 l 1
 384 0 l 1
 256 0 l 1
384 0 m 1
 384 -128 l 1
 512 -128 l 1
 512 0 l 1
 384 0 l 1
EndSplineSet
EndChar

StartChar: LEFT
Encoding: 9610 9610 253
Width: 512
Flags: HW
LayerCount: 2
Fore
SplineSet
0 896 m 1
 0 768 l 1
 128 768 l 1
 128 896 l 1
 0 896 l 1
128 896 m 1
 128 768 l 1
 256 768 l 1
 256 896 l 1
 128 896 l 1
256 896 m 1
 256 768 l 1
 384 768 l 1
 384 896 l 1
 256 896 l 1
0 768 m 1
 0 640 l 1
 128 640 l 1
 128 768 l 1
 0 768 l 1
128 768 m 1
 128 640 l 1
 256 640 l 1
 256 768 l 1
 128 768 l 1
256 768 m 1
 256 640 l 1
 384 640 l 1
 384 768 l 1
 256 768 l 1
0 640 m 1
 0 512 l 1
 128 512 l 1
 128 640 l 1
 0 640 l 1
128 640 m 1
 128 512 l 1
 256 512 l 1
 256 640 l 1
 128 640 l 1
256 640 m 1
 256 512 l 1
 384 512 l 1
 384 640 l 1
 256 640 l 1
0 512 m 1
 0 384 l 1
 128 384 l 1
 128 512 l 1
 0 512 l 1
128 512 m 1
 128 384 l 1
 256 384 l 1
 256 512 l 1
 128 512 l 1
256 512 m 1
 256 384 l 1
 384 384 l 1
 384 512 l 1
 256 512 l 1
0 384 m 1
 0 256 l 1
 128 256 l 1
 128 384 l 1
 0 384 l 1
128 384 m 1
 128 256 l 1
 256 256 l 1
 256 384 l 1
 128 384 l 1
256 384 m 1
 256 256 l 1
 384 256 l 1
 384 384 l 1
 256 384 l 1
0 256 m 1
 0 128 l 1
 128 128 l 1
 128 256 l 1
 0 256 l 1
128 256 m 1
 128 128 l 1
 256 128 l 1
 256 256 l 1
 128 256 l 1
256 256 m 1
 256 128 l 1
 384 128 l 1
 384 256 l 1
 256 256 l 1
0 128 m 1
 0 0 l 1
 128 0 l 1
 128 128 l 1
 0 128 l 1
128 128 m 1
 128 0 l 1
 256 0 l 1
 256 128 l 1
 128 128 l 1
256 128 m 1
 256 0 l 1
 384 0 l 1
 384 128 l 1
 256 128 l 1
0 0 m 1
 0 -128 l 1
 128 -128 l 1
 128 0 l 1
 0 0 l 1
128 0 m 1
 128 -128 l 1
 256 -128 l 1
 256 0 l 1
 128 0 l 1
256 0 m 1
 256 -128 l 1
 384 -128 l 1
 384 0 l 1
 256 0 l 1
EndSplineSet
EndChar

StartChar: LEFT
Encoding: 9611 9611 254
Width: 512
Flags: HW
LayerCount: 2
Fore
SplineSet
0 896 m 1
 0 768 l 1
 128 768 l 1
 128 896 l 1
 0 896 l 1
128 896 m 1
 128 768 l 1
 256 768 l 1
 256 896 l 1
 128 896 l 1
256 896 m 1
 256 768 l 1
 384 768 l 1
 384 896 l 1
 256 896 l 1
0 768 m 1
 0 640 l 1
 128 640 l 1
 128 768 l 1
 0 768 l 1
128 768 m 1
 128 640 l 1
 256 640 l 1
 256 768 l 1
 128 768 l 1
256 768 m 1
 256 640 l 1
 384 640 l 1
 384 768 l 1
 256 768 l 1
0 640 m 1
 0 512 l 1
 128 512 l 1
 128 640 l 1
 0 640 l 1
128 640 m 1
 128 512 l 1
 256 512 l 1
 256 640 l 1
 128 640 l 1
256 640 m 1
 256 512 l 1
 384 512 l 1
 384 640 l 1
 256 640 l 1
0 512 m 1
 0 384 l 1
 128 384 l 1
 128 512 l 1
 0 512 l 1
128 512 m 1
 128 384 l 1
 256 384 l 1
 256 512 l 1
 128 512 l 1
256 512 m 1
 256 384 l 1
 384 384 l 1
 384 512 l 1
 256 512 l 1
0 384 m 1
 0 256 l 1
 128 256 l 1
 128 384 l 1
 0 384 l 1
128 384 m 1
 128 256 l 1
 256 256 l 1
 256 384 l 1
 128 384 l 1
256 384 m 1
 256 256 l 1
 384 256 l 1
 384 384 l 1
 256 384 l 1
0 256 m 1
 0 128 l 1
 128 128 l 1
 128 256 l 1
 0 256 l 1
128 256 m 1
 128 128 l 1
 256 128 l 1
 256 256 l 1
 128 256 l 1
256 256 m 1
 256 128 l 1
 384 128 l 1
 384 256 l 1
 256 256 l 1
0 128 m 1
 0 0 l 1
 128 0 l 1
 128 128 l 1
 0 128 l 1
128 128 m 1
 128 0 l 1
 256 0 l 1
 256 128 l 1
 128 128 l 1
256 128 m 1
 256 0 l 1
 384 0 l 1
 384 128 l 1
 256 128 l 1
0 0 m 1
 0 -128 l 1
 128 -128 l 1
 128 0 l 1
 0 0 l 1
128 0 m 1
 128 -128 l 1
 256 -128 l 1
 256 0 l 1
 128 0 l 1
256 0 m 1
 256 -128 l 1
 384 -128 l 1
 384 0 l 1
 256 0 l 1
EndSplineSet
EndChar

StartChar: LEFT
Encoding: 9612 9612 255
Width: 512
Flags: HW
LayerCount: 2
Fore
SplineSet
0 896 m 1
 0 768 l 1
 128 768 l 1
 128 896 l 1
 0 896 l 1
128 896 m 1
 128 768 l 1
 256 768 l 1
 256 896 l 1
 128 896 l 1
0 768 m 1
 0 640 l 1
 128 640 l 1
 128 768 l 1
 0 768 l 1
128 768 m 1
 128 640 l 1
 256 640 l 1
 256 768 l 1
 128 768 l 1
0 640 m 1
 0 512 l 1
 128 512 l 1
 128 640 l 1
 0 640 l 1
128 640 m 1
 128 512 l 1
 256 512 l 1
 256 640 l 1
 128 640 l 1
0 512 m 1
 0 384 l 1
 128 384 l 1
 128 512 l 1
 0 512 l 1
128 512 m 1
 128 384 l 1
 256 384 l 1
 256 512 l 1
 128 512 l 1
0 384 m 1
 0 256 l 1
 128 256 l 1
 128 384 l 1
 0 384 l 1
128 384 m 1
 128 256 l 1
 256 256 l 1
 256 384 l 1
 128 384 l 1
0 256 m 1
 0 128 l 1
 128 128 l 1
 128 256 l 1
 0 256 l 1
128 256 m 1
 128 128 l 1
 256 128 l 1
 256 256 l 1
 128 256 l 1
0 128 m 1
 0 0 l 1
 128 0 l 1
 128 128 l 1
 0 128 l 1
128 128 m 1
 128 0 l 1
 256 0 l 1
 256 128 l 1
 128 128 l 1
0 0 m 1
 0 -128 l 1
 128 -128 l 1
 128 0 l 1
 0 0 l 1
128 0 m 1
 128 -128 l 1
 256 -128 l 1
 256 0 l 1
 128 0 l 1
EndSplineSet
EndChar

StartChar: LEFT
Encoding: 9613 9613 256
Width: 512
Flags: HW
LayerCount: 2
Fore
SplineSet
0 896 m 1
 0 768 l 1
 128 768 l 1
 128 896 l 1
 0 896 l 1
128 896 m 1
 128 768 l 1
 256 768 l 1
 256 896 l 1
 128 896 l 1
0 768 m 1
 0 640 l 1
 128 640 l 1
 128 768 l 1
 0 768 l 1
128 768 m 1
 128 640 l 1
 256 640 l 1
 256 768 l 1
 128 768 l 1
0 640 m 1
 0 512 l 1
 128 512 l 1
 128 640 l 1
 0 640 l 1
128 640 m 1
 128 512 l 1
 256 512 l 1
 256 640 l 1
 128 640 l 1
0 512 m 1
 0 384 l 1
 128 384 l 1
 128 512 l 1
 0 512 l 1
128 512 m 1
 128 384 l 1
 256 384 l 1
 256 512 l 1
 128 512 l 1
0 384 m 1
 0 256 l 1
 128 256 l 1
 128 384 l 1
 0 384 l 1
128 384 m 1
 128 256 l 1
 256 256 l 1
 256 384 l 1
 128 384 l 1
0 256 m 1
 0 128 l 1
 128 128 l 1
 128 256 l 1
 0 256 l 1
128 256 m 1
 128 128 l 1
 256 128 l 1
 256 256 l 1
 128 256 l 1
0 128 m 1
 0 0 l 1
 128 0 l 1
 128 128 l 1
 0 128 l 1
128 128 m 1
 128 0 l 1
 256 0 l 1
 256 128 l 1
 128 128 l 1
0 0 m 1
 0 -128 l 1
 128 -128 l 1
 128 0 l 1
 0 0 l 1
128 0 m 1
 128 -128 l 1
 256 -128 l 1
 256 0 l 1
 128 0 l 1
EndSplineSet
EndChar

StartChar: LEFT
Encoding: 9614 9614 257
Width: 512
Flags: HW
LayerCount: 2
Fore
SplineSet
0 896 m 1
 0 768 l 1
 128 768 l 1
 128 896 l 1
 0 896 l 1
0 768 m 1
 0 640 l 1
 128 640 l 1
 128 768 l 1
 0 768 l 1
0 640 m 1
 0 512 l 1
 128 512 l 1
 128 640 l 1
 0 640 l 1
0 512 m 1
 0 384 l 1
 128 384 l 1
 128 512 l 1
 0 512 l 1
0 384 m 1
 0 256 l 1
 128 256 l 1
 128 384 l 1
 0 384 l 1
0 256 m 1
 0 128 l 1
 128 128 l 1
 128 256 l 1
 0 256 l 1
0 128 m 1
 0 0 l 1
 128 0 l 1
 128 128 l 1
 0 128 l 1
0 0 m 1
 0 -128 l 1
 128 -128 l 1
 128 0 l 1
 0 0 l 1
EndSplineSet
EndChar

StartChar: LEFT
Encoding: 9615 9615 258
Width: 512
Flags: HW
LayerCount: 2
Fore
SplineSet
0 896 m 1
 0 768 l 1
 128 768 l 1
 128 896 l 1
 0 896 l 1
0 768 m 1
 0 640 l 1
 128 640 l 1
 128 768 l 1
 0 768 l 1
0 640 m 1
 0 512 l 1
 128 512 l 1
 128 640 l 1
 0 640 l 1
0 512 m 1
 0 384 l 1
 128 384 l 1
 128 512 l 1
 0 512 l 1
0 384 m 1
 0 256 l 1
 128 256 l 1
 128 384 l 1
 0 384 l 1
0 256 m 1
 0 128 l 1
 128 128 l 1
 128 256 l 1
 0 256 l 1
0 128 m 1
 0 0 l 1
 128 0 l 1
 128 128 l 1
 0 128 l 1
0 0 m 1
 0 -128 l 1
 128 -128 l 1
 128 0 l 1
 0 0 l 1
EndSplineSet
EndChar

StartChar: RIGHT
Encoding: 9616 9616 259
Width: 512
Flags: HW
LayerCount: 2
Fore
SplineSet
256 896 m 1
 256 768 l 1
 384 768 l 1
 384 896 l 1
 256 896 l 1
384 896 m 1
 384 768 l 1
 512 768 l 1
 512 896 l 1
 384 896 l 1
256 768 m 1
 256 640 l 1
 384 640 l 1
 384 768 l 1
 256 768 l 1
384 768 m 1
 384 640 l 1
 512 640 l 1
 512 768 l 1
 384 768 l 1
256 640 m 1
 256 512 l 1
 384 512 l 1
 384 640 l 1
 256 640 l 1
384 640 m 1
 384 512 l 1
 512 512 l 1
 512 640 l 1
 384 640 l 1
256 512 m 1
 256 384 l 1
 384 384 l 1
 384 512 l 1
 256 512 l 1
384 512 m 1
 384 384 l 1
 512 384 l 1
 512 512 l 1
 384 512 l 1
256 384 m 1
 256 256 l 1
 384 256 l 1
 384 384 l 1
 256 384 l 1
384 384 m 1
 384 256 l 1
 512 256 l 1
 512 384 l 1
 384 384 l 1
256 256 m 1
 256 128 l 1
 384 128 l 1
 384 256 l 1
 256 256 l 1
384 256 m 1
 384 128 l 1
 512 128 l 1
 512 256 l 1
 384 256 l 1
256 128 m 1
 256 0 l 1
 384 0 l 1
 384 128 l 1
 256 128 l 1
384 128 m 1
 384 0 l 1
 512 0 l 1
 512 128 l 1
 384 128 l 1
256 0 m 1
 256 -128 l 1
 384 -128 l 1
 384 0 l 1
 256 0 l 1
384 0 m 1
 384 -128 l 1
 512 -128 l 1
 512 0 l 1
 384 0 l 1
EndSplineSet
EndChar

StartChar: LIGHT
Encoding: 9617 9617 260
Width: 512
Flags: HW
LayerCount: 2
Fore
SplineSet
0 896 m 1
 0 768 l 1
 128 768 l 1
 128 896 l 1
 0 896 l 1
256 768 m 1
 256 640 l 1
 384 640 l 1
 384 768 l 1
 256 768 l 1
0 640 m 1
 0 512 l 1
 128 512 l 1
 128 640 l 1
 0 640 l 1
256 512 m 1
 256 384 l 1
 384 384 l 1
 384 512 l 1
 256 512 l 1
0 384 m 1
 0 256 l 1
 128 256 l 1
 128 384 l 1
 0 384 l 1
256 256 m 1
 256 128 l 1
 384 128 l 1
 384 256 l 1
 256 256 l 1
0 128 m 1
 0 0 l 1
 128 0 l 1
 128 128 l 1
 0 128 l 1
256 0 m 1
 256 -128 l 1
 384 -128 l 1
 384 0 l 1
 256 0 l 1
EndSplineSet
EndChar

StartChar: MEDIUM
Encoding: 9618 9618 261
Width: 512
Flags: HW
LayerCount: 2
Fore
SplineSet
0 896 m 1
 0 768 l 1
 128 768 l 1
 128 896 l 1
 0 896 l 1
256 896 m 1
 256 768 l 1
 384 768 l 1
 384 896 l 1
 256 896 l 1
128 768 m 1
 128 640 l 1
 256 640 l 1
 256 768 l 1
 128 768 l 1
384 768 m 1
 384 640 l 1
 512 640 l 1
 512 768 l 1
 384 768 l 1
0 640 m 1
 0 512 l 1
 128 512 l 1
 128 640 l 1
 0 640 l 1
256 640 m 1
 256 512 l 1
 384 512 l 1
 384 640 l 1
 256 640 l 1
128 512 m 1
 128 384 l 1
 256 384 l 1
 256 512 l 1
 128 512 l 1
384 512 m 1
 384 384 l 1
 512 384 l 1
 512 512 l 1
 384 512 l 1
0 384 m 1
 0 256 l 1
 128 256 l 1
 128 384 l 1
 0 384 l 1
256 384 m 1
 256 256 l 1
 384 256 l 1
 384 384 l 1
 256 384 l 1
128 256 m 1
 128 128 l 1
 256 128 l 1
 256 256 l 1
 128 256 l 1
384 256 m 1
 384 128 l 1
 512 128 l 1
 512 256 l 1
 384 256 l 1
0 128 m 1
 0 0 l 1
 128 0 l 1
 128 128 l 1
 0 128 l 1
256 128 m 1
 256 0 l 1
 384 0 l 1
 384 128 l 1
 256 128 l 1
128 0 m 1
 128 -128 l 1
 256 -128 l 1
 256 0 l 1
 128 0 l 1
384 0 m 1
 384 -128 l 1
 512 -128 l 1
 512 0 l 1
 384 0 l 1
EndSplineSet
EndChar

StartChar: DARK
Encoding: 9619 9619 262
Width: 512
Flags: HW
LayerCount: 2
Fore
SplineSet
0 896 m 1
 0 768 l 1
 128 768 l 1
 128 896 l 1
 0 896 l 1
256 896 m 1
 256 768 l 1
 384 768 l 1
 384 896 l 1
 256 896 l 1
384 896 m 1
 384 768 l 1
 512 768 l 1
 512 896 l 1
 384 896 l 1
0 768 m 1
 0 640 l 1
 128 640 l 1
 128 768 l 1
 0 768 l 1
128 768 m 1
 128 640 l 1
 256 640 l 1
 256 768 l 1
 128 768 l 1
256 768 m 1
 256 640 l 1
 384 640 l 1
 384 768 l 1
 256 768 l 1
0 640 m 1
 0 512 l 1
 128 512 l 1
 128 640 l 1
 0 640 l 1
256 640 m 1
 256 512 l 1
 384 512 l 1
 384 640 l 1
 256 640 l 1
384 640 m 1
 384 512 l 1
 512 512 l 1
 512 640 l 1
 384 640 l 1
0 512 m 1
 0 384 l 1
 128 384 l 1
 128 512 l 1
 0 512 l 1
128 512 m 1
 128 384 l 1
 256 384 l 1
 256 512 l 1
 128 512 l 1
256 512 m 1
 256 384 l 1
 384 384 l 1
 384 512 l 1
 256 512 l 1
0 384 m 1
 0 256 l 1
 128 256 l 1
 128 384 l 1
 0 384 l 1
256 384 m 1
 256 256 l 1
 384 256 l 1
 384 384 l 1
 256 384 l 1
384 384 m 1
 384 256 l 1
 512 256 l 1
 512 384 l 1
 384 384 l 1
0 256 m 1
 0 128 l 1
 128 128 l 1
 128 256 l 1
 0 256 l 1
128 256 m 1
 128 128 l 1
 256 128 l 1
 256 256 l 1
 128 256 l 1
256 256 m 1
 256 128 l 1
 384 128 l 1
 384 256 l 1
 256 256 l 1
0 128 m 1
 0 0 l 1
 128 0 l 1
 128 128 l 1
 0 128 l 1
256 128 m 1
 256 0 l 1
 384 0 l 1
 384 128 l 1
 256 128 l 1
384 128 m 1
 384 0 l 1
 512 0 l 1
 512 128 l 1
 384 128 l 1
0 0 m 1
 0 -128 l 1
 128 -128 l 1
 128 0 l 1
 0 0 l 1
128 0 m 1
 128 -128 l 1
 256 -128 l 1
 256 0 l 1
 128 0 l 1
256 0 m 1
 256 -128 l 1
 384 -128 l 1
 384 0 l 1
 256 0 l 1
EndSplineSet
EndChar

StartChar: UPPER
Encoding: 9620 9620 263
Width: 512
Flags: HW
LayerCount: 2
Fore
SplineSet
0 896 m 1
 0 768 l 1
 128 768 l 1
 128 896 l 1
 0 896 l 1
128 896 m 1
 128 768 l 1
 256 768 l 1
 256 896 l 1
 128 896 l 1
256 896 m 1
 256 768 l 1
 384 768 l 1
 384 896 l 1
 256 896 l 1
384 896 m 1
 384 768 l 1
 512 768 l 1
 512 896 l 1
 384 896 l 1
EndSplineSet
EndChar

StartChar: RIGHT
Encoding: 9621 9621 264
Width: 512
Flags: HW
LayerCount: 2
Fore
SplineSet
384 896 m 1
 384 768 l 1
 512 768 l 1
 512 896 l 1
 384 896 l 1
384 768 m 1
 384 640 l 1
 512 640 l 1
 512 768 l 1
 384 768 l 1
384 640 m 1
 384 512 l 1
 512 512 l 1
 512 640 l 1
 384 640 l 1
384 512 m 1
 384 384 l 1
 512 384 l 1
 512 512 l 1
 384 512 l 1
384 384 m 1
 384 256 l 1
 512 256 l 1
 512 384 l 1
 384 384 l 1
384 256 m 1
 384 128 l 1
 512 128 l 1
 512 256 l 1
 384 256 l 1
384 128 m 1
 384 0 l 1
 512 0 l 1
 512 128 l 1
 384 128 l 1
384 0 m 1
 384 -128 l 1
 512 -128 l 1
 512 0 l 1
 384 0 l 1
EndSplineSet
EndChar

